G04 Layer: TopSolderMaskLayer*
G04 EasyEDA v6.4.7, 2020-12-24T11:11:18+08:00*
G04 a96b1d35a67042aea81d214db1df88de,0371d748834c44ad86c168cee136e782,10*
G04 Gerber Generator version 0.2*
G04 Scale: 100 percent, Rotated: No, Reflected: No *
G04 Dimensions in millimeters *
G04 leading zeros omitted , absolute positions ,3 integer and 3 decimal *
%FSLAX33Y33*%
%MOMM*%
G90*
D02*

%ADD27C,0.653212*%
%ADD32C,2.003196*%

%LPD*%
G54D27*
G01X30381Y27305D02*
G01X29181Y27305D01*
G01X30381Y26504D02*
G01X29181Y26504D01*
G01X30381Y25704D02*
G01X29181Y25704D01*
G01X30381Y24904D02*
G01X29181Y24904D01*
G01X30381Y24107D02*
G01X29181Y24107D01*
G01X30381Y23307D02*
G01X29181Y23307D01*
G01X30381Y22506D02*
G01X29181Y22506D01*
G01X30381Y21706D02*
G01X29181Y21706D01*
G01X28206Y20742D02*
G01X28206Y19542D01*
G01X27406Y20742D02*
G01X27406Y19542D01*
G01X26606Y20742D02*
G01X26606Y19542D01*
G01X25806Y20742D02*
G01X25806Y19542D01*
G01X25008Y20742D02*
G01X25008Y19542D01*
G01X24208Y20742D02*
G01X24208Y19542D01*
G01X23408Y20742D02*
G01X23408Y19542D01*
G01X22608Y20742D02*
G01X22608Y19542D01*
G01X21618Y21717D02*
G01X20418Y21717D01*
G01X21618Y22517D02*
G01X20418Y22517D01*
G01X21618Y23317D02*
G01X20418Y23317D01*
G01X21618Y24117D02*
G01X20418Y24117D01*
G01X21618Y24914D02*
G01X20418Y24914D01*
G01X21618Y25714D02*
G01X20418Y25714D01*
G01X21618Y26515D02*
G01X20418Y26515D01*
G01X21618Y27315D02*
G01X20418Y27315D01*
G01X22618Y29479D02*
G01X22618Y28279D01*
G01X23418Y29479D02*
G01X23418Y28279D01*
G01X24218Y29479D02*
G01X24218Y28279D01*
G01X25019Y29479D02*
G01X25019Y28279D01*
G01X25816Y29479D02*
G01X25816Y28279D01*
G01X26616Y29479D02*
G01X26616Y28279D01*
G01X27416Y29479D02*
G01X27416Y28279D01*
G01X28216Y29479D02*
G01X28216Y28279D01*
G36*
G01X16431Y11442D02*
G01X16431Y13195D01*
G01X17635Y13195D01*
G01X17635Y11442D01*
G01X16431Y11442D01*
G37*
G36*
G01X18432Y11442D02*
G01X18432Y13195D01*
G01X19636Y13195D01*
G01X19636Y11442D01*
G01X18432Y11442D01*
G37*
G36*
G01X7033Y35191D02*
G01X7033Y36944D01*
G01X8237Y36944D01*
G01X8237Y35191D01*
G01X7033Y35191D01*
G37*
G36*
G01X9034Y35191D02*
G01X9034Y36944D01*
G01X10238Y36944D01*
G01X10238Y35191D01*
G01X9034Y35191D01*
G37*
G36*
G01X32560Y11569D02*
G01X32560Y13322D01*
G01X33764Y13322D01*
G01X33764Y11569D01*
G01X32560Y11569D01*
G37*
G36*
G01X34561Y11569D02*
G01X34561Y13322D01*
G01X35765Y13322D01*
G01X35765Y11569D01*
G01X34561Y11569D01*
G37*
G36*
G01X32560Y8394D02*
G01X32560Y10147D01*
G01X33764Y10147D01*
G01X33764Y8394D01*
G01X32560Y8394D01*
G37*
G36*
G01X34561Y8394D02*
G01X34561Y10147D01*
G01X35765Y10147D01*
G01X35765Y8394D01*
G01X34561Y8394D01*
G37*
G36*
G01X53776Y37802D02*
G01X53776Y42207D01*
G01X57480Y42207D01*
G01X57480Y37802D01*
G01X53776Y37802D01*
G37*
G36*
G01X23799Y37802D02*
G01X23799Y42207D01*
G01X27503Y42207D01*
G01X27503Y37802D01*
G01X23799Y37802D01*
G37*
G36*
G01X12415Y24874D02*
G01X12415Y26977D01*
G01X15016Y26977D01*
G01X15016Y24874D01*
G01X12415Y24874D01*
G37*
G36*
G01X12415Y20774D02*
G01X12415Y22877D01*
G01X15016Y22877D01*
G01X15016Y20774D01*
G01X12415Y20774D01*
G37*
G36*
G01X29413Y11595D02*
G01X29413Y13296D01*
G01X31018Y13296D01*
G01X31018Y11595D01*
G01X29413Y11595D01*
G37*
G36*
G01X21813Y11595D02*
G01X21813Y13296D01*
G01X23418Y13296D01*
G01X23418Y11595D01*
G01X21813Y11595D01*
G37*
G54D32*
G01X3175Y23368D03*
G01X3175Y25908D03*
G01X3175Y28448D03*
G01X3175Y30988D03*
G01X3175Y33528D03*
G36*
G01X2174Y35067D02*
G01X2174Y37068D01*
G01X4175Y37068D01*
G01X4175Y35067D01*
G01X2174Y35067D01*
G37*
G36*
G01X12839Y30370D02*
G01X12839Y31574D01*
G01X14592Y31574D01*
G01X14592Y30370D01*
G01X12839Y30370D01*
G37*
G36*
G01X12839Y28369D02*
G01X12839Y29573D01*
G01X14592Y29573D01*
G01X14592Y28369D01*
G01X12839Y28369D01*
G37*
G36*
G01X12839Y16304D02*
G01X12839Y17508D01*
G01X14592Y17508D01*
G01X14592Y16304D01*
G01X12839Y16304D01*
G37*
G36*
G01X12839Y18305D02*
G01X12839Y19509D01*
G01X14592Y19509D01*
G01X14592Y18305D01*
G01X12839Y18305D01*
G37*
M00*
M02*
