G04 Layer: BottomPasteMaskLayer*
G04 EasyEDA v6.4.7, 2020-12-24T11:11:18+08:00*
G04 a96b1d35a67042aea81d214db1df88de,0371d748834c44ad86c168cee136e782,10*
G04 Gerber Generator version 0.2*
G04 Scale: 100 percent, Rotated: No, Reflected: No *
G04 Dimensions in millimeters *
G04 leading zeros omitted , absolute positions ,3 integer and 3 decimal *
%FSLAX33Y33*%
%MOMM*%
G90*
D02*


%LPD*%
G36*
G01X61349Y4458D02*
G01X60349Y4458D01*
G01X60349Y2907D01*
G01X61349Y2907D01*
G01X61349Y4458D01*
G37*
G36*
G01X63348Y4458D02*
G01X62348Y4458D01*
G01X62348Y2907D01*
G01X63348Y2907D01*
G01X63348Y4458D01*
G37*
G36*
G01X3823Y48124D02*
G01X3823Y49124D01*
G01X2272Y49124D01*
G01X2272Y48124D01*
G01X3823Y48124D01*
G37*
G36*
G01X3823Y46125D02*
G01X3823Y47125D01*
G01X2272Y47125D01*
G01X2272Y46125D01*
G01X3823Y46125D01*
G37*
G36*
G01X3696Y13961D02*
G01X3696Y14961D01*
G01X2145Y14961D01*
G01X2145Y13961D01*
G01X3696Y13961D01*
G37*
G36*
G01X3696Y11962D02*
G01X3696Y12962D01*
G01X2145Y12962D01*
G01X2145Y11962D01*
G01X3696Y11962D01*
G37*
G36*
G01X10168Y53099D02*
G01X9168Y53099D01*
G01X9168Y51548D01*
G01X10168Y51548D01*
G01X10168Y53099D01*
G37*
G36*
G01X12167Y53099D02*
G01X11167Y53099D01*
G01X11167Y51548D01*
G01X12167Y51548D01*
G01X12167Y53099D01*
G37*
G36*
G01X35187Y53099D02*
G01X34187Y53099D01*
G01X34187Y51548D01*
G01X35187Y51548D01*
G01X35187Y53099D01*
G37*
G36*
G01X37186Y53099D02*
G01X36186Y53099D01*
G01X36186Y51548D01*
G01X37186Y51548D01*
G01X37186Y53099D01*
G37*
G36*
G01X9025Y4204D02*
G01X8025Y4204D01*
G01X8025Y2653D01*
G01X9025Y2653D01*
G01X9025Y4204D01*
G37*
G36*
G01X11024Y4204D02*
G01X10024Y4204D01*
G01X10024Y2653D01*
G01X11024Y2653D01*
G01X11024Y4204D01*
G37*
G36*
G01X35441Y4331D02*
G01X34441Y4331D01*
G01X34441Y2780D01*
G01X35441Y2780D01*
G01X35441Y4331D01*
G37*
G36*
G01X37440Y4331D02*
G01X36440Y4331D01*
G01X36440Y2780D01*
G01X37440Y2780D01*
G01X37440Y4331D01*
G37*
G36*
G01X61222Y53226D02*
G01X60222Y53226D01*
G01X60222Y51675D01*
G01X61222Y51675D01*
G01X61222Y53226D01*
G37*
G36*
G01X63221Y53226D02*
G01X62221Y53226D01*
G01X62221Y51675D01*
G01X63221Y51675D01*
G01X63221Y53226D01*
G37*
G36*
G01X82177Y53099D02*
G01X81177Y53099D01*
G01X81177Y51548D01*
G01X82177Y51548D01*
G01X82177Y53099D01*
G37*
G36*
G01X84176Y53099D02*
G01X83176Y53099D01*
G01X83176Y51548D01*
G01X84176Y51548D01*
G01X84176Y53099D01*
G37*
G36*
G01X83066Y4331D02*
G01X82066Y4331D01*
G01X82066Y2780D01*
G01X83066Y2780D01*
G01X83066Y4331D01*
G37*
G36*
G01X85065Y4331D02*
G01X84065Y4331D01*
G01X84065Y2780D01*
G01X85065Y2780D01*
G01X85065Y4331D01*
G37*
G36*
G01X98565Y16628D02*
G01X98565Y17628D01*
G01X97014Y17628D01*
G01X97014Y16628D01*
G01X98565Y16628D01*
G37*
G36*
G01X98565Y14629D02*
G01X98565Y15629D01*
G01X97014Y15629D01*
G01X97014Y14629D01*
G01X98565Y14629D01*
G37*
G36*
G01X98819Y43044D02*
G01X98819Y44044D01*
G01X97268Y44044D01*
G01X97268Y43044D01*
G01X98819Y43044D01*
G37*
G36*
G01X98819Y41045D02*
G01X98819Y42045D01*
G01X97268Y42045D01*
G01X97268Y41045D01*
G01X98819Y41045D01*
G37*
G36*
G01X68401Y53150D02*
G01X67401Y53150D01*
G01X67401Y51751D01*
G01X68401Y51751D01*
G01X68401Y53150D01*
G37*
G36*
G01X66201Y53150D02*
G01X65201Y53150D01*
G01X65201Y51751D01*
G01X66201Y51751D01*
G01X66201Y53150D01*
G37*
G36*
G01X42874Y4255D02*
G01X41874Y4255D01*
G01X41874Y2856D01*
G01X42874Y2856D01*
G01X42874Y4255D01*
G37*
G36*
G01X40674Y4255D02*
G01X39674Y4255D01*
G01X39674Y2856D01*
G01X40674Y2856D01*
G01X40674Y4255D01*
G37*
G36*
G01X3620Y6782D02*
G01X3620Y7782D01*
G01X2221Y7782D01*
G01X2221Y6782D01*
G01X3620Y6782D01*
G37*
G36*
G01X3620Y8982D02*
G01X3620Y9982D01*
G01X2221Y9982D01*
G01X2221Y8982D01*
G01X3620Y8982D01*
G37*
G36*
G01X3747Y41326D02*
G01X3747Y42326D01*
G01X2348Y42326D01*
G01X2348Y41326D01*
G01X3747Y41326D01*
G37*
G36*
G01X3747Y43526D02*
G01X3747Y44526D01*
G01X2348Y44526D01*
G01X2348Y43526D01*
G01X3747Y43526D01*
G37*
G36*
G01X90245Y4255D02*
G01X89245Y4255D01*
G01X89245Y2856D01*
G01X90245Y2856D01*
G01X90245Y4255D01*
G37*
G36*
G01X88045Y4255D02*
G01X87045Y4255D01*
G01X87045Y2856D01*
G01X88045Y2856D01*
G01X88045Y4255D01*
G37*
G36*
G01X98489Y9322D02*
G01X98489Y10322D01*
G01X97090Y10322D01*
G01X97090Y9322D01*
G01X98489Y9322D01*
G37*
G36*
G01X98489Y11522D02*
G01X98489Y12522D01*
G01X97090Y12522D01*
G01X97090Y11522D01*
G01X98489Y11522D01*
G37*
G36*
G01X98743Y35865D02*
G01X98743Y36865D01*
G01X97344Y36865D01*
G01X97344Y35865D01*
G01X98743Y35865D01*
G37*
G36*
G01X98743Y38065D02*
G01X98743Y39065D01*
G01X97344Y39065D01*
G01X97344Y38065D01*
G01X98743Y38065D01*
G37*
G36*
G01X89610Y53023D02*
G01X88610Y53023D01*
G01X88610Y51624D01*
G01X89610Y51624D01*
G01X89610Y53023D01*
G37*
G36*
G01X87410Y53023D02*
G01X86410Y53023D01*
G01X86410Y51624D01*
G01X87410Y51624D01*
G01X87410Y53023D01*
G37*
G36*
G01X16331Y4128D02*
G01X15331Y4128D01*
G01X15331Y2729D01*
G01X16331Y2729D01*
G01X16331Y4128D01*
G37*
G36*
G01X14131Y4128D02*
G01X13131Y4128D01*
G01X13131Y2729D01*
G01X14131Y2729D01*
G01X14131Y4128D01*
G37*
G36*
G01X42874Y53023D02*
G01X41874Y53023D01*
G01X41874Y51624D01*
G01X42874Y51624D01*
G01X42874Y53023D01*
G37*
G36*
G01X40674Y53023D02*
G01X39674Y53023D01*
G01X39674Y51624D01*
G01X40674Y51624D01*
G01X40674Y53023D01*
G37*
G36*
G01X17601Y53023D02*
G01X16601Y53023D01*
G01X16601Y51624D01*
G01X17601Y51624D01*
G01X17601Y53023D01*
G37*
G36*
G01X15401Y53023D02*
G01X14401Y53023D01*
G01X14401Y51624D01*
G01X15401Y51624D01*
G01X15401Y53023D01*
G37*
G36*
G01X68274Y4382D02*
G01X67274Y4382D01*
G01X67274Y2983D01*
G01X68274Y2983D01*
G01X68274Y4382D01*
G37*
G36*
G01X66074Y4382D02*
G01X65074Y4382D01*
G01X65074Y2983D01*
G01X66074Y2983D01*
G01X66074Y4382D01*
G37*
M00*
M02*
