G04 Layer: TopLayer*
G04 EasyEDA v6.4.7, 2020-12-24T11:11:18+08:00*
G04 a96b1d35a67042aea81d214db1df88de,0371d748834c44ad86c168cee136e782,10*
G04 Gerber Generator version 0.2*
G04 Scale: 100 percent, Rotated: No, Reflected: No *
G04 Dimensions in millimeters *
G04 leading zeros omitted , absolute positions ,3 integer and 3 decimal *
%FSLAX33Y33*%
%MOMM*%
G90*
D02*

%ADD10C,0.254000*%
%ADD11C,0.450012*%
%ADD12C,0.610006*%
%ADD13R,0.999998X1.550010*%
%ADD14R,3.499993X4.199992*%
%ADD16R,1.399997X1.499997*%
%ADD17R,1.550010X0.999998*%
%ADD18C,1.799996*%
%ADD19R,1.799996X1.799996*%

%LPD*%
G36*
G01X97000Y54743D02*
G01X4999Y54743D01*
G01X4900Y54742D01*
G01X4801Y54739D01*
G01X4702Y54734D01*
G01X4603Y54726D01*
G01X4504Y54717D01*
G01X4405Y54706D01*
G01X4307Y54692D01*
G01X4208Y54677D01*
G01X4111Y54659D01*
G01X4013Y54639D01*
G01X3916Y54618D01*
G01X3820Y54594D01*
G01X3724Y54568D01*
G01X3628Y54540D01*
G01X3534Y54511D01*
G01X3440Y54479D01*
G01X3346Y54445D01*
G01X3253Y54410D01*
G01X3161Y54372D01*
G01X3070Y54333D01*
G01X2980Y54291D01*
G01X2890Y54248D01*
G01X2802Y54203D01*
G01X2714Y54156D01*
G01X2628Y54107D01*
G01X2542Y54057D01*
G01X2458Y54005D01*
G01X2292Y53895D01*
G01X2211Y53837D01*
G01X2132Y53778D01*
G01X2053Y53717D01*
G01X1976Y53654D01*
G01X1900Y53590D01*
G01X1826Y53525D01*
G01X1752Y53457D01*
G01X1681Y53389D01*
G01X1610Y53318D01*
G01X1542Y53247D01*
G01X1474Y53173D01*
G01X1409Y53099D01*
G01X1345Y53023D01*
G01X1282Y52946D01*
G01X1221Y52867D01*
G01X1162Y52788D01*
G01X1104Y52707D01*
G01X994Y52541D01*
G01X942Y52457D01*
G01X892Y52371D01*
G01X843Y52285D01*
G01X796Y52197D01*
G01X751Y52109D01*
G01X707Y52019D01*
G01X666Y51929D01*
G01X627Y51838D01*
G01X589Y51746D01*
G01X554Y51653D01*
G01X520Y51559D01*
G01X488Y51465D01*
G01X459Y51371D01*
G01X431Y51275D01*
G01X405Y51179D01*
G01X381Y51083D01*
G01X360Y50986D01*
G01X340Y50888D01*
G01X322Y50791D01*
G01X307Y50692D01*
G01X293Y50594D01*
G01X282Y50495D01*
G01X273Y50396D01*
G01X265Y50297D01*
G01X260Y50198D01*
G01X257Y50099D01*
G01X256Y50000D01*
G01X256Y4999D01*
G01X257Y4900D01*
G01X260Y4801D01*
G01X265Y4702D01*
G01X273Y4603D01*
G01X282Y4504D01*
G01X293Y4405D01*
G01X307Y4307D01*
G01X322Y4208D01*
G01X340Y4111D01*
G01X360Y4013D01*
G01X381Y3916D01*
G01X405Y3820D01*
G01X431Y3724D01*
G01X459Y3628D01*
G01X488Y3534D01*
G01X520Y3440D01*
G01X554Y3346D01*
G01X589Y3253D01*
G01X627Y3161D01*
G01X666Y3070D01*
G01X707Y2980D01*
G01X751Y2890D01*
G01X796Y2802D01*
G01X843Y2714D01*
G01X892Y2628D01*
G01X942Y2542D01*
G01X994Y2458D01*
G01X1104Y2292D01*
G01X1162Y2211D01*
G01X1221Y2132D01*
G01X1282Y2053D01*
G01X1345Y1976D01*
G01X1409Y1900D01*
G01X1474Y1826D01*
G01X1542Y1752D01*
G01X1610Y1681D01*
G01X1681Y1610D01*
G01X1752Y1542D01*
G01X1826Y1474D01*
G01X1900Y1409D01*
G01X1976Y1345D01*
G01X2053Y1282D01*
G01X2132Y1221D01*
G01X2211Y1162D01*
G01X2292Y1104D01*
G01X2458Y994D01*
G01X2542Y942D01*
G01X2628Y892D01*
G01X2714Y843D01*
G01X2802Y796D01*
G01X2890Y751D01*
G01X2980Y707D01*
G01X3070Y666D01*
G01X3161Y627D01*
G01X3253Y589D01*
G01X3346Y554D01*
G01X3440Y520D01*
G01X3534Y488D01*
G01X3628Y459D01*
G01X3724Y431D01*
G01X3820Y405D01*
G01X3916Y381D01*
G01X4013Y360D01*
G01X4111Y340D01*
G01X4208Y322D01*
G01X4307Y307D01*
G01X4405Y293D01*
G01X4504Y282D01*
G01X4603Y273D01*
G01X4702Y265D01*
G01X4801Y260D01*
G01X4900Y257D01*
G01X4999Y256D01*
G01X97000Y256D01*
G01X97099Y257D01*
G01X97198Y260D01*
G01X97297Y265D01*
G01X97396Y273D01*
G01X97495Y282D01*
G01X97594Y293D01*
G01X97692Y307D01*
G01X97791Y322D01*
G01X97888Y340D01*
G01X97986Y360D01*
G01X98083Y381D01*
G01X98179Y405D01*
G01X98275Y431D01*
G01X98371Y459D01*
G01X98465Y488D01*
G01X98559Y520D01*
G01X98653Y554D01*
G01X98746Y589D01*
G01X98838Y627D01*
G01X98929Y666D01*
G01X99019Y707D01*
G01X99109Y751D01*
G01X99197Y796D01*
G01X99285Y843D01*
G01X99371Y892D01*
G01X99457Y942D01*
G01X99541Y994D01*
G01X99707Y1104D01*
G01X99788Y1162D01*
G01X99867Y1221D01*
G01X99946Y1282D01*
G01X100023Y1345D01*
G01X100099Y1409D01*
G01X100173Y1474D01*
G01X100247Y1542D01*
G01X100318Y1610D01*
G01X100389Y1681D01*
G01X100457Y1752D01*
G01X100525Y1826D01*
G01X100590Y1900D01*
G01X100654Y1976D01*
G01X100717Y2053D01*
G01X100778Y2132D01*
G01X100837Y2211D01*
G01X100895Y2292D01*
G01X101005Y2458D01*
G01X101057Y2542D01*
G01X101107Y2628D01*
G01X101156Y2714D01*
G01X101203Y2802D01*
G01X101248Y2890D01*
G01X101291Y2980D01*
G01X101333Y3070D01*
G01X101372Y3161D01*
G01X101410Y3253D01*
G01X101445Y3346D01*
G01X101479Y3440D01*
G01X101511Y3534D01*
G01X101540Y3628D01*
G01X101568Y3724D01*
G01X101594Y3820D01*
G01X101618Y3916D01*
G01X101639Y4013D01*
G01X101659Y4111D01*
G01X101677Y4208D01*
G01X101692Y4307D01*
G01X101706Y4405D01*
G01X101717Y4504D01*
G01X101726Y4603D01*
G01X101734Y4702D01*
G01X101739Y4801D01*
G01X101742Y4900D01*
G01X101743Y4999D01*
G01X101743Y50000D01*
G01X101742Y50099D01*
G01X101739Y50198D01*
G01X101734Y50297D01*
G01X101726Y50396D01*
G01X101717Y50495D01*
G01X101706Y50594D01*
G01X101692Y50692D01*
G01X101677Y50791D01*
G01X101659Y50888D01*
G01X101639Y50986D01*
G01X101618Y51083D01*
G01X101594Y51179D01*
G01X101568Y51275D01*
G01X101540Y51371D01*
G01X101511Y51465D01*
G01X101479Y51559D01*
G01X101445Y51653D01*
G01X101410Y51746D01*
G01X101372Y51838D01*
G01X101333Y51929D01*
G01X101291Y52019D01*
G01X101248Y52109D01*
G01X101203Y52197D01*
G01X101156Y52285D01*
G01X101107Y52371D01*
G01X101057Y52457D01*
G01X101005Y52541D01*
G01X100895Y52707D01*
G01X100837Y52788D01*
G01X100778Y52867D01*
G01X100717Y52946D01*
G01X100654Y53023D01*
G01X100590Y53099D01*
G01X100525Y53173D01*
G01X100457Y53247D01*
G01X100389Y53318D01*
G01X100318Y53389D01*
G01X100247Y53457D01*
G01X100173Y53525D01*
G01X100099Y53590D01*
G01X100023Y53654D01*
G01X99946Y53717D01*
G01X99867Y53778D01*
G01X99788Y53837D01*
G01X99707Y53895D01*
G01X99541Y54005D01*
G01X99457Y54057D01*
G01X99371Y54107D01*
G01X99285Y54156D01*
G01X99197Y54203D01*
G01X99109Y54248D01*
G01X99019Y54291D01*
G01X98929Y54333D01*
G01X98838Y54372D01*
G01X98746Y54410D01*
G01X98653Y54445D01*
G01X98559Y54479D01*
G01X98465Y54511D01*
G01X98371Y54540D01*
G01X98275Y54568D01*
G01X98179Y54594D01*
G01X98083Y54618D01*
G01X97986Y54639D01*
G01X97888Y54659D01*
G01X97791Y54677D01*
G01X97692Y54692D01*
G01X97594Y54706D01*
G01X97495Y54717D01*
G01X97396Y54726D01*
G01X97297Y54734D01*
G01X97198Y54739D01*
G01X97099Y54742D01*
G01X97000Y54743D01*
G37*

%LPC*%
G36*
G01X41943Y46407D02*
G01X41910Y46408D01*
G01X41875Y46407D01*
G01X41841Y46404D01*
G01X41807Y46399D01*
G01X41773Y46391D01*
G01X41740Y46382D01*
G01X41707Y46370D01*
G01X41675Y46357D01*
G01X41645Y46342D01*
G01X41615Y46324D01*
G01X41586Y46305D01*
G01X41558Y46285D01*
G01X41532Y46262D01*
G01X41507Y46238D01*
G01X41484Y46213D01*
G01X41462Y46186D01*
G01X41442Y46158D01*
G01X41424Y46129D01*
G01X41408Y46098D01*
G01X41393Y46067D01*
G01X41381Y46035D01*
G01X41370Y46002D01*
G01X41361Y45969D01*
G01X41355Y45935D01*
G01X41351Y45901D01*
G01X41348Y45866D01*
G01X41347Y45851D01*
G01X41343Y45836D01*
G01X41337Y45822D01*
G01X41329Y45810D01*
G01X41319Y45798D01*
G01X40368Y44848D01*
G01X27945Y32425D01*
G01X27925Y32402D01*
G01X27906Y32379D01*
G01X27889Y32354D01*
G01X27875Y32327D01*
G01X27862Y32300D01*
G01X27852Y32272D01*
G01X27843Y32243D01*
G01X27838Y32213D01*
G01X27834Y32183D01*
G01X27833Y32153D01*
G01X27833Y31501D01*
G01X27832Y31486D01*
G01X27829Y31472D01*
G01X27824Y31459D01*
G01X27817Y31446D01*
G01X27808Y31434D01*
G01X27798Y31424D01*
G01X27786Y31415D01*
G01X27773Y31408D01*
G01X27760Y31403D01*
G01X27746Y31400D01*
G01X27731Y31399D01*
G01X27715Y31401D01*
G01X27700Y31404D01*
G01X27685Y31410D01*
G01X27672Y31419D01*
G01X27659Y31429D01*
G01X27641Y31447D01*
G01X27631Y31459D01*
G01X27623Y31471D01*
G01X27617Y31485D01*
G01X27613Y31500D01*
G01X27612Y31515D01*
G01X27609Y31550D01*
G01X27605Y31584D01*
G01X27599Y31618D01*
G01X27590Y31651D01*
G01X27579Y31684D01*
G01X27567Y31716D01*
G01X27552Y31747D01*
G01X27536Y31778D01*
G01X27518Y31807D01*
G01X27498Y31835D01*
G01X27476Y31862D01*
G01X27453Y31887D01*
G01X27428Y31911D01*
G01X27402Y31934D01*
G01X27374Y31954D01*
G01X27345Y31973D01*
G01X27315Y31991D01*
G01X27285Y32006D01*
G01X27253Y32019D01*
G01X27220Y32031D01*
G01X27187Y32040D01*
G01X27153Y32048D01*
G01X27119Y32053D01*
G01X27085Y32056D01*
G01X27051Y32057D01*
G01X27017Y32056D01*
G01X26983Y32053D01*
G01X26949Y32048D01*
G01X26916Y32041D01*
G01X26883Y32032D01*
G01X26851Y32021D01*
G01X26820Y32008D01*
G01X26790Y31993D01*
G01X26760Y31976D01*
G01X26732Y31958D01*
G01X26704Y31938D01*
G01X26678Y31916D01*
G01X26653Y31893D01*
G01X26630Y31868D01*
G01X26608Y31842D01*
G01X26588Y31814D01*
G01X26570Y31786D01*
G01X26553Y31756D01*
G01X26538Y31726D01*
G01X26525Y31695D01*
G01X26514Y31663D01*
G01X26505Y31630D01*
G01X26498Y31597D01*
G01X26493Y31563D01*
G01X26490Y31529D01*
G01X26489Y31496D01*
G01X26490Y31462D01*
G01X26493Y31428D01*
G01X26498Y31394D01*
G01X26505Y31361D01*
G01X26514Y31328D01*
G01X26525Y31296D01*
G01X26538Y31265D01*
G01X26553Y31234D01*
G01X26570Y31205D01*
G01X26588Y31176D01*
G01X26609Y31149D01*
G01X26630Y31123D01*
G01X26653Y31098D01*
G01X26678Y31075D01*
G01X26704Y31053D01*
G01X26732Y31033D01*
G01X26760Y31015D01*
G01X26790Y30998D01*
G01X26820Y30983D01*
G01X26851Y30970D01*
G01X26884Y30959D01*
G01X26916Y30950D01*
G01X26949Y30943D01*
G01X26965Y30939D01*
G01X26979Y30933D01*
G01X26992Y30924D01*
G01X27004Y30914D01*
G01X27014Y30902D01*
G01X27022Y30889D01*
G01X27028Y30874D01*
G01X27032Y30859D01*
G01X27033Y30843D01*
G01X27033Y29970D01*
G01X27032Y29956D01*
G01X27029Y29941D01*
G01X27024Y29928D01*
G01X27017Y29915D01*
G01X27008Y29904D01*
G01X26998Y29893D01*
G01X26986Y29885D01*
G01X26973Y29878D01*
G01X26960Y29873D01*
G01X26946Y29870D01*
G01X26931Y29868D01*
G01X26917Y29869D01*
G01X26903Y29873D01*
G01X26889Y29878D01*
G01X26876Y29885D01*
G01X26847Y29902D01*
G01X26816Y29917D01*
G01X26784Y29931D01*
G01X26752Y29941D01*
G01X26718Y29950D01*
G01X26685Y29956D01*
G01X26650Y29960D01*
G01X26616Y29961D01*
G01X26582Y29960D01*
G01X26548Y29956D01*
G01X26514Y29950D01*
G01X26481Y29941D01*
G01X26448Y29931D01*
G01X26416Y29917D01*
G01X26386Y29902D01*
G01X26356Y29885D01*
G01X26343Y29878D01*
G01X26330Y29873D01*
G01X26316Y29869D01*
G01X26301Y29868D01*
G01X26287Y29870D01*
G01X26273Y29873D01*
G01X26259Y29878D01*
G01X26246Y29885D01*
G01X26235Y29893D01*
G01X26224Y29904D01*
G01X26216Y29915D01*
G01X26209Y29928D01*
G01X26204Y29941D01*
G01X26201Y29956D01*
G01X26200Y29970D01*
G01X26200Y37546D01*
G01X26201Y37561D01*
G01X26204Y37575D01*
G01X26209Y37589D01*
G01X26216Y37601D01*
G01X26224Y37613D01*
G01X26235Y37623D01*
G01X26246Y37632D01*
G01X26259Y37639D01*
G01X26273Y37644D01*
G01X26287Y37647D01*
G01X26301Y37648D01*
G01X27402Y37648D01*
G01X27425Y37649D01*
G01X27449Y37652D01*
G01X27472Y37658D01*
G01X27494Y37665D01*
G01X27516Y37675D01*
G01X27537Y37686D01*
G01X27556Y37700D01*
G01X27575Y37715D01*
G01X27591Y37732D01*
G01X27606Y37750D01*
G01X27620Y37769D01*
G01X27631Y37790D01*
G01X27641Y37812D01*
G01X27648Y37834D01*
G01X27654Y37857D01*
G01X27657Y37881D01*
G01X27658Y37905D01*
G01X27658Y42104D01*
G01X27657Y42128D01*
G01X27654Y42152D01*
G01X27648Y42175D01*
G01X27641Y42197D01*
G01X27631Y42219D01*
G01X27620Y42240D01*
G01X27606Y42259D01*
G01X27591Y42277D01*
G01X27575Y42294D01*
G01X27556Y42309D01*
G01X27537Y42323D01*
G01X27516Y42334D01*
G01X27494Y42344D01*
G01X27472Y42351D01*
G01X27449Y42357D01*
G01X27425Y42360D01*
G01X27402Y42361D01*
G01X23902Y42361D01*
G01X23878Y42360D01*
G01X23855Y42357D01*
G01X23832Y42351D01*
G01X23809Y42344D01*
G01X23787Y42334D01*
G01X23767Y42323D01*
G01X23747Y42309D01*
G01X23729Y42294D01*
G01X23712Y42277D01*
G01X23697Y42259D01*
G01X23684Y42240D01*
G01X23672Y42219D01*
G01X23662Y42197D01*
G01X23655Y42175D01*
G01X23650Y42152D01*
G01X23646Y42128D01*
G01X23645Y42104D01*
G01X23645Y37905D01*
G01X23646Y37881D01*
G01X23650Y37857D01*
G01X23655Y37834D01*
G01X23662Y37812D01*
G01X23672Y37790D01*
G01X23684Y37769D01*
G01X23697Y37750D01*
G01X23712Y37732D01*
G01X23729Y37715D01*
G01X23747Y37700D01*
G01X23767Y37686D01*
G01X23787Y37675D01*
G01X23809Y37665D01*
G01X23832Y37658D01*
G01X23855Y37652D01*
G01X23878Y37649D01*
G01X23902Y37648D01*
G01X25331Y37648D01*
G01X25345Y37647D01*
G01X25360Y37644D01*
G01X25373Y37639D01*
G01X25386Y37632D01*
G01X25397Y37623D01*
G01X25408Y37613D01*
G01X25416Y37601D01*
G01X25423Y37589D01*
G01X25428Y37575D01*
G01X25431Y37561D01*
G01X25433Y37546D01*
G01X25433Y29972D01*
G01X25431Y29957D01*
G01X25428Y29943D01*
G01X25423Y29929D01*
G01X25416Y29917D01*
G01X25408Y29905D01*
G01X25397Y29895D01*
G01X25386Y29886D01*
G01X25373Y29879D01*
G01X25360Y29874D01*
G01X25345Y29871D01*
G01X25331Y29870D01*
G01X25317Y29871D01*
G01X25303Y29874D01*
G01X25289Y29879D01*
G01X25276Y29886D01*
G01X25236Y29909D01*
G01X25194Y29928D01*
G01X25194Y29355D01*
G01X25233Y29355D01*
G01X25247Y29354D01*
G01X25262Y29351D01*
G01X25275Y29346D01*
G01X25288Y29339D01*
G01X25299Y29330D01*
G01X25310Y29320D01*
G01X25318Y29309D01*
G01X25325Y29296D01*
G01X25330Y29282D01*
G01X25333Y29268D01*
G01X25335Y29254D01*
G01X25335Y28505D01*
G01X25333Y28490D01*
G01X25330Y28476D01*
G01X25325Y28463D01*
G01X25318Y28450D01*
G01X25310Y28438D01*
G01X25299Y28428D01*
G01X25288Y28419D01*
G01X25275Y28412D01*
G01X25262Y28407D01*
G01X25247Y28404D01*
G01X25233Y28403D01*
G01X25194Y28403D01*
G01X25194Y27831D01*
G01X25236Y27850D01*
G01X25276Y27873D01*
G01X25289Y27880D01*
G01X25317Y27888D01*
G01X25331Y27888D01*
G01X25345Y27887D01*
G01X25360Y27884D01*
G01X25373Y27879D01*
G01X25386Y27872D01*
G01X25397Y27864D01*
G01X25408Y27853D01*
G01X25416Y27842D01*
G01X25423Y27829D01*
G01X25428Y27816D01*
G01X25431Y27801D01*
G01X25433Y27787D01*
G01X25433Y23604D01*
G01X25431Y23588D01*
G01X25428Y23573D01*
G01X25421Y23558D01*
G01X25413Y23544D01*
G01X25403Y23532D01*
G01X24737Y22867D01*
G01X24717Y22844D01*
G01X24698Y22821D01*
G01X24681Y22796D01*
G01X24667Y22769D01*
G01X24654Y22742D01*
G01X24644Y22714D01*
G01X24635Y22685D01*
G01X24630Y22655D01*
G01X24626Y22625D01*
G01X24625Y22595D01*
G01X24625Y21232D01*
G01X24624Y21218D01*
G01X24621Y21204D01*
G01X24616Y21190D01*
G01X24609Y21178D01*
G01X24600Y21166D01*
G01X24590Y21156D01*
G01X24578Y21147D01*
G01X24565Y21140D01*
G01X24552Y21135D01*
G01X24538Y21132D01*
G01X24523Y21131D01*
G01X24509Y21132D01*
G01X24495Y21135D01*
G01X24481Y21140D01*
G01X24468Y21147D01*
G01X24439Y21164D01*
G01X24408Y21180D01*
G01X24376Y21193D01*
G01X24344Y21204D01*
G01X24311Y21212D01*
G01X24277Y21218D01*
G01X24243Y21222D01*
G01X24208Y21223D01*
G01X24175Y21222D01*
G01X24142Y21219D01*
G01X24110Y21213D01*
G01X24078Y21205D01*
G01X24046Y21195D01*
G01X24015Y21183D01*
G01X23985Y21169D01*
G01X23957Y21152D01*
G01X23929Y21134D01*
G01X23903Y21114D01*
G01X23878Y21092D01*
G01X23866Y21082D01*
G01X23853Y21075D01*
G01X23838Y21069D01*
G01X23824Y21066D01*
G01X23808Y21064D01*
G01X23793Y21066D01*
G01X23778Y21069D01*
G01X23764Y21075D01*
G01X23750Y21082D01*
G01X23738Y21092D01*
G01X23714Y21114D01*
G01X23687Y21134D01*
G01X23660Y21152D01*
G01X23631Y21169D01*
G01X23601Y21183D01*
G01X23570Y21195D01*
G01X23539Y21205D01*
G01X23507Y21213D01*
G01X23474Y21219D01*
G01X23441Y21222D01*
G01X23408Y21223D01*
G01X23375Y21222D01*
G01X23342Y21219D01*
G01X23310Y21213D01*
G01X23277Y21205D01*
G01X23246Y21195D01*
G01X23215Y21183D01*
G01X23185Y21169D01*
G01X23157Y21152D01*
G01X23129Y21134D01*
G01X23103Y21114D01*
G01X23078Y21092D01*
G01X23066Y21082D01*
G01X23053Y21075D01*
G01X23038Y21069D01*
G01X23023Y21066D01*
G01X23008Y21064D01*
G01X22993Y21066D01*
G01X22978Y21069D01*
G01X22964Y21075D01*
G01X22950Y21082D01*
G01X22938Y21092D01*
G01X22914Y21114D01*
G01X22887Y21134D01*
G01X22860Y21152D01*
G01X22831Y21169D01*
G01X22801Y21183D01*
G01X22770Y21195D01*
G01X22739Y21205D01*
G01X22707Y21213D01*
G01X22674Y21219D01*
G01X22641Y21222D01*
G01X22608Y21223D01*
G01X22577Y21222D01*
G01X22545Y21219D01*
G01X22514Y21214D01*
G01X22483Y21207D01*
G01X22453Y21198D01*
G01X22424Y21187D01*
G01X22395Y21174D01*
G01X22367Y21159D01*
G01X22341Y21142D01*
G01X22315Y21124D01*
G01X22291Y21104D01*
G01X22268Y21082D01*
G01X22246Y21059D01*
G01X22226Y21035D01*
G01X22208Y21009D01*
G01X22191Y20982D01*
G01X22176Y20955D01*
G01X22163Y20926D01*
G01X22152Y20896D01*
G01X22143Y20866D01*
G01X22136Y20836D01*
G01X22131Y20805D01*
G01X22128Y20773D01*
G01X22127Y20742D01*
G01X22127Y19542D01*
G01X22128Y19510D01*
G01X22131Y19479D01*
G01X22136Y19448D01*
G01X22143Y19417D01*
G01X22152Y19387D01*
G01X22163Y19358D01*
G01X22176Y19329D01*
G01X22191Y19301D01*
G01X22207Y19274D01*
G01X22215Y19262D01*
G01X22220Y19248D01*
G01X22223Y19233D01*
G01X22225Y19218D01*
G01X22225Y18994D01*
G01X22223Y18978D01*
G01X22220Y18964D01*
G01X22214Y18949D01*
G01X22207Y18936D01*
G01X22197Y18924D01*
G01X22174Y18898D01*
G01X22153Y18870D01*
G01X22133Y18841D01*
G01X22115Y18811D01*
G01X22099Y18779D01*
G01X22086Y18747D01*
G01X22074Y18714D01*
G01X22064Y18680D01*
G01X22056Y18646D01*
G01X22051Y18612D01*
G01X22048Y18577D01*
G01X22046Y18542D01*
G01X22048Y18508D01*
G01X22051Y18474D01*
G01X22056Y18440D01*
G01X22063Y18407D01*
G01X22072Y18374D01*
G01X22083Y18342D01*
G01X22096Y18311D01*
G01X22111Y18281D01*
G01X22127Y18251D01*
G01X22146Y18223D01*
G01X22166Y18195D01*
G01X22188Y18169D01*
G01X22211Y18144D01*
G01X22236Y18121D01*
G01X22262Y18099D01*
G01X22289Y18079D01*
G01X22318Y18061D01*
G01X22347Y18044D01*
G01X22378Y18029D01*
G01X22409Y18016D01*
G01X22441Y18005D01*
G01X22474Y17996D01*
G01X22507Y17989D01*
G01X22540Y17984D01*
G01X22574Y17981D01*
G01X22608Y17980D01*
G01X22644Y17981D01*
G01X22679Y17984D01*
G01X22714Y17990D01*
G01X22749Y17998D01*
G01X22783Y18008D01*
G01X22817Y18020D01*
G01X22849Y18034D01*
G01X22881Y18051D01*
G01X22912Y18069D01*
G01X22941Y18089D01*
G01X22969Y18111D01*
G01X22995Y18135D01*
G01X23020Y18160D01*
G01X23044Y18187D01*
G01X23065Y18216D01*
G01X23085Y18245D01*
G01X23103Y18276D01*
G01X23119Y18308D01*
G01X23126Y18321D01*
G01X23134Y18332D01*
G01X23145Y18343D01*
G01X23156Y18351D01*
G01X23169Y18358D01*
G01X23183Y18363D01*
G01X23197Y18366D01*
G01X23211Y18367D01*
G01X23227Y18366D01*
G01X23243Y18362D01*
G01X23257Y18356D01*
G01X23271Y18348D01*
G01X23283Y18338D01*
G01X23350Y18270D01*
G01X23372Y18250D01*
G01X23396Y18231D01*
G01X23421Y18214D01*
G01X23447Y18200D01*
G01X23475Y18187D01*
G01X23503Y18177D01*
G01X23532Y18169D01*
G01X23562Y18163D01*
G01X23591Y18159D01*
G01X23622Y18158D01*
G01X24523Y18158D01*
G01X24538Y18157D01*
G01X24552Y18154D01*
G01X24565Y18149D01*
G01X24578Y18142D01*
G01X24590Y18133D01*
G01X24600Y18123D01*
G01X24609Y18111D01*
G01X24616Y18099D01*
G01X24621Y18085D01*
G01X24624Y18071D01*
G01X24625Y18057D01*
G01X24625Y17102D01*
G01X24624Y17086D01*
G01X24620Y17070D01*
G01X24614Y17055D01*
G01X24605Y17042D01*
G01X24595Y17030D01*
G01X24361Y16796D01*
G01X24349Y16785D01*
G01X24335Y16777D01*
G01X24321Y16771D01*
G01X24305Y16767D01*
G01X24289Y16766D01*
G01X18034Y16766D01*
G01X18003Y16765D01*
G01X17974Y16761D01*
G01X17944Y16755D01*
G01X17915Y16747D01*
G01X17887Y16737D01*
G01X17859Y16724D01*
G01X17833Y16710D01*
G01X17808Y16693D01*
G01X17784Y16674D01*
G01X17762Y16654D01*
G01X16762Y15654D01*
G01X16742Y15632D01*
G01X16723Y15608D01*
G01X16706Y15583D01*
G01X16692Y15557D01*
G01X16679Y15529D01*
G01X16669Y15501D01*
G01X16661Y15472D01*
G01X16655Y15442D01*
G01X16651Y15413D01*
G01X16650Y15383D01*
G01X16650Y13452D01*
G01X16649Y13437D01*
G01X16646Y13423D01*
G01X16641Y13409D01*
G01X16634Y13397D01*
G01X16625Y13385D01*
G01X16615Y13375D01*
G01X16603Y13366D01*
G01X16591Y13359D01*
G01X16577Y13354D01*
G01X16563Y13351D01*
G01X16548Y13350D01*
G01X16534Y13350D01*
G01X16510Y13349D01*
G01X16486Y13346D01*
G01X16463Y13340D01*
G01X16441Y13333D01*
G01X16419Y13323D01*
G01X16398Y13312D01*
G01X16379Y13298D01*
G01X16361Y13283D01*
G01X16344Y13266D01*
G01X16329Y13248D01*
G01X16315Y13229D01*
G01X16304Y13208D01*
G01X16294Y13186D01*
G01X16287Y13164D01*
G01X16281Y13141D01*
G01X16278Y13117D01*
G01X16277Y13094D01*
G01X16277Y12804D01*
G01X16276Y12789D01*
G01X16273Y12775D01*
G01X16268Y12761D01*
G01X16261Y12749D01*
G01X16252Y12737D01*
G01X16242Y12727D01*
G01X16230Y12718D01*
G01X16218Y12711D01*
G01X16204Y12706D01*
G01X16190Y12703D01*
G01X16175Y12702D01*
G01X12265Y12702D01*
G01X12250Y12703D01*
G01X12234Y12707D01*
G01X12219Y12713D01*
G01X12206Y12721D01*
G01X12194Y12732D01*
G01X11208Y13718D01*
G01X11197Y13730D01*
G01X11189Y13743D01*
G01X11183Y13758D01*
G01X11179Y13774D01*
G01X11178Y13789D01*
G01X11178Y25527D01*
G01X11177Y25557D01*
G01X11173Y25586D01*
G01X11167Y25616D01*
G01X11159Y25645D01*
G01X11149Y25673D01*
G01X11136Y25701D01*
G01X11122Y25727D01*
G01X11105Y25752D01*
G01X11086Y25776D01*
G01X11066Y25798D01*
G01X8145Y28719D01*
G01X8123Y28739D01*
G01X8099Y28758D01*
G01X8074Y28775D01*
G01X8048Y28789D01*
G01X8020Y28802D01*
G01X7992Y28812D01*
G01X7963Y28820D01*
G01X7933Y28826D01*
G01X7904Y28830D01*
G01X7874Y28831D01*
G01X4335Y28831D01*
G01X4320Y28832D01*
G01X4306Y28835D01*
G01X4292Y28841D01*
G01X4279Y28848D01*
G01X4267Y28857D01*
G01X4257Y28868D01*
G01X4248Y28880D01*
G01X4242Y28893D01*
G01X4222Y28938D01*
G01X4200Y28981D01*
G01X4177Y29024D01*
G01X4152Y29065D01*
G01X4125Y29106D01*
G01X4097Y29145D01*
G01X4067Y29183D01*
G01X4035Y29220D01*
G01X4002Y29256D01*
G01X3967Y29290D01*
G01X3931Y29322D01*
G01X3894Y29353D01*
G01X3855Y29382D01*
G01X3816Y29410D01*
G01X3775Y29436D01*
G01X3733Y29460D01*
G01X3690Y29483D01*
G01X3646Y29504D01*
G01X3601Y29523D01*
G01X3556Y29539D01*
G01X3509Y29555D01*
G01X3463Y29568D01*
G01X3415Y29579D01*
G01X3368Y29588D01*
G01X3320Y29595D01*
G01X3271Y29600D01*
G01X3223Y29603D01*
G01X3175Y29604D01*
G01X3125Y29603D01*
G01X3076Y29600D01*
G01X3028Y29595D01*
G01X2979Y29587D01*
G01X2931Y29578D01*
G01X2883Y29567D01*
G01X2836Y29553D01*
G01X2789Y29538D01*
G01X2743Y29521D01*
G01X2698Y29501D01*
G01X2654Y29480D01*
G01X2610Y29457D01*
G01X2568Y29432D01*
G01X2527Y29406D01*
G01X2487Y29377D01*
G01X2448Y29347D01*
G01X2410Y29316D01*
G01X2374Y29282D01*
G01X2340Y29248D01*
G01X2306Y29212D01*
G01X2275Y29174D01*
G01X2245Y29135D01*
G01X2216Y29095D01*
G01X2190Y29054D01*
G01X2165Y29012D01*
G01X2142Y28968D01*
G01X2121Y28924D01*
G01X2101Y28879D01*
G01X2084Y28833D01*
G01X2069Y28786D01*
G01X2055Y28739D01*
G01X2044Y28691D01*
G01X2035Y28643D01*
G01X2027Y28594D01*
G01X2022Y28546D01*
G01X2019Y28497D01*
G01X2018Y28448D01*
G01X2019Y28398D01*
G01X2022Y28349D01*
G01X2027Y28301D01*
G01X2035Y28252D01*
G01X2044Y28204D01*
G01X2055Y28156D01*
G01X2069Y28109D01*
G01X2084Y28062D01*
G01X2101Y28016D01*
G01X2121Y27971D01*
G01X2142Y27927D01*
G01X2165Y27883D01*
G01X2190Y27841D01*
G01X2216Y27800D01*
G01X2245Y27760D01*
G01X2275Y27721D01*
G01X2306Y27683D01*
G01X2340Y27647D01*
G01X2374Y27613D01*
G01X2410Y27579D01*
G01X2448Y27548D01*
G01X2487Y27518D01*
G01X2527Y27489D01*
G01X2568Y27463D01*
G01X2610Y27438D01*
G01X2654Y27415D01*
G01X2698Y27394D01*
G01X2743Y27374D01*
G01X2789Y27357D01*
G01X2836Y27342D01*
G01X2883Y27328D01*
G01X2931Y27317D01*
G01X2979Y27308D01*
G01X3028Y27300D01*
G01X3076Y27295D01*
G01X3125Y27292D01*
G01X3175Y27291D01*
G01X3223Y27292D01*
G01X3271Y27295D01*
G01X3320Y27300D01*
G01X3368Y27307D01*
G01X3415Y27316D01*
G01X3463Y27327D01*
G01X3509Y27340D01*
G01X3556Y27356D01*
G01X3601Y27372D01*
G01X3646Y27391D01*
G01X3690Y27412D01*
G01X3733Y27435D01*
G01X3775Y27459D01*
G01X3816Y27485D01*
G01X3855Y27513D01*
G01X3894Y27542D01*
G01X3931Y27573D01*
G01X3967Y27605D01*
G01X4002Y27639D01*
G01X4035Y27675D01*
G01X4067Y27712D01*
G01X4097Y27750D01*
G01X4125Y27789D01*
G01X4152Y27830D01*
G01X4177Y27871D01*
G01X4200Y27914D01*
G01X4222Y27957D01*
G01X4242Y28002D01*
G01X4248Y28015D01*
G01X4257Y28027D01*
G01X4267Y28038D01*
G01X4279Y28047D01*
G01X4292Y28054D01*
G01X4306Y28060D01*
G01X4320Y28063D01*
G01X4335Y28064D01*
G01X7673Y28064D01*
G01X7688Y28063D01*
G01X7704Y28059D01*
G01X7719Y28053D01*
G01X7732Y28045D01*
G01X7744Y28034D01*
G01X10381Y25397D01*
G01X10392Y25385D01*
G01X10400Y25372D01*
G01X10406Y25357D01*
G01X10410Y25341D01*
G01X10411Y25326D01*
G01X10411Y13589D01*
G01X10412Y13558D01*
G01X10416Y13529D01*
G01X10422Y13499D01*
G01X10430Y13470D01*
G01X10440Y13442D01*
G01X10453Y13414D01*
G01X10467Y13388D01*
G01X10484Y13363D01*
G01X10503Y13339D01*
G01X10523Y13317D01*
G01X11793Y12047D01*
G01X11815Y12027D01*
G01X11839Y12008D01*
G01X11864Y11991D01*
G01X11890Y11977D01*
G01X11918Y11964D01*
G01X11946Y11954D01*
G01X11975Y11946D01*
G01X12005Y11940D01*
G01X12034Y11936D01*
G01X12065Y11935D01*
G01X16175Y11935D01*
G01X16190Y11934D01*
G01X16204Y11931D01*
G01X16218Y11926D01*
G01X16230Y11919D01*
G01X16242Y11910D01*
G01X16252Y11900D01*
G01X16261Y11888D01*
G01X16268Y11876D01*
G01X16273Y11862D01*
G01X16276Y11848D01*
G01X16277Y11833D01*
G01X16277Y11543D01*
G01X16278Y11520D01*
G01X16281Y11496D01*
G01X16287Y11473D01*
G01X16294Y11451D01*
G01X16304Y11429D01*
G01X16315Y11408D01*
G01X16329Y11389D01*
G01X16344Y11371D01*
G01X16361Y11354D01*
G01X16379Y11339D01*
G01X16398Y11325D01*
G01X16419Y11314D01*
G01X16441Y11304D01*
G01X16463Y11297D01*
G01X16486Y11291D01*
G01X16510Y11288D01*
G01X16534Y11287D01*
G01X17534Y11287D01*
G01X17557Y11288D01*
G01X17581Y11291D01*
G01X17604Y11297D01*
G01X17626Y11304D01*
G01X17648Y11314D01*
G01X17669Y11325D01*
G01X17688Y11339D01*
G01X17706Y11354D01*
G01X17723Y11371D01*
G01X17738Y11389D01*
G01X17752Y11408D01*
G01X17763Y11429D01*
G01X17773Y11451D01*
G01X17780Y11473D01*
G01X17786Y11496D01*
G01X17789Y11520D01*
G01X17790Y11543D01*
G01X17790Y13094D01*
G01X17789Y13117D01*
G01X17786Y13141D01*
G01X17780Y13164D01*
G01X17773Y13186D01*
G01X17763Y13208D01*
G01X17752Y13229D01*
G01X17738Y13248D01*
G01X17723Y13266D01*
G01X17706Y13283D01*
G01X17688Y13298D01*
G01X17669Y13312D01*
G01X17648Y13323D01*
G01X17626Y13333D01*
G01X17604Y13340D01*
G01X17581Y13346D01*
G01X17557Y13349D01*
G01X17534Y13350D01*
G01X17519Y13350D01*
G01X17504Y13351D01*
G01X17490Y13354D01*
G01X17476Y13359D01*
G01X17464Y13366D01*
G01X17452Y13375D01*
G01X17442Y13385D01*
G01X17433Y13397D01*
G01X17426Y13409D01*
G01X17421Y13423D01*
G01X17418Y13437D01*
G01X17417Y13452D01*
G01X17417Y15182D01*
G01X17418Y15197D01*
G01X17422Y15213D01*
G01X17428Y15228D01*
G01X17436Y15241D01*
G01X17447Y15253D01*
G01X18163Y15969D01*
G01X18175Y15980D01*
G01X18188Y15988D01*
G01X18203Y15994D01*
G01X18219Y15998D01*
G01X18234Y15999D01*
G01X20225Y15999D01*
G01X20239Y15998D01*
G01X20254Y15995D01*
G01X20267Y15990D01*
G01X20280Y15983D01*
G01X20291Y15974D01*
G01X20302Y15964D01*
G01X20310Y15952D01*
G01X20317Y15940D01*
G01X20322Y15926D01*
G01X20325Y15912D01*
G01X20327Y15897D01*
G01X20325Y15883D01*
G01X20322Y15869D01*
G01X20317Y15855D01*
G01X20304Y15823D01*
G01X20292Y15791D01*
G01X20283Y15757D01*
G01X20276Y15724D01*
G01X20270Y15689D01*
G01X20267Y15655D01*
G01X20266Y15621D01*
G01X20267Y15586D01*
G01X20270Y15552D01*
G01X20275Y15518D01*
G01X20283Y15484D01*
G01X20292Y15451D01*
G01X20304Y15418D01*
G01X20317Y15386D01*
G01X20332Y15356D01*
G01X20350Y15326D01*
G01X20369Y15297D01*
G01X20389Y15269D01*
G01X20412Y15243D01*
G01X20436Y15218D01*
G01X20461Y15195D01*
G01X20488Y15173D01*
G01X20516Y15153D01*
G01X20545Y15135D01*
G01X20576Y15119D01*
G01X20607Y15104D01*
G01X20639Y15092D01*
G01X20672Y15081D01*
G01X20705Y15072D01*
G01X20739Y15066D01*
G01X20773Y15062D01*
G01X20808Y15059D01*
G01X20823Y15058D01*
G01X20838Y15054D01*
G01X20852Y15048D01*
G01X20864Y15040D01*
G01X20876Y15030D01*
G01X21318Y14587D01*
G01X21340Y14567D01*
G01X21364Y14548D01*
G01X21389Y14531D01*
G01X21415Y14517D01*
G01X21443Y14504D01*
G01X21471Y14494D01*
G01X21500Y14486D01*
G01X21530Y14480D01*
G01X21559Y14476D01*
G01X21590Y14475D01*
G01X26035Y14475D01*
G01X26065Y14476D01*
G01X26094Y14480D01*
G01X26124Y14486D01*
G01X26153Y14494D01*
G01X26181Y14504D01*
G01X26209Y14517D01*
G01X26235Y14531D01*
G01X26260Y14548D01*
G01X26284Y14567D01*
G01X26306Y14587D01*
G01X27677Y15959D01*
G01X27698Y15981D01*
G01X27716Y16005D01*
G01X27733Y16030D01*
G01X27748Y16056D01*
G01X27760Y16083D01*
G01X27771Y16112D01*
G01X27779Y16141D01*
G01X27785Y16170D01*
G01X27788Y16200D01*
G01X27790Y16230D01*
G01X27790Y16253D01*
G01X27791Y16267D01*
G01X27794Y16281D01*
G01X27799Y16295D01*
G01X27806Y16308D01*
G01X27814Y16319D01*
G01X27825Y16329D01*
G01X27836Y16338D01*
G01X27849Y16345D01*
G01X27863Y16350D01*
G01X27877Y16353D01*
G01X27891Y16354D01*
G01X27907Y16353D01*
G01X27923Y16349D01*
G01X27937Y16343D01*
G01X27951Y16335D01*
G01X27963Y16325D01*
G01X29802Y14486D01*
G01X29812Y14473D01*
G01X29821Y14460D01*
G01X29827Y14445D01*
G01X29831Y14430D01*
G01X29832Y14414D01*
G01X29832Y13554D01*
G01X29831Y13539D01*
G01X29828Y13525D01*
G01X29823Y13512D01*
G01X29816Y13499D01*
G01X29807Y13487D01*
G01X29797Y13477D01*
G01X29785Y13468D01*
G01X29772Y13461D01*
G01X29759Y13456D01*
G01X29745Y13453D01*
G01X29730Y13452D01*
G01X29515Y13452D01*
G01X29492Y13451D01*
G01X29468Y13448D01*
G01X29445Y13442D01*
G01X29423Y13435D01*
G01X29401Y13425D01*
G01X29380Y13414D01*
G01X29361Y13400D01*
G01X29343Y13385D01*
G01X29326Y13368D01*
G01X29311Y13350D01*
G01X29297Y13331D01*
G01X29286Y13310D01*
G01X29276Y13288D01*
G01X29269Y13266D01*
G01X29263Y13243D01*
G01X29260Y13219D01*
G01X29259Y13196D01*
G01X29259Y11696D01*
G01X29260Y11672D01*
G01X29263Y11648D01*
G01X29269Y11625D01*
G01X29276Y11603D01*
G01X29286Y11581D01*
G01X29297Y11561D01*
G01X29311Y11541D01*
G01X29326Y11523D01*
G01X29343Y11506D01*
G01X29361Y11491D01*
G01X29380Y11477D01*
G01X29401Y11466D01*
G01X29423Y11456D01*
G01X29445Y11449D01*
G01X29468Y11443D01*
G01X29492Y11440D01*
G01X29515Y11439D01*
G01X30915Y11439D01*
G01X30939Y11440D01*
G01X30963Y11443D01*
G01X30986Y11449D01*
G01X31008Y11456D01*
G01X31030Y11466D01*
G01X31051Y11477D01*
G01X31070Y11491D01*
G01X31088Y11506D01*
G01X31105Y11523D01*
G01X31120Y11541D01*
G01X31134Y11561D01*
G01X31145Y11581D01*
G01X31155Y11603D01*
G01X31162Y11625D01*
G01X31168Y11648D01*
G01X31171Y11672D01*
G01X31172Y11696D01*
G01X31172Y11960D01*
G01X31173Y11975D01*
G01X31176Y11989D01*
G01X31181Y12003D01*
G01X31188Y12015D01*
G01X31197Y12027D01*
G01X31207Y12037D01*
G01X31219Y12046D01*
G01X31231Y12053D01*
G01X31245Y12058D01*
G01X31259Y12061D01*
G01X31274Y12062D01*
G01X32304Y12062D01*
G01X32319Y12061D01*
G01X32333Y12058D01*
G01X32347Y12053D01*
G01X32359Y12046D01*
G01X32371Y12037D01*
G01X32381Y12027D01*
G01X32390Y12015D01*
G01X32397Y12003D01*
G01X32402Y11989D01*
G01X32405Y11975D01*
G01X32406Y11960D01*
G01X32406Y11670D01*
G01X32407Y11647D01*
G01X32410Y11623D01*
G01X32416Y11600D01*
G01X32423Y11578D01*
G01X32433Y11556D01*
G01X32444Y11535D01*
G01X32458Y11516D01*
G01X32473Y11498D01*
G01X32490Y11481D01*
G01X32508Y11466D01*
G01X32527Y11452D01*
G01X32548Y11441D01*
G01X32570Y11431D01*
G01X32592Y11424D01*
G01X32615Y11418D01*
G01X32639Y11415D01*
G01X32663Y11414D01*
G01X32677Y11414D01*
G01X32692Y11413D01*
G01X32706Y11410D01*
G01X32720Y11405D01*
G01X32732Y11398D01*
G01X32744Y11389D01*
G01X32754Y11379D01*
G01X32763Y11367D01*
G01X32770Y11355D01*
G01X32775Y11341D01*
G01X32778Y11327D01*
G01X32779Y11312D01*
G01X32779Y10404D01*
G01X32778Y10389D01*
G01X32775Y10375D01*
G01X32770Y10361D01*
G01X32763Y10349D01*
G01X32754Y10337D01*
G01X32744Y10327D01*
G01X32732Y10318D01*
G01X32720Y10311D01*
G01X32706Y10306D01*
G01X32692Y10303D01*
G01X32677Y10302D01*
G01X32663Y10302D01*
G01X32639Y10301D01*
G01X32615Y10298D01*
G01X32592Y10292D01*
G01X32570Y10285D01*
G01X32548Y10275D01*
G01X32527Y10264D01*
G01X32508Y10250D01*
G01X32490Y10235D01*
G01X32473Y10218D01*
G01X32458Y10200D01*
G01X32444Y10181D01*
G01X32433Y10160D01*
G01X32423Y10138D01*
G01X32416Y10116D01*
G01X32410Y10093D01*
G01X32407Y10069D01*
G01X32406Y10046D01*
G01X32406Y8495D01*
G01X32407Y8472D01*
G01X32410Y8448D01*
G01X32416Y8425D01*
G01X32423Y8403D01*
G01X32433Y8381D01*
G01X32444Y8360D01*
G01X32458Y8341D01*
G01X32473Y8323D01*
G01X32490Y8306D01*
G01X32508Y8291D01*
G01X32527Y8277D01*
G01X32548Y8266D01*
G01X32570Y8256D01*
G01X32592Y8249D01*
G01X32615Y8243D01*
G01X32639Y8240D01*
G01X32663Y8239D01*
G01X33663Y8239D01*
G01X33686Y8240D01*
G01X33710Y8243D01*
G01X33733Y8249D01*
G01X33755Y8256D01*
G01X33777Y8266D01*
G01X33798Y8277D01*
G01X33817Y8291D01*
G01X33835Y8306D01*
G01X33852Y8323D01*
G01X33867Y8341D01*
G01X33881Y8360D01*
G01X33892Y8381D01*
G01X33902Y8403D01*
G01X33909Y8425D01*
G01X33915Y8448D01*
G01X33918Y8472D01*
G01X33919Y8495D01*
G01X33919Y10046D01*
G01X33918Y10069D01*
G01X33915Y10093D01*
G01X33909Y10116D01*
G01X33902Y10138D01*
G01X33892Y10160D01*
G01X33881Y10181D01*
G01X33867Y10200D01*
G01X33852Y10218D01*
G01X33835Y10235D01*
G01X33817Y10250D01*
G01X33798Y10264D01*
G01X33777Y10275D01*
G01X33755Y10285D01*
G01X33733Y10292D01*
G01X33710Y10298D01*
G01X33686Y10301D01*
G01X33663Y10302D01*
G01X33648Y10302D01*
G01X33633Y10303D01*
G01X33619Y10306D01*
G01X33605Y10311D01*
G01X33593Y10318D01*
G01X33581Y10327D01*
G01X33571Y10337D01*
G01X33562Y10349D01*
G01X33555Y10361D01*
G01X33550Y10375D01*
G01X33547Y10389D01*
G01X33546Y10404D01*
G01X33546Y11312D01*
G01X33547Y11327D01*
G01X33550Y11341D01*
G01X33555Y11355D01*
G01X33562Y11367D01*
G01X33571Y11379D01*
G01X33581Y11389D01*
G01X33593Y11398D01*
G01X33605Y11405D01*
G01X33619Y11410D01*
G01X33633Y11413D01*
G01X33648Y11414D01*
G01X33677Y11414D01*
G01X33692Y11413D01*
G01X33706Y11410D01*
G01X33720Y11405D01*
G01X33732Y11398D01*
G01X33744Y11389D01*
G01X33754Y11379D01*
G01X33763Y11368D01*
G01X33770Y11355D01*
G01X33775Y11341D01*
G01X33778Y11327D01*
G01X33779Y11313D01*
G01X33779Y10922D01*
G01X33780Y10891D01*
G01X33784Y10862D01*
G01X33790Y10832D01*
G01X33798Y10803D01*
G01X33808Y10775D01*
G01X33821Y10747D01*
G01X33835Y10721D01*
G01X33852Y10696D01*
G01X33871Y10672D01*
G01X33891Y10650D01*
G01X34018Y10523D01*
G01X34379Y10163D01*
G01X34389Y10150D01*
G01X34398Y10137D01*
G01X34404Y10122D01*
G01X34408Y10107D01*
G01X34409Y10091D01*
G01X34408Y10078D01*
G01X34406Y10046D01*
G01X34406Y8495D01*
G01X34407Y8472D01*
G01X34410Y8448D01*
G01X34416Y8425D01*
G01X34423Y8403D01*
G01X34433Y8381D01*
G01X34444Y8360D01*
G01X34458Y8341D01*
G01X34473Y8323D01*
G01X34490Y8306D01*
G01X34508Y8291D01*
G01X34527Y8277D01*
G01X34548Y8266D01*
G01X34570Y8256D01*
G01X34592Y8249D01*
G01X34615Y8243D01*
G01X34639Y8240D01*
G01X34662Y8239D01*
G01X35662Y8239D01*
G01X35686Y8240D01*
G01X35710Y8243D01*
G01X35733Y8249D01*
G01X35755Y8256D01*
G01X35777Y8266D01*
G01X35798Y8277D01*
G01X35817Y8291D01*
G01X35835Y8306D01*
G01X35852Y8323D01*
G01X35867Y8341D01*
G01X35881Y8360D01*
G01X35892Y8381D01*
G01X35902Y8403D01*
G01X35909Y8425D01*
G01X35915Y8448D01*
G01X35918Y8472D01*
G01X35919Y8495D01*
G01X35919Y10046D01*
G01X35918Y10069D01*
G01X35915Y10093D01*
G01X35909Y10116D01*
G01X35902Y10138D01*
G01X35892Y10160D01*
G01X35881Y10181D01*
G01X35867Y10200D01*
G01X35852Y10218D01*
G01X35835Y10235D01*
G01X35817Y10250D01*
G01X35798Y10264D01*
G01X35777Y10275D01*
G01X35755Y10285D01*
G01X35733Y10292D01*
G01X35710Y10298D01*
G01X35686Y10301D01*
G01X35662Y10302D01*
G01X35366Y10302D01*
G01X35351Y10303D01*
G01X35335Y10307D01*
G01X35320Y10313D01*
G01X35307Y10321D01*
G01X35295Y10332D01*
G01X34576Y11051D01*
G01X34565Y11063D01*
G01X34557Y11076D01*
G01X34551Y11091D01*
G01X34547Y11107D01*
G01X34546Y11122D01*
G01X34546Y11313D01*
G01X34547Y11327D01*
G01X34550Y11341D01*
G01X34555Y11355D01*
G01X34562Y11368D01*
G01X34571Y11379D01*
G01X34581Y11389D01*
G01X34593Y11398D01*
G01X34605Y11405D01*
G01X34619Y11410D01*
G01X34633Y11413D01*
G01X34648Y11414D01*
G01X34849Y11414D01*
G01X34849Y11994D01*
G01X34648Y11994D01*
G01X34633Y11996D01*
G01X34619Y11999D01*
G01X34605Y12004D01*
G01X34593Y12011D01*
G01X34581Y12019D01*
G01X34571Y12030D01*
G01X34562Y12041D01*
G01X34555Y12054D01*
G01X34550Y12067D01*
G01X34547Y12082D01*
G01X34546Y12096D01*
G01X34546Y12795D01*
G01X34547Y12809D01*
G01X34550Y12824D01*
G01X34555Y12837D01*
G01X34562Y12850D01*
G01X34571Y12861D01*
G01X34581Y12872D01*
G01X34593Y12880D01*
G01X34605Y12887D01*
G01X34619Y12892D01*
G01X34633Y12895D01*
G01X34648Y12897D01*
G01X34849Y12897D01*
G01X34849Y13477D01*
G01X34648Y13477D01*
G01X34633Y13478D01*
G01X34619Y13481D01*
G01X34605Y13486D01*
G01X34593Y13493D01*
G01X34581Y13502D01*
G01X34571Y13512D01*
G01X34562Y13523D01*
G01X34555Y13536D01*
G01X34550Y13550D01*
G01X34547Y13564D01*
G01X34546Y13578D01*
G01X34546Y14605D01*
G01X34545Y14635D01*
G01X34541Y14664D01*
G01X34535Y14694D01*
G01X34527Y14723D01*
G01X34517Y14751D01*
G01X34504Y14779D01*
G01X34490Y14805D01*
G01X34473Y14830D01*
G01X34454Y14854D01*
G01X34434Y14876D01*
G01X32975Y16334D01*
G01X32965Y16346D01*
G01X32957Y16358D01*
G01X32951Y16372D01*
G01X32947Y16387D01*
G01X32946Y16402D01*
G01X32943Y16437D01*
G01X32939Y16471D01*
G01X32933Y16505D01*
G01X32924Y16538D01*
G01X32913Y16571D01*
G01X32901Y16603D01*
G01X32886Y16634D01*
G01X32870Y16665D01*
G01X32852Y16694D01*
G01X32832Y16722D01*
G01X32810Y16749D01*
G01X32787Y16774D01*
G01X32762Y16798D01*
G01X32736Y16821D01*
G01X32708Y16841D01*
G01X32679Y16860D01*
G01X32649Y16878D01*
G01X32619Y16893D01*
G01X32587Y16906D01*
G01X32554Y16918D01*
G01X32521Y16927D01*
G01X32487Y16935D01*
G01X32453Y16940D01*
G01X32419Y16943D01*
G01X32385Y16944D01*
G01X32351Y16943D01*
G01X32317Y16940D01*
G01X32283Y16935D01*
G01X32250Y16928D01*
G01X32217Y16919D01*
G01X32185Y16908D01*
G01X32154Y16895D01*
G01X32124Y16880D01*
G01X32094Y16863D01*
G01X32066Y16845D01*
G01X32038Y16825D01*
G01X32012Y16803D01*
G01X31987Y16780D01*
G01X31964Y16755D01*
G01X31942Y16729D01*
G01X31922Y16701D01*
G01X31904Y16673D01*
G01X31887Y16643D01*
G01X31872Y16613D01*
G01X31859Y16582D01*
G01X31848Y16550D01*
G01X31839Y16517D01*
G01X31832Y16484D01*
G01X31827Y16450D01*
G01X31824Y16416D01*
G01X31823Y16383D01*
G01X31824Y16348D01*
G01X31827Y16314D01*
G01X31832Y16280D01*
G01X31840Y16246D01*
G01X31849Y16213D01*
G01X31861Y16180D01*
G01X31874Y16148D01*
G01X31889Y16118D01*
G01X31907Y16088D01*
G01X31926Y16059D01*
G01X31946Y16031D01*
G01X31969Y16005D01*
G01X31993Y15980D01*
G01X32018Y15957D01*
G01X32045Y15935D01*
G01X32073Y15915D01*
G01X32102Y15897D01*
G01X32133Y15881D01*
G01X32164Y15866D01*
G01X32196Y15854D01*
G01X32229Y15843D01*
G01X32262Y15834D01*
G01X32296Y15828D01*
G01X32330Y15824D01*
G01X32365Y15821D01*
G01X32380Y15820D01*
G01X32395Y15816D01*
G01X32409Y15810D01*
G01X32421Y15802D01*
G01X32433Y15792D01*
G01X33749Y14475D01*
G01X33760Y14463D01*
G01X33768Y14450D01*
G01X33774Y14435D01*
G01X33778Y14419D01*
G01X33779Y14404D01*
G01X33779Y13578D01*
G01X33778Y13564D01*
G01X33775Y13550D01*
G01X33770Y13536D01*
G01X33763Y13523D01*
G01X33754Y13512D01*
G01X33744Y13502D01*
G01X33732Y13493D01*
G01X33720Y13486D01*
G01X33706Y13481D01*
G01X33692Y13478D01*
G01X33677Y13477D01*
G01X32663Y13477D01*
G01X32639Y13476D01*
G01X32615Y13473D01*
G01X32592Y13467D01*
G01X32570Y13460D01*
G01X32548Y13450D01*
G01X32527Y13439D01*
G01X32508Y13425D01*
G01X32490Y13410D01*
G01X32473Y13393D01*
G01X32458Y13375D01*
G01X32444Y13356D01*
G01X32433Y13335D01*
G01X32423Y13313D01*
G01X32416Y13291D01*
G01X32410Y13268D01*
G01X32407Y13244D01*
G01X32406Y13221D01*
G01X32406Y12931D01*
G01X32405Y12916D01*
G01X32402Y12902D01*
G01X32397Y12888D01*
G01X32390Y12876D01*
G01X32381Y12864D01*
G01X32371Y12854D01*
G01X32359Y12845D01*
G01X32347Y12838D01*
G01X32333Y12833D01*
G01X32319Y12830D01*
G01X32304Y12829D01*
G01X31274Y12829D01*
G01X31259Y12830D01*
G01X31245Y12833D01*
G01X31231Y12838D01*
G01X31219Y12845D01*
G01X31207Y12854D01*
G01X31197Y12864D01*
G01X31188Y12876D01*
G01X31181Y12888D01*
G01X31176Y12902D01*
G01X31173Y12916D01*
G01X31172Y12931D01*
G01X31172Y13196D01*
G01X31171Y13219D01*
G01X31168Y13243D01*
G01X31162Y13266D01*
G01X31155Y13288D01*
G01X31145Y13310D01*
G01X31134Y13331D01*
G01X31120Y13350D01*
G01X31105Y13368D01*
G01X31088Y13385D01*
G01X31070Y13400D01*
G01X31051Y13414D01*
G01X31030Y13425D01*
G01X31008Y13435D01*
G01X30986Y13442D01*
G01X30963Y13448D01*
G01X30939Y13451D01*
G01X30915Y13452D01*
G01X30700Y13452D01*
G01X30686Y13453D01*
G01X30672Y13456D01*
G01X30658Y13461D01*
G01X30646Y13468D01*
G01X30634Y13477D01*
G01X30624Y13487D01*
G01X30615Y13499D01*
G01X30608Y13512D01*
G01X30603Y13525D01*
G01X30600Y13539D01*
G01X30599Y13554D01*
G01X30599Y14615D01*
G01X30598Y14645D01*
G01X30594Y14675D01*
G01X30588Y14704D01*
G01X30580Y14733D01*
G01X30570Y14761D01*
G01X30557Y14789D01*
G01X30542Y14815D01*
G01X30526Y14840D01*
G01X30507Y14864D01*
G01X30487Y14886D01*
G01X27819Y17553D01*
G01X27809Y17565D01*
G01X27801Y17579D01*
G01X27795Y17593D01*
G01X27791Y17609D01*
G01X27790Y17625D01*
G01X27790Y19051D01*
G01X27791Y19065D01*
G01X27794Y19080D01*
G01X27799Y19093D01*
G01X27806Y19106D01*
G01X27814Y19117D01*
G01X27825Y19128D01*
G01X27836Y19136D01*
G01X27849Y19143D01*
G01X27863Y19148D01*
G01X27877Y19151D01*
G01X27891Y19153D01*
G01X27906Y19152D01*
G01X27920Y19148D01*
G01X27933Y19143D01*
G01X27946Y19136D01*
G01X27976Y19119D01*
G01X28006Y19104D01*
G01X28038Y19090D01*
G01X28071Y19080D01*
G01X28104Y19071D01*
G01X28138Y19065D01*
G01X28172Y19061D01*
G01X28206Y19060D01*
G01X28238Y19061D01*
G01X28269Y19064D01*
G01X28300Y19069D01*
G01X28331Y19077D01*
G01X28361Y19086D01*
G01X28390Y19097D01*
G01X28419Y19110D01*
G01X28447Y19125D01*
G01X28474Y19141D01*
G01X28499Y19160D01*
G01X28524Y19180D01*
G01X28547Y19201D01*
G01X28568Y19224D01*
G01X28588Y19249D01*
G01X28607Y19274D01*
G01X28623Y19301D01*
G01X28638Y19329D01*
G01X28651Y19357D01*
G01X28662Y19387D01*
G01X28671Y19417D01*
G01X28678Y19448D01*
G01X28684Y19479D01*
G01X28687Y19510D01*
G01X28688Y19542D01*
G01X28688Y20742D01*
G01X28687Y20773D01*
G01X28684Y20805D01*
G01X28678Y20836D01*
G01X28671Y20866D01*
G01X28662Y20896D01*
G01X28651Y20926D01*
G01X28638Y20955D01*
G01X28623Y20982D01*
G01X28607Y21009D01*
G01X28588Y21035D01*
G01X28568Y21059D01*
G01X28547Y21082D01*
G01X28524Y21104D01*
G01X28499Y21124D01*
G01X28474Y21142D01*
G01X28447Y21159D01*
G01X28419Y21174D01*
G01X28390Y21187D01*
G01X28361Y21198D01*
G01X28331Y21207D01*
G01X28300Y21214D01*
G01X28269Y21219D01*
G01X28238Y21222D01*
G01X28206Y21223D01*
G01X28173Y21222D01*
G01X28140Y21219D01*
G01X28108Y21213D01*
G01X28075Y21205D01*
G01X28044Y21195D01*
G01X28013Y21183D01*
G01X27983Y21169D01*
G01X27955Y21152D01*
G01X27927Y21134D01*
G01X27901Y21114D01*
G01X27876Y21092D01*
G01X27864Y21082D01*
G01X27851Y21075D01*
G01X27836Y21069D01*
G01X27821Y21066D01*
G01X27806Y21064D01*
G01X27791Y21066D01*
G01X27776Y21069D01*
G01X27762Y21075D01*
G01X27748Y21082D01*
G01X27736Y21092D01*
G01X27712Y21114D01*
G01X27685Y21134D01*
G01X27658Y21152D01*
G01X27629Y21169D01*
G01X27599Y21183D01*
G01X27568Y21195D01*
G01X27537Y21205D01*
G01X27505Y21213D01*
G01X27472Y21219D01*
G01X27439Y21222D01*
G01X27406Y21223D01*
G01X27373Y21222D01*
G01X27340Y21219D01*
G01X27308Y21213D01*
G01X27275Y21205D01*
G01X27244Y21195D01*
G01X27213Y21183D01*
G01X27183Y21169D01*
G01X27154Y21152D01*
G01X27127Y21134D01*
G01X27101Y21114D01*
G01X27076Y21092D01*
G01X27064Y21082D01*
G01X27051Y21075D01*
G01X27036Y21069D01*
G01X27021Y21066D01*
G01X27006Y21064D01*
G01X26991Y21066D01*
G01X26976Y21069D01*
G01X26962Y21075D01*
G01X26948Y21082D01*
G01X26936Y21092D01*
G01X26912Y21114D01*
G01X26885Y21134D01*
G01X26858Y21152D01*
G01X26829Y21169D01*
G01X26799Y21183D01*
G01X26768Y21195D01*
G01X26737Y21205D01*
G01X26705Y21213D01*
G01X26672Y21219D01*
G01X26639Y21222D01*
G01X26606Y21223D01*
G01X26573Y21222D01*
G01X26540Y21219D01*
G01X26507Y21213D01*
G01X26475Y21205D01*
G01X26444Y21195D01*
G01X26413Y21183D01*
G01X26383Y21169D01*
G01X26354Y21152D01*
G01X26327Y21134D01*
G01X26300Y21114D01*
G01X26276Y21092D01*
G01X26264Y21082D01*
G01X26250Y21075D01*
G01X26236Y21069D01*
G01X26221Y21066D01*
G01X26206Y21064D01*
G01X26191Y21066D01*
G01X26176Y21069D01*
G01X26161Y21075D01*
G01X26148Y21082D01*
G01X26136Y21092D01*
G01X26109Y21116D01*
G01X26079Y21138D01*
G01X26048Y21158D01*
G01X26016Y21175D01*
G01X25982Y21190D01*
G01X25982Y20618D01*
G01X26023Y20618D01*
G01X26037Y20617D01*
G01X26051Y20614D01*
G01X26065Y20609D01*
G01X26078Y20602D01*
G01X26089Y20593D01*
G01X26100Y20583D01*
G01X26108Y20571D01*
G01X26115Y20558D01*
G01X26120Y20545D01*
G01X26123Y20531D01*
G01X26124Y20516D01*
G01X26124Y19767D01*
G01X26123Y19753D01*
G01X26120Y19739D01*
G01X26115Y19725D01*
G01X26108Y19712D01*
G01X26100Y19701D01*
G01X26089Y19691D01*
G01X26078Y19682D01*
G01X26065Y19675D01*
G01X26051Y19670D01*
G01X26037Y19667D01*
G01X26023Y19666D01*
G01X25982Y19666D01*
G01X25982Y19093D01*
G01X26016Y19108D01*
G01X26048Y19125D01*
G01X26079Y19145D01*
G01X26109Y19167D01*
G01X26136Y19191D01*
G01X26148Y19201D01*
G01X26161Y19209D01*
G01X26176Y19214D01*
G01X26191Y19218D01*
G01X26206Y19219D01*
G01X26221Y19218D01*
G01X26236Y19214D01*
G01X26250Y19209D01*
G01X26264Y19201D01*
G01X26276Y19191D01*
G01X26300Y19169D01*
G01X26327Y19149D01*
G01X26354Y19131D01*
G01X26383Y19115D01*
G01X26413Y19101D01*
G01X26444Y19088D01*
G01X26475Y19078D01*
G01X26507Y19070D01*
G01X26540Y19065D01*
G01X26573Y19061D01*
G01X26606Y19060D01*
G01X26640Y19061D01*
G01X26674Y19065D01*
G01X26708Y19071D01*
G01X26742Y19080D01*
G01X26774Y19090D01*
G01X26806Y19104D01*
G01X26837Y19119D01*
G01X26866Y19136D01*
G01X26879Y19143D01*
G01X26892Y19148D01*
G01X26907Y19152D01*
G01X26921Y19153D01*
G01X26935Y19151D01*
G01X26950Y19148D01*
G01X26963Y19143D01*
G01X26976Y19136D01*
G01X26987Y19128D01*
G01X26998Y19117D01*
G01X27006Y19106D01*
G01X27013Y19093D01*
G01X27018Y19080D01*
G01X27022Y19065D01*
G01X27023Y19051D01*
G01X27023Y16582D01*
G01X27022Y16567D01*
G01X27018Y16553D01*
G01X27013Y16540D01*
G01X27006Y16527D01*
G01X26998Y16515D01*
G01X26987Y16505D01*
G01X26976Y16496D01*
G01X26963Y16489D01*
G01X26950Y16484D01*
G01X26935Y16481D01*
G01X26921Y16480D01*
G01X26905Y16482D01*
G01X26889Y16485D01*
G01X26875Y16492D01*
G01X26861Y16500D01*
G01X26849Y16510D01*
G01X26838Y16523D01*
G01X26830Y16536D01*
G01X26824Y16551D01*
G01X26813Y16583D01*
G01X26800Y16615D01*
G01X26785Y16645D01*
G01X26768Y16674D01*
G01X26750Y16703D01*
G01X26730Y16730D01*
G01X26708Y16756D01*
G01X26685Y16780D01*
G01X26660Y16804D01*
G01X26634Y16825D01*
G01X26607Y16845D01*
G01X26578Y16863D01*
G01X26549Y16880D01*
G01X26518Y16895D01*
G01X26487Y16908D01*
G01X26455Y16919D01*
G01X26423Y16928D01*
G01X26389Y16935D01*
G01X26356Y16940D01*
G01X26322Y16943D01*
G01X26289Y16944D01*
G01X26253Y16943D01*
G01X26218Y16940D01*
G01X26184Y16934D01*
G01X26150Y16927D01*
G01X26116Y16917D01*
G01X26083Y16905D01*
G01X26051Y16891D01*
G01X26019Y16875D01*
G01X25989Y16857D01*
G01X25960Y16838D01*
G01X25932Y16816D01*
G01X25906Y16793D01*
G01X25894Y16784D01*
G01X25881Y16776D01*
G01X25866Y16771D01*
G01X25852Y16767D01*
G01X25836Y16766D01*
G01X25727Y16766D01*
G01X25712Y16767D01*
G01X25696Y16771D01*
G01X25681Y16777D01*
G01X25668Y16785D01*
G01X25656Y16796D01*
G01X25422Y17030D01*
G01X25411Y17042D01*
G01X25403Y17055D01*
G01X25397Y17070D01*
G01X25393Y17086D01*
G01X25392Y17102D01*
G01X25392Y19049D01*
G01X25393Y19064D01*
G01X25396Y19078D01*
G01X25401Y19092D01*
G01X25408Y19104D01*
G01X25417Y19116D01*
G01X25427Y19126D01*
G01X25439Y19135D01*
G01X25451Y19142D01*
G01X25465Y19147D01*
G01X25479Y19150D01*
G01X25493Y19151D01*
G01X25508Y19150D01*
G01X25522Y19147D01*
G01X25535Y19142D01*
G01X25548Y19135D01*
G01X25588Y19112D01*
G01X25630Y19093D01*
G01X25630Y19666D01*
G01X25591Y19666D01*
G01X25577Y19667D01*
G01X25563Y19670D01*
G01X25549Y19675D01*
G01X25537Y19682D01*
G01X25525Y19691D01*
G01X25515Y19701D01*
G01X25506Y19712D01*
G01X25499Y19725D01*
G01X25494Y19739D01*
G01X25491Y19753D01*
G01X25490Y19767D01*
G01X25490Y20516D01*
G01X25491Y20531D01*
G01X25494Y20545D01*
G01X25499Y20558D01*
G01X25506Y20571D01*
G01X25515Y20583D01*
G01X25525Y20593D01*
G01X25537Y20602D01*
G01X25549Y20609D01*
G01X25563Y20614D01*
G01X25577Y20617D01*
G01X25591Y20618D01*
G01X25630Y20618D01*
G01X25630Y21190D01*
G01X25588Y21171D01*
G01X25548Y21148D01*
G01X25535Y21141D01*
G01X25522Y21137D01*
G01X25508Y21133D01*
G01X25493Y21133D01*
G01X25479Y21134D01*
G01X25465Y21137D01*
G01X25451Y21142D01*
G01X25439Y21149D01*
G01X25427Y21157D01*
G01X25417Y21168D01*
G01X25408Y21179D01*
G01X25401Y21192D01*
G01X25396Y21205D01*
G01X25393Y21220D01*
G01X25392Y21234D01*
G01X25392Y22394D01*
G01X25393Y22410D01*
G01X25397Y22426D01*
G01X25403Y22441D01*
G01X25411Y22454D01*
G01X25422Y22466D01*
G01X26087Y23132D01*
G01X26108Y23154D01*
G01X26126Y23178D01*
G01X26143Y23203D01*
G01X26158Y23229D01*
G01X26170Y23256D01*
G01X26181Y23285D01*
G01X26189Y23314D01*
G01X26195Y23343D01*
G01X26198Y23373D01*
G01X26200Y23403D01*
G01X26200Y27789D01*
G01X26201Y27803D01*
G01X26204Y27817D01*
G01X26209Y27831D01*
G01X26216Y27843D01*
G01X26224Y27855D01*
G01X26235Y27865D01*
G01X26246Y27874D01*
G01X26259Y27881D01*
G01X26273Y27886D01*
G01X26287Y27889D01*
G01X26301Y27890D01*
G01X26316Y27889D01*
G01X26330Y27886D01*
G01X26343Y27881D01*
G01X26356Y27874D01*
G01X26386Y27857D01*
G01X26416Y27841D01*
G01X26448Y27828D01*
G01X26481Y27817D01*
G01X26514Y27809D01*
G01X26548Y27803D01*
G01X26582Y27799D01*
G01X26616Y27798D01*
G01X26649Y27799D01*
G01X26682Y27802D01*
G01X26715Y27808D01*
G01X26747Y27816D01*
G01X26778Y27826D01*
G01X26809Y27838D01*
G01X26839Y27852D01*
G01X26868Y27869D01*
G01X26895Y27887D01*
G01X26922Y27907D01*
G01X26947Y27929D01*
G01X26958Y27939D01*
G01X26972Y27946D01*
G01X26986Y27952D01*
G01X27001Y27955D01*
G01X27016Y27957D01*
G01X27032Y27955D01*
G01X27046Y27952D01*
G01X27061Y27946D01*
G01X27074Y27939D01*
G01X27086Y27929D01*
G01X27111Y27907D01*
G01X27137Y27887D01*
G01X27165Y27869D01*
G01X27193Y27852D01*
G01X27223Y27838D01*
G01X27254Y27826D01*
G01X27286Y27816D01*
G01X27318Y27808D01*
G01X27350Y27802D01*
G01X27383Y27799D01*
G01X27416Y27798D01*
G01X27449Y27799D01*
G01X27482Y27802D01*
G01X27515Y27808D01*
G01X27547Y27816D01*
G01X27578Y27826D01*
G01X27609Y27838D01*
G01X27639Y27852D01*
G01X27668Y27869D01*
G01X27695Y27887D01*
G01X27722Y27907D01*
G01X27747Y27929D01*
G01X27759Y27939D01*
G01X27772Y27946D01*
G01X27786Y27952D01*
G01X27801Y27955D01*
G01X27816Y27957D01*
G01X27832Y27955D01*
G01X27847Y27952D01*
G01X27861Y27946D01*
G01X27874Y27939D01*
G01X27886Y27929D01*
G01X27911Y27907D01*
G01X27937Y27887D01*
G01X27965Y27869D01*
G01X27994Y27852D01*
G01X28023Y27838D01*
G01X28054Y27826D01*
G01X28086Y27816D01*
G01X28118Y27808D01*
G01X28150Y27802D01*
G01X28183Y27799D01*
G01X28216Y27798D01*
G01X28248Y27799D01*
G01X28279Y27802D01*
G01X28310Y27807D01*
G01X28341Y27814D01*
G01X28371Y27823D01*
G01X28401Y27834D01*
G01X28429Y27847D01*
G01X28457Y27862D01*
G01X28484Y27879D01*
G01X28510Y27897D01*
G01X28534Y27917D01*
G01X28557Y27939D01*
G01X28578Y27962D01*
G01X28598Y27986D01*
G01X28617Y28012D01*
G01X28633Y28039D01*
G01X28648Y28066D01*
G01X28661Y28095D01*
G01X28672Y28125D01*
G01X28682Y28155D01*
G01X28689Y28185D01*
G01X28694Y28216D01*
G01X28697Y28248D01*
G01X28698Y28279D01*
G01X28698Y29479D01*
G01X28697Y29511D01*
G01X28694Y29542D01*
G01X28689Y29573D01*
G01X28682Y29604D01*
G01X28672Y29634D01*
G01X28661Y29663D01*
G01X28648Y29692D01*
G01X28634Y29720D01*
G01X28617Y29747D01*
G01X28617Y29746D01*
G01X28610Y29759D01*
G01X28604Y29773D01*
G01X28601Y29788D01*
G01X28600Y29803D01*
G01X28600Y31952D01*
G01X28601Y31968D01*
G01X28605Y31984D01*
G01X28611Y31999D01*
G01X28619Y32012D01*
G01X28630Y32024D01*
G01X40911Y44305D01*
G01X41861Y45256D01*
G01X41873Y45266D01*
G01X41885Y45274D01*
G01X41899Y45280D01*
G01X41914Y45284D01*
G01X41929Y45285D01*
G01X41964Y45288D01*
G01X41998Y45292D01*
G01X42032Y45298D01*
G01X42065Y45307D01*
G01X42098Y45318D01*
G01X42130Y45330D01*
G01X42161Y45345D01*
G01X42192Y45361D01*
G01X42221Y45379D01*
G01X42249Y45399D01*
G01X42276Y45421D01*
G01X42301Y45444D01*
G01X42325Y45469D01*
G01X42348Y45495D01*
G01X42368Y45523D01*
G01X42387Y45552D01*
G01X42405Y45582D01*
G01X42420Y45612D01*
G01X42433Y45644D01*
G01X42445Y45677D01*
G01X42454Y45710D01*
G01X42462Y45744D01*
G01X42467Y45778D01*
G01X42470Y45812D01*
G01X42471Y45847D01*
G01X42470Y45880D01*
G01X42467Y45914D01*
G01X42462Y45948D01*
G01X42455Y45981D01*
G01X42446Y46014D01*
G01X42435Y46046D01*
G01X42422Y46077D01*
G01X42407Y46107D01*
G01X42390Y46137D01*
G01X42372Y46165D01*
G01X42352Y46193D01*
G01X42330Y46219D01*
G01X42307Y46244D01*
G01X42282Y46267D01*
G01X42256Y46289D01*
G01X42228Y46309D01*
G01X42200Y46327D01*
G01X42170Y46344D01*
G01X42140Y46359D01*
G01X42109Y46372D01*
G01X42077Y46383D01*
G01X42044Y46392D01*
G01X42011Y46399D01*
G01X41977Y46404D01*
G01X41943Y46407D01*
G37*
G36*
G01X89187Y37898D02*
G01X89154Y37899D01*
G01X89119Y37898D01*
G01X89085Y37895D01*
G01X89051Y37890D01*
G01X89017Y37882D01*
G01X88984Y37873D01*
G01X88951Y37861D01*
G01X88919Y37848D01*
G01X88889Y37833D01*
G01X88859Y37815D01*
G01X88830Y37796D01*
G01X88802Y37776D01*
G01X88776Y37753D01*
G01X88751Y37729D01*
G01X88728Y37704D01*
G01X88706Y37677D01*
G01X88686Y37649D01*
G01X88668Y37620D01*
G01X88652Y37589D01*
G01X88637Y37558D01*
G01X88625Y37526D01*
G01X88614Y37493D01*
G01X88605Y37460D01*
G01X88599Y37426D01*
G01X88595Y37392D01*
G01X88592Y37357D01*
G01X88591Y37342D01*
G01X88587Y37327D01*
G01X88581Y37313D01*
G01X88573Y37301D01*
G01X88563Y37289D01*
G01X78191Y26918D01*
G01X78179Y26907D01*
G01X78166Y26899D01*
G01X78151Y26893D01*
G01X78135Y26889D01*
G01X78119Y26888D01*
G01X58791Y26888D01*
G01X58776Y26889D01*
G01X58762Y26892D01*
G01X58748Y26897D01*
G01X58736Y26904D01*
G01X58724Y26913D01*
G01X58714Y26923D01*
G01X58705Y26935D01*
G01X58698Y26947D01*
G01X58693Y26961D01*
G01X58690Y26975D01*
G01X58689Y26990D01*
G01X58690Y27005D01*
G01X58694Y27021D01*
G01X58700Y27036D01*
G01X58708Y27049D01*
G01X58719Y27061D01*
G01X67896Y36239D01*
G01X67908Y36249D01*
G01X67920Y36257D01*
G01X67934Y36263D01*
G01X67949Y36267D01*
G01X67964Y36268D01*
G01X67999Y36271D01*
G01X68033Y36275D01*
G01X68067Y36281D01*
G01X68100Y36290D01*
G01X68133Y36301D01*
G01X68165Y36313D01*
G01X68196Y36328D01*
G01X68227Y36344D01*
G01X68256Y36362D01*
G01X68284Y36382D01*
G01X68311Y36404D01*
G01X68336Y36427D01*
G01X68360Y36452D01*
G01X68383Y36478D01*
G01X68403Y36506D01*
G01X68422Y36535D01*
G01X68440Y36565D01*
G01X68455Y36595D01*
G01X68468Y36627D01*
G01X68480Y36660D01*
G01X68489Y36693D01*
G01X68497Y36727D01*
G01X68502Y36761D01*
G01X68505Y36795D01*
G01X68506Y36830D01*
G01X68505Y36863D01*
G01X68502Y36897D01*
G01X68497Y36931D01*
G01X68490Y36964D01*
G01X68481Y36997D01*
G01X68470Y37029D01*
G01X68457Y37060D01*
G01X68442Y37090D01*
G01X68425Y37120D01*
G01X68407Y37148D01*
G01X68387Y37176D01*
G01X68365Y37202D01*
G01X68342Y37227D01*
G01X68317Y37250D01*
G01X68291Y37272D01*
G01X68263Y37292D01*
G01X68235Y37310D01*
G01X68205Y37327D01*
G01X68175Y37342D01*
G01X68144Y37355D01*
G01X68112Y37366D01*
G01X68079Y37375D01*
G01X68046Y37382D01*
G01X68012Y37387D01*
G01X67978Y37390D01*
G01X67945Y37391D01*
G01X67910Y37390D01*
G01X67876Y37387D01*
G01X67842Y37382D01*
G01X67808Y37374D01*
G01X67775Y37365D01*
G01X67742Y37353D01*
G01X67710Y37340D01*
G01X67680Y37325D01*
G01X67650Y37307D01*
G01X67621Y37288D01*
G01X67593Y37268D01*
G01X67567Y37245D01*
G01X67542Y37221D01*
G01X67519Y37196D01*
G01X67497Y37169D01*
G01X67477Y37141D01*
G01X67459Y37112D01*
G01X67443Y37081D01*
G01X67428Y37050D01*
G01X67416Y37018D01*
G01X67405Y36985D01*
G01X67396Y36952D01*
G01X67390Y36918D01*
G01X67386Y36884D01*
G01X67383Y36849D01*
G01X67382Y36834D01*
G01X67378Y36819D01*
G01X67372Y36805D01*
G01X67364Y36793D01*
G01X67354Y36781D01*
G01X58290Y27718D01*
G01X58278Y27707D01*
G01X58265Y27699D01*
G01X58250Y27693D01*
G01X58234Y27689D01*
G01X58219Y27688D01*
G01X30705Y27688D01*
G01X30690Y27689D01*
G01X30675Y27692D01*
G01X30661Y27698D01*
G01X30648Y27705D01*
G01X30621Y27722D01*
G01X30594Y27737D01*
G01X30536Y27761D01*
G01X30505Y27770D01*
G01X30475Y27777D01*
G01X30444Y27782D01*
G01X30412Y27785D01*
G01X30381Y27786D01*
G01X29181Y27786D01*
G01X29150Y27785D01*
G01X29118Y27782D01*
G01X29087Y27777D01*
G01X29056Y27770D01*
G01X29026Y27760D01*
G01X28997Y27749D01*
G01X28968Y27736D01*
G01X28940Y27722D01*
G01X28913Y27705D01*
G01X28888Y27687D01*
G01X28864Y27667D01*
G01X28840Y27645D01*
G01X28819Y27622D01*
G01X28799Y27598D01*
G01X28781Y27572D01*
G01X28764Y27545D01*
G01X28749Y27517D01*
G01X28736Y27489D01*
G01X28725Y27459D01*
G01X28716Y27429D01*
G01X28709Y27398D01*
G01X28704Y27367D01*
G01X28700Y27336D01*
G01X28699Y27305D01*
G01X28701Y27271D01*
G01X28704Y27239D01*
G01X28710Y27206D01*
G01X28718Y27174D01*
G01X28728Y27142D01*
G01X28740Y27112D01*
G01X28754Y27082D01*
G01X28770Y27053D01*
G01X28789Y27025D01*
G01X28809Y26999D01*
G01X28831Y26974D01*
G01X28840Y26962D01*
G01X28848Y26949D01*
G01X28854Y26935D01*
G01X28857Y26920D01*
G01X28858Y26904D01*
G01X28857Y26889D01*
G01X28854Y26874D01*
G01X28848Y26860D01*
G01X28840Y26847D01*
G01X28831Y26835D01*
G01X28809Y26810D01*
G01X28789Y26784D01*
G01X28770Y26756D01*
G01X28754Y26727D01*
G01X28740Y26697D01*
G01X28728Y26667D01*
G01X28718Y26635D01*
G01X28710Y26603D01*
G01X28704Y26570D01*
G01X28701Y26537D01*
G01X28699Y26504D01*
G01X28701Y26471D01*
G01X28704Y26438D01*
G01X28710Y26406D01*
G01X28718Y26374D01*
G01X28728Y26342D01*
G01X28740Y26311D01*
G01X28754Y26282D01*
G01X28770Y26253D01*
G01X28789Y26225D01*
G01X28809Y26199D01*
G01X28831Y26174D01*
G01X28840Y26162D01*
G01X28848Y26149D01*
G01X28854Y26135D01*
G01X28857Y26120D01*
G01X28858Y26104D01*
G01X28857Y26089D01*
G01X28854Y26074D01*
G01X28848Y26060D01*
G01X28840Y26047D01*
G01X28831Y26035D01*
G01X28809Y26010D01*
G01X28789Y25984D01*
G01X28770Y25956D01*
G01X28754Y25927D01*
G01X28740Y25897D01*
G01X28728Y25867D01*
G01X28718Y25835D01*
G01X28710Y25803D01*
G01X28704Y25770D01*
G01X28701Y25737D01*
G01X28699Y25704D01*
G01X28701Y25671D01*
G01X28704Y25638D01*
G01X28710Y25606D01*
G01X28718Y25574D01*
G01X28728Y25542D01*
G01X28740Y25511D01*
G01X28754Y25481D01*
G01X28770Y25453D01*
G01X28789Y25425D01*
G01X28809Y25399D01*
G01X28831Y25374D01*
G01X28840Y25362D01*
G01X28848Y25349D01*
G01X28854Y25335D01*
G01X28857Y25320D01*
G01X28858Y25304D01*
G01X28857Y25289D01*
G01X28854Y25274D01*
G01X28848Y25260D01*
G01X28840Y25246D01*
G01X28831Y25235D01*
G01X28809Y25210D01*
G01X28789Y25183D01*
G01X28770Y25156D01*
G01X28754Y25127D01*
G01X28740Y25097D01*
G01X28728Y25066D01*
G01X28718Y25035D01*
G01X28710Y25003D01*
G01X28704Y24970D01*
G01X28701Y24937D01*
G01X28699Y24904D01*
G01X28701Y24871D01*
G01X28704Y24838D01*
G01X28710Y24806D01*
G01X28717Y24774D01*
G01X28727Y24743D01*
G01X28739Y24712D01*
G01X28754Y24682D01*
G01X28770Y24653D01*
G01X28788Y24626D01*
G01X28808Y24600D01*
G01X28830Y24575D01*
G01X28839Y24563D01*
G01X28847Y24550D01*
G01X28853Y24536D01*
G01X28856Y24521D01*
G01X28857Y24505D01*
G01X28856Y24490D01*
G01X28853Y24475D01*
G01X28847Y24461D01*
G01X28839Y24448D01*
G01X28830Y24436D01*
G01X28808Y24411D01*
G01X28788Y24385D01*
G01X28770Y24357D01*
G01X28754Y24329D01*
G01X28739Y24299D01*
G01X28727Y24268D01*
G01X28717Y24237D01*
G01X28710Y24205D01*
G01X28704Y24172D01*
G01X28701Y24140D01*
G01X28699Y24107D01*
G01X28701Y24074D01*
G01X28704Y24041D01*
G01X28710Y24008D01*
G01X28718Y23976D01*
G01X28728Y23944D01*
G01X28740Y23914D01*
G01X28754Y23884D01*
G01X28770Y23855D01*
G01X28789Y23827D01*
G01X28809Y23801D01*
G01X28831Y23776D01*
G01X28840Y23764D01*
G01X28848Y23751D01*
G01X28854Y23737D01*
G01X28857Y23722D01*
G01X28858Y23707D01*
G01X28857Y23691D01*
G01X28854Y23676D01*
G01X28848Y23662D01*
G01X28840Y23649D01*
G01X28831Y23637D01*
G01X28809Y23612D01*
G01X28789Y23586D01*
G01X28770Y23558D01*
G01X28754Y23529D01*
G01X28740Y23500D01*
G01X28728Y23469D01*
G01X28718Y23437D01*
G01X28710Y23405D01*
G01X28704Y23373D01*
G01X28701Y23340D01*
G01X28699Y23307D01*
G01X28701Y23273D01*
G01X28704Y23241D01*
G01X28710Y23208D01*
G01X28718Y23176D01*
G01X28728Y23144D01*
G01X28740Y23114D01*
G01X28754Y23084D01*
G01X28770Y23055D01*
G01X28789Y23027D01*
G01X28809Y23001D01*
G01X28831Y22976D01*
G01X28840Y22964D01*
G01X28848Y22951D01*
G01X28854Y22937D01*
G01X28857Y22922D01*
G01X28858Y22906D01*
G01X28857Y22891D01*
G01X28854Y22876D01*
G01X28848Y22862D01*
G01X28840Y22849D01*
G01X28831Y22837D01*
G01X28809Y22812D01*
G01X28789Y22786D01*
G01X28770Y22758D01*
G01X28754Y22729D01*
G01X28740Y22699D01*
G01X28728Y22669D01*
G01X28718Y22637D01*
G01X28710Y22605D01*
G01X28704Y22572D01*
G01X28701Y22540D01*
G01X28699Y22506D01*
G01X28701Y22473D01*
G01X28704Y22440D01*
G01X28710Y22408D01*
G01X28718Y22376D01*
G01X28728Y22344D01*
G01X28740Y22313D01*
G01X28754Y22284D01*
G01X28770Y22255D01*
G01X28789Y22227D01*
G01X28809Y22201D01*
G01X28831Y22176D01*
G01X28840Y22164D01*
G01X28848Y22151D01*
G01X28854Y22137D01*
G01X28857Y22122D01*
G01X28858Y22106D01*
G01X28857Y22091D01*
G01X28854Y22076D01*
G01X28848Y22062D01*
G01X28840Y22049D01*
G01X28831Y22037D01*
G01X28809Y22012D01*
G01X28789Y21986D01*
G01X28770Y21958D01*
G01X28754Y21929D01*
G01X28740Y21899D01*
G01X28728Y21869D01*
G01X28718Y21837D01*
G01X28710Y21805D01*
G01X28704Y21772D01*
G01X28701Y21739D01*
G01X28699Y21706D01*
G01X28700Y21675D01*
G01X28704Y21643D01*
G01X28709Y21612D01*
G01X28716Y21582D01*
G01X28725Y21552D01*
G01X28736Y21522D01*
G01X28749Y21493D01*
G01X28764Y21466D01*
G01X28781Y21439D01*
G01X28799Y21413D01*
G01X28819Y21389D01*
G01X28840Y21366D01*
G01X28864Y21344D01*
G01X28888Y21324D01*
G01X28913Y21306D01*
G01X28940Y21289D01*
G01X28968Y21274D01*
G01X28997Y21261D01*
G01X29026Y21250D01*
G01X29056Y21241D01*
G01X29087Y21234D01*
G01X29118Y21229D01*
G01X29150Y21226D01*
G01X29181Y21225D01*
G01X30381Y21225D01*
G01X30412Y21226D01*
G01X30444Y21229D01*
G01X30475Y21234D01*
G01X30506Y21241D01*
G01X30536Y21250D01*
G01X30565Y21261D01*
G01X30594Y21274D01*
G01X30622Y21289D01*
G01X30649Y21306D01*
G01X30674Y21324D01*
G01X30698Y21344D01*
G01X30722Y21366D01*
G01X30743Y21389D01*
G01X30763Y21413D01*
G01X30781Y21439D01*
G01X30798Y21466D01*
G01X30813Y21493D01*
G01X30826Y21522D01*
G01X30837Y21552D01*
G01X30846Y21582D01*
G01X30853Y21612D01*
G01X30858Y21643D01*
G01X30862Y21675D01*
G01X30863Y21706D01*
G01X30861Y21739D01*
G01X30858Y21772D01*
G01X30852Y21805D01*
G01X30844Y21837D01*
G01X30834Y21869D01*
G01X30822Y21899D01*
G01X30808Y21929D01*
G01X30792Y21958D01*
G01X30773Y21986D01*
G01X30753Y22012D01*
G01X30731Y22037D01*
G01X30722Y22049D01*
G01X30714Y22062D01*
G01X30708Y22076D01*
G01X30705Y22091D01*
G01X30704Y22106D01*
G01X30705Y22122D01*
G01X30708Y22137D01*
G01X30714Y22151D01*
G01X30722Y22164D01*
G01X30731Y22176D01*
G01X30753Y22201D01*
G01X30773Y22227D01*
G01X30792Y22255D01*
G01X30808Y22284D01*
G01X30822Y22313D01*
G01X30834Y22344D01*
G01X30844Y22376D01*
G01X30852Y22408D01*
G01X30858Y22440D01*
G01X30861Y22473D01*
G01X30863Y22506D01*
G01X30861Y22540D01*
G01X30858Y22572D01*
G01X30852Y22605D01*
G01X30844Y22637D01*
G01X30834Y22669D01*
G01X30822Y22699D01*
G01X30808Y22729D01*
G01X30792Y22758D01*
G01X30773Y22786D01*
G01X30753Y22812D01*
G01X30731Y22837D01*
G01X30722Y22849D01*
G01X30714Y22862D01*
G01X30708Y22876D01*
G01X30705Y22891D01*
G01X30704Y22906D01*
G01X30705Y22922D01*
G01X30708Y22937D01*
G01X30714Y22951D01*
G01X30722Y22964D01*
G01X30731Y22976D01*
G01X30753Y23001D01*
G01X30773Y23027D01*
G01X30792Y23055D01*
G01X30808Y23084D01*
G01X30822Y23114D01*
G01X30834Y23144D01*
G01X30844Y23176D01*
G01X30852Y23208D01*
G01X30858Y23241D01*
G01X30861Y23273D01*
G01X30863Y23307D01*
G01X30861Y23340D01*
G01X30858Y23373D01*
G01X30852Y23405D01*
G01X30844Y23437D01*
G01X30834Y23469D01*
G01X30822Y23500D01*
G01X30808Y23529D01*
G01X30792Y23558D01*
G01X30773Y23586D01*
G01X30753Y23612D01*
G01X30731Y23637D01*
G01X30722Y23649D01*
G01X30714Y23662D01*
G01X30708Y23676D01*
G01X30705Y23691D01*
G01X30704Y23707D01*
G01X30705Y23722D01*
G01X30708Y23737D01*
G01X30714Y23751D01*
G01X30722Y23764D01*
G01X30731Y23776D01*
G01X30753Y23801D01*
G01X30773Y23827D01*
G01X30792Y23855D01*
G01X30808Y23884D01*
G01X30822Y23914D01*
G01X30834Y23944D01*
G01X30844Y23976D01*
G01X30852Y24008D01*
G01X30858Y24041D01*
G01X30861Y24074D01*
G01X30863Y24107D01*
G01X30861Y24140D01*
G01X30858Y24172D01*
G01X30852Y24205D01*
G01X30845Y24237D01*
G01X30835Y24268D01*
G01X30823Y24299D01*
G01X30808Y24329D01*
G01X30792Y24357D01*
G01X30774Y24385D01*
G01X30754Y24411D01*
G01X30732Y24436D01*
G01X30723Y24448D01*
G01X30715Y24461D01*
G01X30709Y24475D01*
G01X30706Y24490D01*
G01X30705Y24505D01*
G01X30706Y24521D01*
G01X30709Y24536D01*
G01X30715Y24550D01*
G01X30723Y24563D01*
G01X30732Y24575D01*
G01X30754Y24600D01*
G01X30774Y24626D01*
G01X30792Y24653D01*
G01X30808Y24682D01*
G01X30823Y24712D01*
G01X30835Y24743D01*
G01X30845Y24774D01*
G01X30852Y24806D01*
G01X30858Y24838D01*
G01X30861Y24871D01*
G01X30863Y24904D01*
G01X30861Y24939D01*
G01X30858Y24973D01*
G01X30852Y25006D01*
G01X30843Y25040D01*
G01X30832Y25072D01*
G01X30819Y25104D01*
G01X30804Y25135D01*
G01X30786Y25164D01*
G01X30779Y25177D01*
G01X30774Y25191D01*
G01X30771Y25205D01*
G01X30770Y25219D01*
G01X30771Y25234D01*
G01X30774Y25248D01*
G01X30779Y25261D01*
G01X30786Y25274D01*
G01X30795Y25286D01*
G01X30805Y25296D01*
G01X30817Y25305D01*
G01X30830Y25312D01*
G01X30843Y25317D01*
G01X30857Y25320D01*
G01X30872Y25321D01*
G01X95046Y25321D01*
G01X95076Y25322D01*
G01X95106Y25325D01*
G01X95136Y25331D01*
G01X95165Y25340D01*
G01X95193Y25350D01*
G01X95220Y25363D01*
G01X95247Y25377D01*
G01X95272Y25394D01*
G01X95295Y25413D01*
G01X95317Y25433D01*
G01X97995Y28111D01*
G01X98007Y28121D01*
G01X98019Y28129D01*
G01X98033Y28135D01*
G01X98048Y28139D01*
G01X98063Y28140D01*
G01X98098Y28143D01*
G01X98132Y28147D01*
G01X98166Y28153D01*
G01X98199Y28162D01*
G01X98232Y28173D01*
G01X98264Y28185D01*
G01X98295Y28200D01*
G01X98326Y28216D01*
G01X98355Y28234D01*
G01X98383Y28254D01*
G01X98410Y28276D01*
G01X98435Y28299D01*
G01X98459Y28324D01*
G01X98482Y28350D01*
G01X98502Y28378D01*
G01X98521Y28407D01*
G01X98539Y28437D01*
G01X98554Y28467D01*
G01X98567Y28499D01*
G01X98579Y28532D01*
G01X98588Y28565D01*
G01X98596Y28599D01*
G01X98601Y28633D01*
G01X98604Y28667D01*
G01X98605Y28702D01*
G01X98604Y28735D01*
G01X98601Y28769D01*
G01X98596Y28803D01*
G01X98589Y28836D01*
G01X98580Y28869D01*
G01X98569Y28901D01*
G01X98556Y28932D01*
G01X98541Y28962D01*
G01X98524Y28992D01*
G01X98506Y29020D01*
G01X98486Y29048D01*
G01X98464Y29074D01*
G01X98441Y29099D01*
G01X98416Y29122D01*
G01X98390Y29144D01*
G01X98362Y29164D01*
G01X98334Y29182D01*
G01X98304Y29199D01*
G01X98274Y29214D01*
G01X98243Y29227D01*
G01X98211Y29238D01*
G01X98178Y29247D01*
G01X98145Y29254D01*
G01X98111Y29259D01*
G01X98077Y29262D01*
G01X98044Y29263D01*
G01X98009Y29262D01*
G01X97975Y29259D01*
G01X97941Y29254D01*
G01X97907Y29246D01*
G01X97874Y29237D01*
G01X97841Y29225D01*
G01X97809Y29212D01*
G01X97779Y29197D01*
G01X97749Y29179D01*
G01X97720Y29160D01*
G01X97692Y29140D01*
G01X97666Y29117D01*
G01X97641Y29093D01*
G01X97618Y29068D01*
G01X97596Y29041D01*
G01X97576Y29013D01*
G01X97558Y28984D01*
G01X97542Y28953D01*
G01X97527Y28922D01*
G01X97515Y28890D01*
G01X97504Y28857D01*
G01X97495Y28824D01*
G01X97489Y28790D01*
G01X97485Y28756D01*
G01X97482Y28721D01*
G01X97481Y28706D01*
G01X97477Y28691D01*
G01X97471Y28677D01*
G01X97463Y28665D01*
G01X97453Y28653D01*
G01X94917Y26118D01*
G01X94905Y26107D01*
G01X94891Y26099D01*
G01X94877Y26093D01*
G01X94861Y26089D01*
G01X94845Y26088D01*
G01X78692Y26088D01*
G01X78677Y26089D01*
G01X78663Y26092D01*
G01X78649Y26097D01*
G01X78637Y26104D01*
G01X78625Y26113D01*
G01X78615Y26123D01*
G01X78606Y26134D01*
G01X78599Y26147D01*
G01X78594Y26161D01*
G01X78591Y26175D01*
G01X78590Y26189D01*
G01X78591Y26205D01*
G01X78595Y26221D01*
G01X78601Y26236D01*
G01X78609Y26249D01*
G01X78620Y26261D01*
G01X89105Y36747D01*
G01X89117Y36757D01*
G01X89129Y36765D01*
G01X89143Y36771D01*
G01X89158Y36775D01*
G01X89173Y36776D01*
G01X89208Y36779D01*
G01X89242Y36783D01*
G01X89276Y36789D01*
G01X89309Y36798D01*
G01X89342Y36809D01*
G01X89374Y36821D01*
G01X89405Y36836D01*
G01X89436Y36852D01*
G01X89465Y36870D01*
G01X89493Y36890D01*
G01X89520Y36912D01*
G01X89545Y36935D01*
G01X89569Y36960D01*
G01X89592Y36986D01*
G01X89612Y37014D01*
G01X89631Y37043D01*
G01X89649Y37073D01*
G01X89664Y37103D01*
G01X89677Y37135D01*
G01X89689Y37168D01*
G01X89698Y37201D01*
G01X89706Y37235D01*
G01X89711Y37269D01*
G01X89714Y37303D01*
G01X89715Y37338D01*
G01X89714Y37371D01*
G01X89711Y37405D01*
G01X89706Y37439D01*
G01X89699Y37472D01*
G01X89690Y37505D01*
G01X89679Y37537D01*
G01X89666Y37568D01*
G01X89651Y37598D01*
G01X89634Y37628D01*
G01X89616Y37656D01*
G01X89596Y37684D01*
G01X89574Y37710D01*
G01X89551Y37735D01*
G01X89526Y37758D01*
G01X89500Y37780D01*
G01X89472Y37800D01*
G01X89444Y37818D01*
G01X89414Y37835D01*
G01X89384Y37850D01*
G01X89353Y37863D01*
G01X89321Y37874D01*
G01X89288Y37883D01*
G01X89255Y37890D01*
G01X89221Y37895D01*
G01X89187Y37898D01*
G37*
G36*
G01X13877Y42343D02*
G01X13843Y42344D01*
G01X13809Y42343D01*
G01X13775Y42340D01*
G01X13741Y42335D01*
G01X13708Y42328D01*
G01X13675Y42319D01*
G01X13643Y42308D01*
G01X13612Y42295D01*
G01X13582Y42280D01*
G01X13552Y42263D01*
G01X13524Y42245D01*
G01X13496Y42225D01*
G01X13470Y42203D01*
G01X13445Y42180D01*
G01X13422Y42155D01*
G01X13400Y42129D01*
G01X13380Y42101D01*
G01X13362Y42073D01*
G01X13345Y42043D01*
G01X13330Y42013D01*
G01X13317Y41982D01*
G01X13306Y41950D01*
G01X13297Y41917D01*
G01X13290Y41884D01*
G01X13285Y41850D01*
G01X13282Y41816D01*
G01X13281Y41783D01*
G01X13282Y41748D01*
G01X13285Y41714D01*
G01X13290Y41680D01*
G01X13298Y41646D01*
G01X13307Y41613D01*
G01X13319Y41580D01*
G01X13332Y41548D01*
G01X13347Y41518D01*
G01X13365Y41488D01*
G01X13384Y41459D01*
G01X13404Y41431D01*
G01X13427Y41405D01*
G01X13451Y41380D01*
G01X13476Y41357D01*
G01X13503Y41335D01*
G01X13531Y41315D01*
G01X13560Y41297D01*
G01X13591Y41281D01*
G01X13622Y41266D01*
G01X13654Y41254D01*
G01X13687Y41243D01*
G01X13720Y41234D01*
G01X13754Y41228D01*
G01X13788Y41224D01*
G01X13823Y41221D01*
G01X13838Y41220D01*
G01X13853Y41216D01*
G01X13867Y41210D01*
G01X13879Y41202D01*
G01X13891Y41192D01*
G01X15476Y39606D01*
G01X18763Y36319D01*
G01X18774Y36307D01*
G01X18782Y36294D01*
G01X18788Y36279D01*
G01X18792Y36263D01*
G01X18793Y36248D01*
G01X18793Y32413D01*
G01X18792Y32398D01*
G01X18789Y32384D01*
G01X18784Y32371D01*
G01X18777Y32358D01*
G01X18768Y32346D01*
G01X18758Y32336D01*
G01X18746Y32327D01*
G01X18734Y32320D01*
G01X18720Y32315D01*
G01X18706Y32312D01*
G01X18691Y32311D01*
G01X18675Y32312D01*
G01X18660Y32316D01*
G01X18645Y32322D01*
G01X18632Y32331D01*
G01X18620Y32341D01*
G01X16781Y34180D01*
G01X16759Y34200D01*
G01X16735Y34219D01*
G01X16710Y34236D01*
G01X16684Y34250D01*
G01X16656Y34263D01*
G01X16628Y34273D01*
G01X16599Y34281D01*
G01X16569Y34287D01*
G01X16540Y34291D01*
G01X16510Y34292D01*
G01X8382Y34292D01*
G01X8351Y34291D01*
G01X8322Y34287D01*
G01X8292Y34281D01*
G01X8263Y34273D01*
G01X8235Y34263D01*
G01X8207Y34250D01*
G01X8181Y34236D01*
G01X8156Y34219D01*
G01X8132Y34200D01*
G01X8110Y34180D01*
G01X7871Y33941D01*
G01X7859Y33930D01*
G01X7846Y33922D01*
G01X7831Y33916D01*
G01X7815Y33912D01*
G01X7800Y33911D01*
G01X4335Y33911D01*
G01X4320Y33912D01*
G01X4306Y33915D01*
G01X4292Y33921D01*
G01X4279Y33928D01*
G01X4267Y33937D01*
G01X4257Y33948D01*
G01X4248Y33960D01*
G01X4242Y33973D01*
G01X4222Y34018D01*
G01X4200Y34061D01*
G01X4177Y34104D01*
G01X4152Y34145D01*
G01X4125Y34186D01*
G01X4097Y34225D01*
G01X4067Y34263D01*
G01X4035Y34300D01*
G01X4002Y34336D01*
G01X3967Y34370D01*
G01X3931Y34402D01*
G01X3894Y34433D01*
G01X3855Y34462D01*
G01X3816Y34490D01*
G01X3775Y34516D01*
G01X3733Y34540D01*
G01X3690Y34563D01*
G01X3646Y34584D01*
G01X3601Y34603D01*
G01X3556Y34619D01*
G01X3509Y34635D01*
G01X3463Y34648D01*
G01X3415Y34659D01*
G01X3368Y34668D01*
G01X3320Y34675D01*
G01X3271Y34680D01*
G01X3223Y34683D01*
G01X3175Y34684D01*
G01X3125Y34683D01*
G01X3076Y34680D01*
G01X3028Y34675D01*
G01X2979Y34667D01*
G01X2931Y34658D01*
G01X2883Y34647D01*
G01X2836Y34633D01*
G01X2789Y34618D01*
G01X2743Y34601D01*
G01X2698Y34581D01*
G01X2654Y34560D01*
G01X2610Y34537D01*
G01X2568Y34512D01*
G01X2527Y34486D01*
G01X2487Y34457D01*
G01X2448Y34427D01*
G01X2410Y34396D01*
G01X2374Y34362D01*
G01X2340Y34328D01*
G01X2306Y34292D01*
G01X2275Y34254D01*
G01X2245Y34215D01*
G01X2216Y34175D01*
G01X2190Y34134D01*
G01X2165Y34092D01*
G01X2142Y34048D01*
G01X2121Y34004D01*
G01X2101Y33959D01*
G01X2084Y33913D01*
G01X2069Y33866D01*
G01X2055Y33819D01*
G01X2044Y33771D01*
G01X2035Y33723D01*
G01X2027Y33674D01*
G01X2022Y33626D01*
G01X2019Y33577D01*
G01X2018Y33528D01*
G01X2019Y33478D01*
G01X2022Y33429D01*
G01X2027Y33381D01*
G01X2035Y33332D01*
G01X2044Y33284D01*
G01X2055Y33236D01*
G01X2069Y33189D01*
G01X2084Y33142D01*
G01X2101Y33096D01*
G01X2121Y33051D01*
G01X2142Y33007D01*
G01X2165Y32963D01*
G01X2190Y32921D01*
G01X2216Y32880D01*
G01X2245Y32840D01*
G01X2275Y32801D01*
G01X2306Y32763D01*
G01X2340Y32727D01*
G01X2374Y32693D01*
G01X2410Y32659D01*
G01X2448Y32628D01*
G01X2487Y32598D01*
G01X2527Y32569D01*
G01X2568Y32543D01*
G01X2610Y32518D01*
G01X2654Y32495D01*
G01X2698Y32474D01*
G01X2743Y32454D01*
G01X2789Y32437D01*
G01X2836Y32422D01*
G01X2883Y32408D01*
G01X2931Y32397D01*
G01X2979Y32388D01*
G01X3028Y32380D01*
G01X3076Y32375D01*
G01X3125Y32372D01*
G01X3175Y32371D01*
G01X3223Y32372D01*
G01X3271Y32375D01*
G01X3320Y32380D01*
G01X3368Y32387D01*
G01X3415Y32396D01*
G01X3463Y32407D01*
G01X3509Y32420D01*
G01X3556Y32436D01*
G01X3601Y32452D01*
G01X3646Y32471D01*
G01X3690Y32492D01*
G01X3733Y32515D01*
G01X3775Y32539D01*
G01X3816Y32565D01*
G01X3855Y32593D01*
G01X3894Y32622D01*
G01X3931Y32653D01*
G01X3967Y32685D01*
G01X4002Y32719D01*
G01X4035Y32755D01*
G01X4067Y32792D01*
G01X4097Y32830D01*
G01X4125Y32869D01*
G01X4152Y32910D01*
G01X4177Y32951D01*
G01X4200Y32994D01*
G01X4222Y33037D01*
G01X4242Y33082D01*
G01X4248Y33095D01*
G01X4257Y33107D01*
G01X4267Y33118D01*
G01X4279Y33127D01*
G01X4292Y33134D01*
G01X4306Y33140D01*
G01X4320Y33143D01*
G01X4335Y33144D01*
G01X8001Y33144D01*
G01X8031Y33145D01*
G01X8060Y33149D01*
G01X8090Y33155D01*
G01X8119Y33163D01*
G01X8147Y33173D01*
G01X8175Y33186D01*
G01X8201Y33200D01*
G01X8226Y33217D01*
G01X8250Y33236D01*
G01X8272Y33256D01*
G01X8511Y33495D01*
G01X8523Y33506D01*
G01X8536Y33514D01*
G01X8551Y33520D01*
G01X8567Y33524D01*
G01X8582Y33525D01*
G01X10004Y33525D01*
G01X10019Y33524D01*
G01X10033Y33521D01*
G01X10046Y33516D01*
G01X10059Y33509D01*
G01X10071Y33500D01*
G01X10081Y33490D01*
G01X10090Y33478D01*
G01X10097Y33466D01*
G01X10102Y33452D01*
G01X10105Y33438D01*
G01X10106Y33423D01*
G01X10105Y33407D01*
G01X10101Y33392D01*
G01X10095Y33377D01*
G01X10086Y33364D01*
G01X10076Y33352D01*
G01X8125Y31401D01*
G01X8113Y31390D01*
G01X8100Y31382D01*
G01X8085Y31376D01*
G01X8069Y31372D01*
G01X8054Y31371D01*
G01X4335Y31371D01*
G01X4320Y31372D01*
G01X4306Y31375D01*
G01X4292Y31381D01*
G01X4279Y31388D01*
G01X4267Y31397D01*
G01X4257Y31408D01*
G01X4248Y31420D01*
G01X4242Y31433D01*
G01X4222Y31478D01*
G01X4200Y31521D01*
G01X4177Y31564D01*
G01X4152Y31605D01*
G01X4125Y31646D01*
G01X4097Y31685D01*
G01X4067Y31723D01*
G01X4035Y31760D01*
G01X4002Y31796D01*
G01X3967Y31830D01*
G01X3931Y31862D01*
G01X3894Y31893D01*
G01X3855Y31922D01*
G01X3816Y31950D01*
G01X3775Y31976D01*
G01X3733Y32000D01*
G01X3690Y32023D01*
G01X3646Y32044D01*
G01X3601Y32063D01*
G01X3556Y32079D01*
G01X3509Y32095D01*
G01X3463Y32108D01*
G01X3415Y32119D01*
G01X3368Y32128D01*
G01X3320Y32135D01*
G01X3271Y32140D01*
G01X3223Y32143D01*
G01X3175Y32144D01*
G01X3125Y32143D01*
G01X3076Y32140D01*
G01X3028Y32135D01*
G01X2979Y32127D01*
G01X2931Y32118D01*
G01X2883Y32107D01*
G01X2836Y32093D01*
G01X2789Y32078D01*
G01X2743Y32061D01*
G01X2698Y32041D01*
G01X2654Y32020D01*
G01X2610Y31997D01*
G01X2568Y31972D01*
G01X2527Y31946D01*
G01X2487Y31917D01*
G01X2448Y31887D01*
G01X2410Y31856D01*
G01X2374Y31822D01*
G01X2340Y31788D01*
G01X2306Y31752D01*
G01X2275Y31714D01*
G01X2245Y31675D01*
G01X2216Y31635D01*
G01X2190Y31594D01*
G01X2165Y31552D01*
G01X2142Y31508D01*
G01X2121Y31464D01*
G01X2101Y31419D01*
G01X2084Y31373D01*
G01X2069Y31326D01*
G01X2055Y31279D01*
G01X2044Y31231D01*
G01X2035Y31183D01*
G01X2027Y31134D01*
G01X2022Y31086D01*
G01X2019Y31037D01*
G01X2018Y30988D01*
G01X2019Y30938D01*
G01X2022Y30889D01*
G01X2027Y30841D01*
G01X2035Y30792D01*
G01X2044Y30744D01*
G01X2055Y30696D01*
G01X2069Y30649D01*
G01X2084Y30602D01*
G01X2101Y30556D01*
G01X2121Y30511D01*
G01X2142Y30467D01*
G01X2165Y30423D01*
G01X2190Y30381D01*
G01X2216Y30340D01*
G01X2245Y30300D01*
G01X2275Y30261D01*
G01X2306Y30223D01*
G01X2340Y30187D01*
G01X2374Y30153D01*
G01X2410Y30119D01*
G01X2448Y30088D01*
G01X2487Y30058D01*
G01X2527Y30029D01*
G01X2568Y30003D01*
G01X2610Y29978D01*
G01X2654Y29955D01*
G01X2698Y29934D01*
G01X2743Y29914D01*
G01X2789Y29897D01*
G01X2836Y29882D01*
G01X2883Y29868D01*
G01X2931Y29857D01*
G01X2979Y29848D01*
G01X3028Y29840D01*
G01X3076Y29835D01*
G01X3125Y29832D01*
G01X3175Y29831D01*
G01X3223Y29832D01*
G01X3271Y29835D01*
G01X3320Y29840D01*
G01X3368Y29847D01*
G01X3415Y29856D01*
G01X3463Y29867D01*
G01X3509Y29880D01*
G01X3556Y29896D01*
G01X3601Y29912D01*
G01X3646Y29931D01*
G01X3690Y29952D01*
G01X3733Y29975D01*
G01X3775Y29999D01*
G01X3816Y30025D01*
G01X3855Y30053D01*
G01X3894Y30082D01*
G01X3931Y30113D01*
G01X3967Y30145D01*
G01X4002Y30179D01*
G01X4035Y30215D01*
G01X4067Y30252D01*
G01X4097Y30290D01*
G01X4125Y30329D01*
G01X4152Y30370D01*
G01X4177Y30411D01*
G01X4200Y30454D01*
G01X4222Y30497D01*
G01X4242Y30542D01*
G01X4248Y30555D01*
G01X4257Y30567D01*
G01X4267Y30578D01*
G01X4279Y30587D01*
G01X4292Y30594D01*
G01X4306Y30600D01*
G01X4320Y30603D01*
G01X4335Y30604D01*
G01X8255Y30604D01*
G01X8285Y30605D01*
G01X8314Y30609D01*
G01X8344Y30615D01*
G01X8373Y30623D01*
G01X8401Y30633D01*
G01X8429Y30646D01*
G01X8455Y30660D01*
G01X8480Y30677D01*
G01X8504Y30696D01*
G01X8526Y30716D01*
G01X10797Y32987D01*
G01X10809Y32998D01*
G01X10822Y33006D01*
G01X10837Y33012D01*
G01X10853Y33016D01*
G01X10868Y33017D01*
G01X15928Y33017D01*
G01X15943Y33016D01*
G01X15959Y33012D01*
G01X15974Y33006D01*
G01X15987Y32998D01*
G01X15999Y32987D01*
G01X17493Y31493D01*
G01X17504Y31481D01*
G01X17512Y31468D01*
G01X17518Y31453D01*
G01X17522Y31437D01*
G01X17523Y31422D01*
G01X17523Y26797D01*
G01X17524Y26766D01*
G01X17528Y26737D01*
G01X17534Y26707D01*
G01X17542Y26678D01*
G01X17552Y26650D01*
G01X17565Y26622D01*
G01X17579Y26596D01*
G01X17596Y26571D01*
G01X17615Y26547D01*
G01X17635Y26525D01*
G01X18717Y25443D01*
G01X18739Y25423D01*
G01X18763Y25404D01*
G01X18788Y25387D01*
G01X18814Y25373D01*
G01X18842Y25360D01*
G01X18870Y25350D01*
G01X18899Y25342D01*
G01X18929Y25336D01*
G01X18958Y25332D01*
G01X18989Y25331D01*
G01X19927Y25331D01*
G01X19942Y25330D01*
G01X19956Y25327D01*
G01X19969Y25322D01*
G01X19982Y25315D01*
G01X19994Y25306D01*
G01X20004Y25296D01*
G01X20013Y25284D01*
G01X20020Y25272D01*
G01X20025Y25258D01*
G01X20028Y25244D01*
G01X20029Y25229D01*
G01X20028Y25215D01*
G01X20025Y25201D01*
G01X20020Y25187D01*
G01X20013Y25174D01*
G01X19995Y25145D01*
G01X19980Y25114D01*
G01X19967Y25082D01*
G01X19956Y25050D01*
G01X19947Y25017D01*
G01X19941Y24983D01*
G01X19938Y24949D01*
G01X19936Y24914D01*
G01X19938Y24880D01*
G01X19941Y24847D01*
G01X19947Y24813D01*
G01X19956Y24780D01*
G01X19966Y24748D01*
G01X19979Y24716D01*
G01X19994Y24686D01*
G01X20011Y24656D01*
G01X20018Y24644D01*
G01X20023Y24630D01*
G01X20026Y24616D01*
G01X20027Y24602D01*
G01X20026Y24587D01*
G01X20023Y24573D01*
G01X20018Y24560D01*
G01X20011Y24547D01*
G01X20002Y24535D01*
G01X19992Y24525D01*
G01X19981Y24516D01*
G01X19968Y24510D01*
G01X19954Y24504D01*
G01X19940Y24501D01*
G01X19926Y24500D01*
G01X17993Y24500D01*
G01X17977Y24502D01*
G01X17962Y24505D01*
G01X17947Y24511D01*
G01X17933Y24520D01*
G01X17921Y24530D01*
G01X16255Y26197D01*
G01X16233Y26217D01*
G01X16209Y26236D01*
G01X16184Y26253D01*
G01X16158Y26267D01*
G01X16130Y26280D01*
G01X16102Y26290D01*
G01X16073Y26298D01*
G01X16043Y26304D01*
G01X16014Y26308D01*
G01X15983Y26309D01*
G01X15274Y26309D01*
G01X15259Y26310D01*
G01X15245Y26313D01*
G01X15231Y26318D01*
G01X15219Y26325D01*
G01X15207Y26334D01*
G01X15197Y26344D01*
G01X15188Y26356D01*
G01X15181Y26368D01*
G01X15176Y26382D01*
G01X15173Y26396D01*
G01X15172Y26411D01*
G01X15172Y26876D01*
G01X15171Y26899D01*
G01X15168Y26923D01*
G01X15162Y26946D01*
G01X15155Y26968D01*
G01X15145Y26990D01*
G01X15134Y27011D01*
G01X15120Y27030D01*
G01X15105Y27048D01*
G01X15088Y27065D01*
G01X15070Y27080D01*
G01X15051Y27094D01*
G01X15030Y27105D01*
G01X15008Y27115D01*
G01X14986Y27122D01*
G01X14963Y27128D01*
G01X14939Y27131D01*
G01X14915Y27132D01*
G01X14201Y27132D01*
G01X14186Y27133D01*
G01X14172Y27136D01*
G01X14158Y27141D01*
G01X14146Y27148D01*
G01X14134Y27157D01*
G01X14124Y27167D01*
G01X14115Y27179D01*
G01X14108Y27191D01*
G01X14103Y27205D01*
G01X14100Y27219D01*
G01X14099Y27234D01*
G01X14099Y28113D01*
G01X14100Y28128D01*
G01X14103Y28142D01*
G01X14108Y28156D01*
G01X14115Y28168D01*
G01X14124Y28180D01*
G01X14134Y28190D01*
G01X14146Y28199D01*
G01X14158Y28206D01*
G01X14172Y28211D01*
G01X14186Y28214D01*
G01X14201Y28215D01*
G01X14491Y28215D01*
G01X14514Y28216D01*
G01X14538Y28219D01*
G01X14561Y28225D01*
G01X14583Y28232D01*
G01X14605Y28242D01*
G01X14626Y28253D01*
G01X14645Y28267D01*
G01X14663Y28282D01*
G01X14680Y28299D01*
G01X14695Y28317D01*
G01X14709Y28336D01*
G01X14720Y28357D01*
G01X14730Y28379D01*
G01X14737Y28401D01*
G01X14743Y28424D01*
G01X14746Y28448D01*
G01X14747Y28472D01*
G01X14747Y29472D01*
G01X14746Y29495D01*
G01X14743Y29519D01*
G01X14737Y29542D01*
G01X14730Y29564D01*
G01X14720Y29586D01*
G01X14709Y29607D01*
G01X14695Y29626D01*
G01X14680Y29644D01*
G01X14663Y29661D01*
G01X14645Y29676D01*
G01X14626Y29690D01*
G01X14605Y29701D01*
G01X14583Y29711D01*
G01X14561Y29718D01*
G01X14538Y29724D01*
G01X14514Y29727D01*
G01X14491Y29728D01*
G01X12940Y29728D01*
G01X12917Y29727D01*
G01X12893Y29724D01*
G01X12870Y29718D01*
G01X12848Y29711D01*
G01X12826Y29701D01*
G01X12805Y29690D01*
G01X12786Y29676D01*
G01X12768Y29661D01*
G01X12751Y29644D01*
G01X12736Y29626D01*
G01X12722Y29607D01*
G01X12711Y29586D01*
G01X12701Y29564D01*
G01X12694Y29542D01*
G01X12688Y29519D01*
G01X12685Y29495D01*
G01X12684Y29472D01*
G01X12684Y28472D01*
G01X12685Y28448D01*
G01X12688Y28424D01*
G01X12694Y28401D01*
G01X12701Y28379D01*
G01X12711Y28357D01*
G01X12722Y28336D01*
G01X12736Y28317D01*
G01X12751Y28299D01*
G01X12768Y28282D01*
G01X12786Y28267D01*
G01X12805Y28253D01*
G01X12826Y28242D01*
G01X12848Y28232D01*
G01X12870Y28225D01*
G01X12893Y28219D01*
G01X12917Y28216D01*
G01X12940Y28215D01*
G01X13230Y28215D01*
G01X13245Y28214D01*
G01X13259Y28211D01*
G01X13273Y28206D01*
G01X13285Y28199D01*
G01X13297Y28190D01*
G01X13307Y28180D01*
G01X13316Y28168D01*
G01X13323Y28156D01*
G01X13328Y28142D01*
G01X13331Y28128D01*
G01X13332Y28113D01*
G01X13332Y27234D01*
G01X13331Y27219D01*
G01X13328Y27205D01*
G01X13323Y27191D01*
G01X13316Y27179D01*
G01X13307Y27167D01*
G01X13297Y27157D01*
G01X13285Y27148D01*
G01X13273Y27141D01*
G01X13259Y27136D01*
G01X13245Y27133D01*
G01X13230Y27132D01*
G01X12516Y27132D01*
G01X12492Y27131D01*
G01X12468Y27128D01*
G01X12445Y27122D01*
G01X12423Y27115D01*
G01X12401Y27105D01*
G01X12380Y27094D01*
G01X12361Y27080D01*
G01X12343Y27065D01*
G01X12326Y27048D01*
G01X12311Y27030D01*
G01X12297Y27011D01*
G01X12286Y26990D01*
G01X12276Y26968D01*
G01X12269Y26946D01*
G01X12263Y26923D01*
G01X12260Y26899D01*
G01X12259Y26876D01*
G01X12259Y24976D01*
G01X12260Y24952D01*
G01X12263Y24928D01*
G01X12269Y24905D01*
G01X12276Y24883D01*
G01X12286Y24861D01*
G01X12297Y24840D01*
G01X12311Y24821D01*
G01X12326Y24803D01*
G01X12343Y24786D01*
G01X12361Y24771D01*
G01X12380Y24757D01*
G01X12401Y24746D01*
G01X12423Y24736D01*
G01X12445Y24729D01*
G01X12468Y24723D01*
G01X12492Y24720D01*
G01X12516Y24719D01*
G01X14915Y24719D01*
G01X14939Y24720D01*
G01X14963Y24723D01*
G01X14986Y24729D01*
G01X15008Y24736D01*
G01X15030Y24746D01*
G01X15051Y24757D01*
G01X15070Y24771D01*
G01X15088Y24786D01*
G01X15105Y24803D01*
G01X15120Y24821D01*
G01X15134Y24840D01*
G01X15145Y24861D01*
G01X15155Y24883D01*
G01X15162Y24905D01*
G01X15168Y24928D01*
G01X15171Y24952D01*
G01X15172Y24976D01*
G01X15172Y25440D01*
G01X15173Y25455D01*
G01X15176Y25469D01*
G01X15181Y25483D01*
G01X15188Y25495D01*
G01X15197Y25507D01*
G01X15207Y25517D01*
G01X15219Y25526D01*
G01X15231Y25533D01*
G01X15245Y25538D01*
G01X15259Y25541D01*
G01X15274Y25542D01*
G01X15783Y25542D01*
G01X15798Y25541D01*
G01X15814Y25537D01*
G01X15829Y25531D01*
G01X15842Y25523D01*
G01X15854Y25512D01*
G01X17493Y23874D01*
G01X17503Y23862D01*
G01X17512Y23848D01*
G01X17518Y23833D01*
G01X17521Y23818D01*
G01X17523Y23802D01*
G01X17522Y23787D01*
G01X17519Y23773D01*
G01X17507Y23747D01*
G01X17498Y23735D01*
G01X17488Y23725D01*
G01X17476Y23716D01*
G01X17463Y23709D01*
G01X17450Y23704D01*
G01X17436Y23701D01*
G01X17421Y23700D01*
G01X17094Y23700D01*
G01X17064Y23699D01*
G01X17034Y23696D01*
G01X17004Y23690D01*
G01X16975Y23681D01*
G01X16947Y23671D01*
G01X16920Y23658D01*
G01X16893Y23644D01*
G01X16868Y23627D01*
G01X16845Y23608D01*
G01X16823Y23588D01*
G01X15473Y22239D01*
G01X15461Y22228D01*
G01X15448Y22220D01*
G01X15433Y22214D01*
G01X15417Y22210D01*
G01X15402Y22209D01*
G01X15274Y22209D01*
G01X15259Y22210D01*
G01X15245Y22213D01*
G01X15231Y22218D01*
G01X15219Y22225D01*
G01X15207Y22234D01*
G01X15197Y22244D01*
G01X15188Y22256D01*
G01X15181Y22268D01*
G01X15176Y22282D01*
G01X15173Y22296D01*
G01X15172Y22311D01*
G01X15172Y22775D01*
G01X15171Y22799D01*
G01X15168Y22823D01*
G01X15162Y22846D01*
G01X15155Y22868D01*
G01X15145Y22890D01*
G01X15134Y22911D01*
G01X15120Y22930D01*
G01X15105Y22948D01*
G01X15088Y22965D01*
G01X15070Y22980D01*
G01X15051Y22994D01*
G01X15030Y23005D01*
G01X15008Y23015D01*
G01X14986Y23022D01*
G01X14963Y23028D01*
G01X14939Y23031D01*
G01X14915Y23032D01*
G01X12516Y23032D01*
G01X12492Y23031D01*
G01X12468Y23028D01*
G01X12445Y23022D01*
G01X12423Y23015D01*
G01X12401Y23005D01*
G01X12380Y22994D01*
G01X12361Y22980D01*
G01X12343Y22965D01*
G01X12326Y22948D01*
G01X12311Y22930D01*
G01X12297Y22911D01*
G01X12286Y22890D01*
G01X12276Y22868D01*
G01X12269Y22846D01*
G01X12263Y22823D01*
G01X12260Y22799D01*
G01X12259Y22775D01*
G01X12259Y20875D01*
G01X12260Y20852D01*
G01X12263Y20828D01*
G01X12269Y20805D01*
G01X12276Y20783D01*
G01X12286Y20761D01*
G01X12297Y20740D01*
G01X12311Y20721D01*
G01X12326Y20703D01*
G01X12343Y20686D01*
G01X12361Y20671D01*
G01X12380Y20657D01*
G01X12401Y20646D01*
G01X12423Y20636D01*
G01X12445Y20629D01*
G01X12468Y20623D01*
G01X12492Y20620D01*
G01X12516Y20619D01*
G01X13230Y20619D01*
G01X13245Y20618D01*
G01X13259Y20615D01*
G01X13273Y20610D01*
G01X13285Y20603D01*
G01X13297Y20594D01*
G01X13307Y20584D01*
G01X13316Y20572D01*
G01X13323Y20560D01*
G01X13328Y20546D01*
G01X13331Y20532D01*
G01X13332Y20517D01*
G01X13332Y19765D01*
G01X13331Y19750D01*
G01X13328Y19736D01*
G01X13323Y19722D01*
G01X13316Y19710D01*
G01X13307Y19698D01*
G01X13297Y19688D01*
G01X13285Y19679D01*
G01X13273Y19672D01*
G01X13259Y19667D01*
G01X13245Y19664D01*
G01X13230Y19663D01*
G01X12940Y19663D01*
G01X12917Y19662D01*
G01X12893Y19659D01*
G01X12870Y19653D01*
G01X12848Y19646D01*
G01X12826Y19636D01*
G01X12805Y19625D01*
G01X12786Y19611D01*
G01X12768Y19596D01*
G01X12751Y19579D01*
G01X12736Y19561D01*
G01X12722Y19542D01*
G01X12711Y19521D01*
G01X12701Y19499D01*
G01X12694Y19477D01*
G01X12688Y19454D01*
G01X12685Y19430D01*
G01X12684Y19406D01*
G01X12684Y18406D01*
G01X12685Y18383D01*
G01X12688Y18359D01*
G01X12694Y18336D01*
G01X12701Y18314D01*
G01X12711Y18292D01*
G01X12722Y18271D01*
G01X12736Y18252D01*
G01X12751Y18234D01*
G01X12768Y18217D01*
G01X12786Y18202D01*
G01X12805Y18188D01*
G01X12826Y18177D01*
G01X12848Y18167D01*
G01X12870Y18160D01*
G01X12893Y18154D01*
G01X12917Y18151D01*
G01X12940Y18150D01*
G01X14491Y18150D01*
G01X14514Y18151D01*
G01X14538Y18154D01*
G01X14561Y18160D01*
G01X14583Y18167D01*
G01X14605Y18177D01*
G01X14626Y18188D01*
G01X14645Y18202D01*
G01X14663Y18217D01*
G01X14680Y18234D01*
G01X14695Y18252D01*
G01X14709Y18271D01*
G01X14720Y18292D01*
G01X14730Y18314D01*
G01X14737Y18336D01*
G01X14743Y18359D01*
G01X14746Y18383D01*
G01X14747Y18406D01*
G01X14747Y19406D01*
G01X14746Y19430D01*
G01X14743Y19454D01*
G01X14737Y19477D01*
G01X14730Y19499D01*
G01X14720Y19521D01*
G01X14709Y19542D01*
G01X14695Y19561D01*
G01X14680Y19579D01*
G01X14663Y19596D01*
G01X14645Y19611D01*
G01X14626Y19625D01*
G01X14605Y19636D01*
G01X14583Y19646D01*
G01X14561Y19653D01*
G01X14538Y19659D01*
G01X14514Y19662D01*
G01X14491Y19663D01*
G01X14201Y19663D01*
G01X14186Y19664D01*
G01X14172Y19667D01*
G01X14158Y19672D01*
G01X14146Y19679D01*
G01X14134Y19688D01*
G01X14124Y19698D01*
G01X14115Y19710D01*
G01X14108Y19722D01*
G01X14103Y19736D01*
G01X14100Y19750D01*
G01X14099Y19765D01*
G01X14099Y20517D01*
G01X14100Y20532D01*
G01X14103Y20546D01*
G01X14108Y20560D01*
G01X14115Y20572D01*
G01X14124Y20584D01*
G01X14134Y20594D01*
G01X14146Y20603D01*
G01X14158Y20610D01*
G01X14172Y20615D01*
G01X14186Y20618D01*
G01X14201Y20619D01*
G01X14915Y20619D01*
G01X14939Y20620D01*
G01X14963Y20623D01*
G01X14986Y20629D01*
G01X15008Y20636D01*
G01X15030Y20646D01*
G01X15051Y20657D01*
G01X15070Y20671D01*
G01X15088Y20686D01*
G01X15105Y20703D01*
G01X15120Y20721D01*
G01X15134Y20740D01*
G01X15145Y20761D01*
G01X15155Y20783D01*
G01X15162Y20805D01*
G01X15168Y20828D01*
G01X15171Y20852D01*
G01X15172Y20875D01*
G01X15172Y21340D01*
G01X15173Y21355D01*
G01X15176Y21369D01*
G01X15181Y21383D01*
G01X15188Y21395D01*
G01X15197Y21407D01*
G01X15207Y21417D01*
G01X15219Y21426D01*
G01X15231Y21433D01*
G01X15245Y21438D01*
G01X15259Y21441D01*
G01X15274Y21442D01*
G01X15602Y21442D01*
G01X15633Y21443D01*
G01X15662Y21447D01*
G01X15692Y21453D01*
G01X15721Y21461D01*
G01X15749Y21471D01*
G01X15777Y21484D01*
G01X15803Y21498D01*
G01X15828Y21515D01*
G01X15852Y21534D01*
G01X15874Y21554D01*
G01X17223Y22903D01*
G01X17235Y22914D01*
G01X17249Y22922D01*
G01X17263Y22928D01*
G01X17279Y22932D01*
G01X17295Y22933D01*
G01X19927Y22933D01*
G01X19942Y22932D01*
G01X19956Y22929D01*
G01X19969Y22924D01*
G01X19982Y22917D01*
G01X19994Y22908D01*
G01X20004Y22898D01*
G01X20013Y22887D01*
G01X20020Y22874D01*
G01X20025Y22860D01*
G01X20028Y22846D01*
G01X20029Y22832D01*
G01X20028Y22817D01*
G01X20025Y22803D01*
G01X20020Y22789D01*
G01X20013Y22777D01*
G01X19995Y22747D01*
G01X19980Y22716D01*
G01X19967Y22685D01*
G01X19956Y22652D01*
G01X19947Y22619D01*
G01X19941Y22585D01*
G01X19938Y22551D01*
G01X19936Y22517D01*
G01X19938Y22482D01*
G01X19941Y22448D01*
G01X19947Y22414D01*
G01X19956Y22381D01*
G01X19967Y22349D01*
G01X19980Y22317D01*
G01X19995Y22286D01*
G01X20013Y22257D01*
G01X20020Y22244D01*
G01X20025Y22230D01*
G01X20028Y22216D01*
G01X20029Y22202D01*
G01X20028Y22187D01*
G01X20025Y22173D01*
G01X20020Y22159D01*
G01X20013Y22147D01*
G01X20004Y22135D01*
G01X19994Y22125D01*
G01X19982Y22116D01*
G01X19969Y22109D01*
G01X19956Y22104D01*
G01X19942Y22101D01*
G01X19927Y22100D01*
G01X19177Y22100D01*
G01X19146Y22099D01*
G01X19117Y22095D01*
G01X19087Y22089D01*
G01X19058Y22081D01*
G01X19030Y22071D01*
G01X19002Y22058D01*
G01X18976Y22044D01*
G01X18951Y22027D01*
G01X18927Y22008D01*
G01X18905Y21988D01*
G01X18016Y21099D01*
G01X17996Y21077D01*
G01X17977Y21053D01*
G01X17960Y21028D01*
G01X17946Y21002D01*
G01X17933Y20974D01*
G01X17923Y20946D01*
G01X17915Y20917D01*
G01X17909Y20887D01*
G01X17905Y20858D01*
G01X17904Y20828D01*
G01X17904Y20518D01*
G01X17903Y20502D01*
G01X17899Y20488D01*
G01X17894Y20473D01*
G01X17886Y20460D01*
G01X17877Y20448D01*
G01X17854Y20422D01*
G01X17832Y20394D01*
G01X17813Y20365D01*
G01X17795Y20335D01*
G01X17779Y20303D01*
G01X17765Y20271D01*
G01X17753Y20238D01*
G01X17743Y20204D01*
G01X17736Y20170D01*
G01X17730Y20136D01*
G01X17727Y20101D01*
G01X17726Y20066D01*
G01X17727Y20032D01*
G01X17730Y19998D01*
G01X17735Y19964D01*
G01X17742Y19931D01*
G01X17751Y19898D01*
G01X17762Y19866D01*
G01X17775Y19835D01*
G01X17790Y19805D01*
G01X17807Y19775D01*
G01X17825Y19747D01*
G01X17845Y19719D01*
G01X17867Y19693D01*
G01X17890Y19668D01*
G01X17915Y19645D01*
G01X17941Y19623D01*
G01X17969Y19603D01*
G01X17997Y19585D01*
G01X18027Y19568D01*
G01X18057Y19553D01*
G01X18088Y19540D01*
G01X18120Y19529D01*
G01X18153Y19520D01*
G01X18186Y19513D01*
G01X18220Y19508D01*
G01X18254Y19505D01*
G01X18288Y19504D01*
G01X18321Y19505D01*
G01X18355Y19508D01*
G01X18389Y19513D01*
G01X18422Y19520D01*
G01X18455Y19529D01*
G01X18487Y19540D01*
G01X18518Y19553D01*
G01X18548Y19568D01*
G01X18578Y19585D01*
G01X18606Y19603D01*
G01X18634Y19623D01*
G01X18660Y19645D01*
G01X18685Y19668D01*
G01X18708Y19693D01*
G01X18730Y19719D01*
G01X18750Y19747D01*
G01X18768Y19775D01*
G01X18785Y19805D01*
G01X18800Y19835D01*
G01X18813Y19866D01*
G01X18824Y19898D01*
G01X18833Y19931D01*
G01X18840Y19964D01*
G01X18845Y19998D01*
G01X18848Y20032D01*
G01X18849Y20066D01*
G01X18848Y20101D01*
G01X18845Y20136D01*
G01X18839Y20170D01*
G01X18832Y20204D01*
G01X18822Y20238D01*
G01X18810Y20271D01*
G01X18796Y20303D01*
G01X18780Y20335D01*
G01X18762Y20365D01*
G01X18743Y20394D01*
G01X18721Y20422D01*
G01X18698Y20448D01*
G01X18689Y20460D01*
G01X18681Y20473D01*
G01X18676Y20488D01*
G01X18672Y20502D01*
G01X18671Y20518D01*
G01X18671Y20627D01*
G01X18672Y20642D01*
G01X18676Y20658D01*
G01X18682Y20673D01*
G01X18690Y20686D01*
G01X18701Y20698D01*
G01X19306Y21303D01*
G01X19318Y21314D01*
G01X19331Y21322D01*
G01X19346Y21328D01*
G01X19362Y21332D01*
G01X19377Y21333D01*
G01X20094Y21333D01*
G01X20109Y21332D01*
G01X20124Y21329D01*
G01X20138Y21323D01*
G01X20151Y21316D01*
G01X20178Y21299D01*
G01X20205Y21284D01*
G01X20263Y21260D01*
G01X20294Y21251D01*
G01X20324Y21244D01*
G01X20355Y21239D01*
G01X20387Y21236D01*
G01X20418Y21235D01*
G01X21618Y21235D01*
G01X21649Y21236D01*
G01X21681Y21239D01*
G01X21712Y21244D01*
G01X21743Y21251D01*
G01X21773Y21261D01*
G01X21802Y21272D01*
G01X21831Y21285D01*
G01X21859Y21299D01*
G01X21886Y21316D01*
G01X21911Y21334D01*
G01X21935Y21354D01*
G01X21959Y21376D01*
G01X21980Y21399D01*
G01X22000Y21423D01*
G01X22018Y21449D01*
G01X22035Y21476D01*
G01X22050Y21504D01*
G01X22063Y21532D01*
G01X22074Y21562D01*
G01X22083Y21592D01*
G01X22090Y21623D01*
G01X22095Y21654D01*
G01X22099Y21685D01*
G01X22100Y21717D01*
G01X22098Y21750D01*
G01X22095Y21782D01*
G01X22089Y21815D01*
G01X22081Y21847D01*
G01X22071Y21879D01*
G01X22059Y21909D01*
G01X22045Y21939D01*
G01X22029Y21968D01*
G01X22010Y21996D01*
G01X21990Y22022D01*
G01X21968Y22047D01*
G01X21959Y22059D01*
G01X21951Y22072D01*
G01X21945Y22086D01*
G01X21942Y22101D01*
G01X21941Y22117D01*
G01X21942Y22132D01*
G01X21945Y22147D01*
G01X21951Y22161D01*
G01X21959Y22174D01*
G01X21968Y22186D01*
G01X21990Y22211D01*
G01X22010Y22237D01*
G01X22029Y22265D01*
G01X22045Y22294D01*
G01X22059Y22324D01*
G01X22071Y22354D01*
G01X22081Y22386D01*
G01X22089Y22418D01*
G01X22095Y22451D01*
G01X22098Y22484D01*
G01X22100Y22517D01*
G01X22098Y22550D01*
G01X22095Y22583D01*
G01X22089Y22615D01*
G01X22081Y22647D01*
G01X22071Y22679D01*
G01X22059Y22710D01*
G01X22045Y22739D01*
G01X22029Y22768D01*
G01X22010Y22796D01*
G01X21990Y22822D01*
G01X21968Y22847D01*
G01X21959Y22859D01*
G01X21951Y22872D01*
G01X21945Y22886D01*
G01X21942Y22901D01*
G01X21941Y22917D01*
G01X21942Y22932D01*
G01X21945Y22947D01*
G01X21951Y22961D01*
G01X21959Y22974D01*
G01X21968Y22986D01*
G01X21990Y23011D01*
G01X22010Y23037D01*
G01X22029Y23065D01*
G01X22045Y23094D01*
G01X22059Y23124D01*
G01X22071Y23154D01*
G01X22081Y23186D01*
G01X22089Y23218D01*
G01X22095Y23251D01*
G01X22098Y23284D01*
G01X22100Y23317D01*
G01X22098Y23350D01*
G01X22095Y23383D01*
G01X22089Y23415D01*
G01X22081Y23447D01*
G01X22071Y23479D01*
G01X22059Y23510D01*
G01X22045Y23540D01*
G01X22029Y23568D01*
G01X22010Y23596D01*
G01X21990Y23622D01*
G01X21968Y23647D01*
G01X21959Y23659D01*
G01X21951Y23672D01*
G01X21945Y23686D01*
G01X21942Y23701D01*
G01X21941Y23717D01*
G01X21942Y23732D01*
G01X21945Y23747D01*
G01X21951Y23761D01*
G01X21959Y23775D01*
G01X21968Y23786D01*
G01X21990Y23811D01*
G01X22010Y23838D01*
G01X22029Y23865D01*
G01X22045Y23894D01*
G01X22059Y23924D01*
G01X22071Y23955D01*
G01X22081Y23986D01*
G01X22089Y24018D01*
G01X22095Y24051D01*
G01X22098Y24084D01*
G01X22100Y24117D01*
G01X22099Y24148D01*
G01X22095Y24179D01*
G01X22090Y24210D01*
G01X22083Y24240D01*
G01X22074Y24270D01*
G01X22063Y24300D01*
G01X22051Y24328D01*
G01X22036Y24356D01*
G01X22029Y24372D01*
G01X22024Y24389D01*
G01X22023Y24406D01*
G01X22024Y24421D01*
G01X22027Y24435D01*
G01X22032Y24449D01*
G01X22039Y24461D01*
G01X22047Y24473D01*
G01X22058Y24483D01*
G01X22069Y24492D01*
G01X22082Y24499D01*
G01X22096Y24504D01*
G01X22110Y24507D01*
G01X22124Y24508D01*
G01X22278Y24508D01*
G01X22293Y24507D01*
G01X22309Y24503D01*
G01X22324Y24497D01*
G01X22337Y24489D01*
G01X22349Y24478D01*
G01X22890Y23938D01*
G01X22900Y23926D01*
G01X22909Y23912D01*
G01X22915Y23897D01*
G01X22918Y23882D01*
G01X22920Y23866D01*
G01X22919Y23851D01*
G01X22915Y23836D01*
G01X22910Y23822D01*
G01X22902Y23809D01*
G01X22883Y23778D01*
G01X22865Y23745D01*
G01X22849Y23711D01*
G01X22836Y23677D01*
G01X22825Y23641D01*
G01X22817Y23605D01*
G01X22811Y23568D01*
G01X22807Y23532D01*
G01X22806Y23495D01*
G01X22807Y23461D01*
G01X22810Y23427D01*
G01X22815Y23393D01*
G01X22822Y23360D01*
G01X22831Y23327D01*
G01X22842Y23295D01*
G01X22855Y23264D01*
G01X22870Y23234D01*
G01X22887Y23204D01*
G01X22905Y23176D01*
G01X22925Y23148D01*
G01X22947Y23122D01*
G01X22970Y23097D01*
G01X22995Y23074D01*
G01X23021Y23052D01*
G01X23049Y23032D01*
G01X23077Y23014D01*
G01X23107Y22997D01*
G01X23137Y22982D01*
G01X23168Y22969D01*
G01X23200Y22958D01*
G01X23233Y22949D01*
G01X23266Y22942D01*
G01X23300Y22937D01*
G01X23334Y22934D01*
G01X23368Y22933D01*
G01X23401Y22934D01*
G01X23435Y22937D01*
G01X23469Y22942D01*
G01X23502Y22949D01*
G01X23535Y22958D01*
G01X23567Y22969D01*
G01X23598Y22982D01*
G01X23628Y22997D01*
G01X23658Y23014D01*
G01X23686Y23032D01*
G01X23714Y23052D01*
G01X23740Y23074D01*
G01X23765Y23097D01*
G01X23788Y23122D01*
G01X23810Y23148D01*
G01X23830Y23176D01*
G01X23848Y23204D01*
G01X23865Y23234D01*
G01X23880Y23264D01*
G01X23893Y23295D01*
G01X23904Y23327D01*
G01X23913Y23360D01*
G01X23920Y23393D01*
G01X23925Y23427D01*
G01X23928Y23461D01*
G01X23929Y23495D01*
G01X23928Y23530D01*
G01X23925Y23565D01*
G01X23919Y23599D01*
G01X23912Y23633D01*
G01X23902Y23667D01*
G01X23890Y23700D01*
G01X23876Y23732D01*
G01X23860Y23764D01*
G01X23842Y23794D01*
G01X23823Y23823D01*
G01X23801Y23851D01*
G01X23778Y23877D01*
G01X23769Y23889D01*
G01X23761Y23902D01*
G01X23756Y23917D01*
G01X23752Y23931D01*
G01X23751Y23947D01*
G01X23751Y24003D01*
G01X23750Y24033D01*
G01X23746Y24062D01*
G01X23740Y24092D01*
G01X23732Y24121D01*
G01X23722Y24149D01*
G01X23709Y24177D01*
G01X23695Y24203D01*
G01X23678Y24228D01*
G01X23659Y24252D01*
G01X23639Y24274D01*
G01X23468Y24444D01*
G01X23458Y24456D01*
G01X23450Y24470D01*
G01X23444Y24485D01*
G01X23440Y24500D01*
G01X23439Y24516D01*
G01X23440Y24530D01*
G01X23443Y24545D01*
G01X23448Y24558D01*
G01X23455Y24571D01*
G01X23463Y24582D01*
G01X23474Y24593D01*
G01X23485Y24601D01*
G01X23498Y24608D01*
G01X23512Y24613D01*
G01X23526Y24616D01*
G01X23540Y24618D01*
G01X23556Y24616D01*
G01X23572Y24612D01*
G01X23606Y24602D01*
G01X23641Y24594D01*
G01X23677Y24589D01*
G01X23713Y24585D01*
G01X23749Y24584D01*
G01X23782Y24585D01*
G01X23816Y24588D01*
G01X23850Y24593D01*
G01X23883Y24600D01*
G01X23916Y24609D01*
G01X23948Y24620D01*
G01X23979Y24633D01*
G01X24009Y24648D01*
G01X24039Y24665D01*
G01X24067Y24683D01*
G01X24095Y24703D01*
G01X24121Y24725D01*
G01X24146Y24748D01*
G01X24169Y24773D01*
G01X24191Y24799D01*
G01X24211Y24827D01*
G01X24229Y24855D01*
G01X24246Y24885D01*
G01X24261Y24915D01*
G01X24274Y24946D01*
G01X24285Y24978D01*
G01X24294Y25011D01*
G01X24301Y25044D01*
G01X24306Y25078D01*
G01X24309Y25112D01*
G01X24310Y25146D01*
G01X24309Y25180D01*
G01X24306Y25214D01*
G01X24301Y25248D01*
G01X24293Y25282D01*
G01X24284Y25315D01*
G01X24272Y25348D01*
G01X24259Y25380D01*
G01X24244Y25410D01*
G01X24226Y25440D01*
G01X24207Y25469D01*
G01X24187Y25497D01*
G01X24164Y25523D01*
G01X24140Y25548D01*
G01X24115Y25571D01*
G01X24088Y25593D01*
G01X24060Y25613D01*
G01X24031Y25631D01*
G01X24000Y25647D01*
G01X23969Y25662D01*
G01X23937Y25674D01*
G01X23904Y25685D01*
G01X23871Y25694D01*
G01X23837Y25700D01*
G01X23803Y25704D01*
G01X23768Y25707D01*
G01X23753Y25708D01*
G01X23738Y25712D01*
G01X23724Y25718D01*
G01X23712Y25726D01*
G01X23700Y25736D01*
G01X23032Y26405D01*
G01X23021Y26417D01*
G01X23013Y26431D01*
G01X23007Y26445D01*
G01X23003Y26461D01*
G01X23002Y26477D01*
G01X23002Y26883D01*
G01X23003Y26897D01*
G01X23006Y26911D01*
G01X23011Y26925D01*
G01X23018Y26937D01*
G01X23027Y26949D01*
G01X23037Y26959D01*
G01X23048Y26968D01*
G01X23061Y26975D01*
G01X23075Y26980D01*
G01X23089Y26983D01*
G01X23103Y26984D01*
G01X23119Y26983D01*
G01X23135Y26979D01*
G01X23149Y26973D01*
G01X23163Y26965D01*
G01X23175Y26954D01*
G01X23539Y26591D01*
G01X23549Y26579D01*
G01X23557Y26567D01*
G01X23563Y26553D01*
G01X23567Y26538D01*
G01X23568Y26523D01*
G01X23571Y26488D01*
G01X23575Y26454D01*
G01X23581Y26420D01*
G01X23590Y26387D01*
G01X23601Y26354D01*
G01X23613Y26322D01*
G01X23628Y26291D01*
G01X23644Y26260D01*
G01X23662Y26231D01*
G01X23682Y26203D01*
G01X23704Y26176D01*
G01X23727Y26151D01*
G01X23752Y26127D01*
G01X23778Y26104D01*
G01X23806Y26084D01*
G01X23835Y26065D01*
G01X23865Y26047D01*
G01X23895Y26032D01*
G01X23927Y26019D01*
G01X23960Y26007D01*
G01X23993Y25998D01*
G01X24027Y25990D01*
G01X24061Y25985D01*
G01X24095Y25982D01*
G01X24130Y25981D01*
G01X24163Y25982D01*
G01X24197Y25985D01*
G01X24231Y25990D01*
G01X24264Y25997D01*
G01X24297Y26006D01*
G01X24329Y26017D01*
G01X24360Y26030D01*
G01X24390Y26045D01*
G01X24420Y26062D01*
G01X24448Y26080D01*
G01X24476Y26100D01*
G01X24502Y26122D01*
G01X24527Y26145D01*
G01X24550Y26170D01*
G01X24572Y26196D01*
G01X24592Y26224D01*
G01X24610Y26252D01*
G01X24627Y26282D01*
G01X24642Y26312D01*
G01X24655Y26343D01*
G01X24666Y26375D01*
G01X24675Y26408D01*
G01X24682Y26441D01*
G01X24687Y26475D01*
G01X24690Y26509D01*
G01X24691Y26543D01*
G01X24690Y26577D01*
G01X24687Y26611D01*
G01X24682Y26645D01*
G01X24674Y26679D01*
G01X24665Y26712D01*
G01X24653Y26745D01*
G01X24640Y26777D01*
G01X24625Y26807D01*
G01X24607Y26837D01*
G01X24588Y26866D01*
G01X24568Y26894D01*
G01X24545Y26920D01*
G01X24521Y26945D01*
G01X24496Y26968D01*
G01X24469Y26990D01*
G01X24441Y27010D01*
G01X24412Y27028D01*
G01X24381Y27044D01*
G01X24350Y27059D01*
G01X24318Y27071D01*
G01X24285Y27082D01*
G01X24252Y27091D01*
G01X24218Y27097D01*
G01X24184Y27101D01*
G01X24149Y27104D01*
G01X24134Y27105D01*
G01X24119Y27109D01*
G01X24105Y27115D01*
G01X24093Y27123D01*
G01X24081Y27133D01*
G01X23832Y27383D01*
G01X23821Y27395D01*
G01X23813Y27409D01*
G01X23807Y27423D01*
G01X23803Y27439D01*
G01X23802Y27455D01*
G01X23802Y27789D01*
G01X23803Y27803D01*
G01X23806Y27817D01*
G01X23811Y27831D01*
G01X23818Y27843D01*
G01X23827Y27855D01*
G01X23837Y27865D01*
G01X23848Y27874D01*
G01X23861Y27881D01*
G01X23875Y27886D01*
G01X23889Y27889D01*
G01X23903Y27890D01*
G01X23918Y27889D01*
G01X23932Y27886D01*
G01X23946Y27881D01*
G01X23958Y27874D01*
G01X23988Y27857D01*
G01X24019Y27841D01*
G01X24050Y27828D01*
G01X24083Y27817D01*
G01X24116Y27809D01*
G01X24150Y27803D01*
G01X24184Y27799D01*
G01X24218Y27798D01*
G01X24251Y27799D01*
G01X24284Y27802D01*
G01X24317Y27808D01*
G01X24349Y27816D01*
G01X24381Y27826D01*
G01X24411Y27838D01*
G01X24441Y27852D01*
G01X24470Y27869D01*
G01X24498Y27887D01*
G01X24524Y27907D01*
G01X24549Y27929D01*
G01X24561Y27939D01*
G01X24574Y27946D01*
G01X24588Y27952D01*
G01X24603Y27955D01*
G01X24618Y27957D01*
G01X24634Y27955D01*
G01X24649Y27952D01*
G01X24663Y27946D01*
G01X24676Y27939D01*
G01X24688Y27929D01*
G01X24716Y27905D01*
G01X24745Y27883D01*
G01X24776Y27863D01*
G01X24809Y27846D01*
G01X24843Y27831D01*
G01X24843Y28403D01*
G01X24802Y28403D01*
G01X24787Y28404D01*
G01X24773Y28407D01*
G01X24759Y28412D01*
G01X24747Y28419D01*
G01X24735Y28428D01*
G01X24725Y28438D01*
G01X24716Y28450D01*
G01X24709Y28463D01*
G01X24704Y28476D01*
G01X24701Y28490D01*
G01X24700Y28505D01*
G01X24700Y29254D01*
G01X24701Y29268D01*
G01X24704Y29282D01*
G01X24709Y29296D01*
G01X24716Y29309D01*
G01X24725Y29320D01*
G01X24735Y29330D01*
G01X24747Y29339D01*
G01X24759Y29346D01*
G01X24773Y29351D01*
G01X24787Y29354D01*
G01X24802Y29355D01*
G01X24843Y29355D01*
G01X24843Y29928D01*
G01X24809Y29913D01*
G01X24776Y29896D01*
G01X24745Y29876D01*
G01X24716Y29854D01*
G01X24688Y29830D01*
G01X24676Y29820D01*
G01X24663Y29812D01*
G01X24649Y29807D01*
G01X24634Y29803D01*
G01X24618Y29802D01*
G01X24603Y29803D01*
G01X24588Y29807D01*
G01X24574Y29812D01*
G01X24561Y29820D01*
G01X24549Y29830D01*
G01X24524Y29852D01*
G01X24498Y29872D01*
G01X24470Y29890D01*
G01X24441Y29906D01*
G01X24411Y29920D01*
G01X24381Y29933D01*
G01X24349Y29943D01*
G01X24317Y29951D01*
G01X24284Y29956D01*
G01X24251Y29960D01*
G01X24218Y29961D01*
G01X24185Y29960D01*
G01X24152Y29956D01*
G01X24120Y29951D01*
G01X24088Y29943D01*
G01X24056Y29933D01*
G01X24025Y29920D01*
G01X23996Y29906D01*
G01X23967Y29890D01*
G01X23939Y29872D01*
G01X23913Y29852D01*
G01X23888Y29830D01*
G01X23876Y29820D01*
G01X23863Y29812D01*
G01X23849Y29807D01*
G01X23834Y29803D01*
G01X23818Y29802D01*
G01X23803Y29803D01*
G01X23788Y29807D01*
G01X23774Y29812D01*
G01X23761Y29820D01*
G01X23749Y29830D01*
G01X23724Y29852D01*
G01X23698Y29872D01*
G01X23670Y29890D01*
G01X23641Y29906D01*
G01X23611Y29920D01*
G01X23581Y29933D01*
G01X23549Y29943D01*
G01X23517Y29951D01*
G01X23484Y29956D01*
G01X23451Y29960D01*
G01X23418Y29961D01*
G01X23385Y29960D01*
G01X23352Y29956D01*
G01X23320Y29951D01*
G01X23288Y29943D01*
G01X23256Y29933D01*
G01X23225Y29920D01*
G01X23195Y29906D01*
G01X23167Y29890D01*
G01X23139Y29872D01*
G01X23113Y29852D01*
G01X23088Y29830D01*
G01X23076Y29820D01*
G01X23063Y29812D01*
G01X23049Y29807D01*
G01X23034Y29803D01*
G01X23018Y29802D01*
G01X23003Y29803D01*
G01X22988Y29807D01*
G01X22974Y29812D01*
G01X22960Y29820D01*
G01X22949Y29830D01*
G01X22924Y29852D01*
G01X22897Y29872D01*
G01X22870Y29890D01*
G01X22841Y29906D01*
G01X22811Y29920D01*
G01X22780Y29933D01*
G01X22749Y29943D01*
G01X22717Y29951D01*
G01X22684Y29956D01*
G01X22651Y29960D01*
G01X22618Y29961D01*
G01X22587Y29960D01*
G01X22555Y29957D01*
G01X22524Y29952D01*
G01X22494Y29944D01*
G01X22463Y29935D01*
G01X22434Y29924D01*
G01X22405Y29911D01*
G01X22377Y29896D01*
G01X22351Y29880D01*
G01X22325Y29861D01*
G01X22301Y29841D01*
G01X22278Y29820D01*
G01X22256Y29797D01*
G01X22236Y29772D01*
G01X22218Y29747D01*
G01X22201Y29720D01*
G01X22186Y29692D01*
G01X22173Y29664D01*
G01X22162Y29634D01*
G01X22153Y29604D01*
G01X22146Y29573D01*
G01X22141Y29542D01*
G01X22138Y29511D01*
G01X22137Y29479D01*
G01X22137Y28279D01*
G01X22138Y28248D01*
G01X22141Y28217D01*
G01X22146Y28185D01*
G01X22153Y28155D01*
G01X22162Y28125D01*
G01X22173Y28095D01*
G01X22186Y28067D01*
G01X22201Y28039D01*
G01X22218Y28012D01*
G01X22225Y27999D01*
G01X22230Y27985D01*
G01X22234Y27971D01*
G01X22235Y27956D01*
G01X22235Y27588D01*
G01X22234Y27574D01*
G01X22231Y27559D01*
G01X22219Y27533D01*
G01X22210Y27522D01*
G01X22200Y27511D01*
G01X22188Y27503D01*
G01X22175Y27496D01*
G01X22162Y27491D01*
G01X22148Y27488D01*
G01X22133Y27486D01*
G01X22117Y27488D01*
G01X22102Y27491D01*
G01X22088Y27497D01*
G01X22074Y27505D01*
G01X22062Y27515D01*
G01X22052Y27527D01*
G01X22043Y27540D01*
G01X22027Y27569D01*
G01X22009Y27596D01*
G01X21989Y27622D01*
G01X21967Y27646D01*
G01X21944Y27669D01*
G01X21920Y27690D01*
G01X21893Y27710D01*
G01X21866Y27727D01*
G01X21838Y27743D01*
G01X21808Y27757D01*
G01X21778Y27769D01*
G01X21747Y27779D01*
G01X21715Y27786D01*
G01X21683Y27792D01*
G01X21651Y27795D01*
G01X21618Y27796D01*
G01X20418Y27796D01*
G01X20385Y27795D01*
G01X20353Y27792D01*
G01X20320Y27786D01*
G01X20288Y27778D01*
G01X20257Y27769D01*
G01X20227Y27757D01*
G01X20197Y27742D01*
G01X20168Y27726D01*
G01X20152Y27718D01*
G01X20134Y27713D01*
G01X20116Y27712D01*
G01X20100Y27713D01*
G01X20084Y27717D01*
G01X20070Y27723D01*
G01X20056Y27731D01*
G01X20044Y27742D01*
G01X19590Y28196D01*
G01X19579Y28208D01*
G01X19571Y28221D01*
G01X19565Y28236D01*
G01X19561Y28252D01*
G01X19560Y28267D01*
G01X19560Y36449D01*
G01X19559Y36479D01*
G01X19555Y36508D01*
G01X19549Y36538D01*
G01X19541Y36567D01*
G01X19531Y36595D01*
G01X19518Y36623D01*
G01X19504Y36649D01*
G01X19487Y36674D01*
G01X19468Y36698D01*
G01X19448Y36720D01*
G01X16019Y40149D01*
G01X14433Y41734D01*
G01X14423Y41746D01*
G01X14415Y41758D01*
G01X14409Y41772D01*
G01X14405Y41787D01*
G01X14404Y41802D01*
G01X14401Y41837D01*
G01X14397Y41871D01*
G01X14391Y41905D01*
G01X14382Y41938D01*
G01X14371Y41971D01*
G01X14359Y42003D01*
G01X14344Y42034D01*
G01X14328Y42065D01*
G01X14310Y42094D01*
G01X14290Y42122D01*
G01X14268Y42149D01*
G01X14245Y42174D01*
G01X14220Y42198D01*
G01X14194Y42221D01*
G01X14166Y42241D01*
G01X14137Y42260D01*
G01X14107Y42278D01*
G01X14077Y42293D01*
G01X14045Y42306D01*
G01X14012Y42318D01*
G01X13979Y42327D01*
G01X13945Y42335D01*
G01X13911Y42340D01*
G01X13877Y42343D01*
G37*
G36*
G01X48930Y23547D02*
G01X48895Y23548D01*
G01X48861Y23547D01*
G01X48827Y23544D01*
G01X48793Y23539D01*
G01X48760Y23532D01*
G01X48727Y23523D01*
G01X48695Y23512D01*
G01X48664Y23499D01*
G01X48634Y23484D01*
G01X48604Y23467D01*
G01X48576Y23449D01*
G01X48548Y23429D01*
G01X48522Y23407D01*
G01X48497Y23384D01*
G01X48474Y23359D01*
G01X48452Y23333D01*
G01X48432Y23305D01*
G01X48414Y23277D01*
G01X48397Y23247D01*
G01X48382Y23217D01*
G01X48369Y23186D01*
G01X48358Y23154D01*
G01X48349Y23121D01*
G01X48342Y23088D01*
G01X48337Y23054D01*
G01X48334Y23020D01*
G01X48333Y22987D01*
G01X48334Y22953D01*
G01X48337Y22919D01*
G01X48342Y22885D01*
G01X48349Y22852D01*
G01X48358Y22819D01*
G01X48369Y22787D01*
G01X48382Y22756D01*
G01X48397Y22726D01*
G01X48414Y22696D01*
G01X48432Y22668D01*
G01X48452Y22640D01*
G01X48474Y22614D01*
G01X48497Y22589D01*
G01X48522Y22566D01*
G01X48548Y22544D01*
G01X48576Y22524D01*
G01X48604Y22506D01*
G01X48634Y22489D01*
G01X48664Y22474D01*
G01X48695Y22461D01*
G01X48727Y22450D01*
G01X48760Y22441D01*
G01X48793Y22434D01*
G01X48827Y22429D01*
G01X48861Y22426D01*
G01X48895Y22425D01*
G01X48930Y22426D01*
G01X48965Y22429D01*
G01X48999Y22435D01*
G01X49033Y22442D01*
G01X49067Y22452D01*
G01X49100Y22464D01*
G01X49132Y22478D01*
G01X49164Y22494D01*
G01X49194Y22512D01*
G01X49223Y22531D01*
G01X49251Y22553D01*
G01X49277Y22576D01*
G01X49289Y22585D01*
G01X49302Y22593D01*
G01X49317Y22598D01*
G01X49331Y22602D01*
G01X49347Y22603D01*
G01X58403Y22603D01*
G01X58418Y22602D01*
G01X58432Y22599D01*
G01X58445Y22594D01*
G01X58458Y22587D01*
G01X58470Y22578D01*
G01X58480Y22568D01*
G01X58489Y22556D01*
G01X58495Y22544D01*
G01X58501Y22530D01*
G01X58504Y22516D01*
G01X58505Y22501D01*
G01X58503Y22486D01*
G01X58500Y22470D01*
G01X58494Y22456D01*
G01X58486Y22442D01*
G01X58476Y22430D01*
G01X58464Y22420D01*
G01X58437Y22398D01*
G01X58411Y22375D01*
G01X58387Y22350D01*
G01X58364Y22324D01*
G01X58343Y22296D01*
G01X58324Y22267D01*
G01X58306Y22237D01*
G01X58291Y22206D01*
G01X58277Y22174D01*
G01X58266Y22141D01*
G01X58256Y22108D01*
G01X58249Y22074D01*
G01X58243Y22040D01*
G01X58240Y22005D01*
G01X58239Y21971D01*
G01X58240Y21937D01*
G01X58243Y21903D01*
G01X58248Y21869D01*
G01X58255Y21836D01*
G01X58264Y21803D01*
G01X58275Y21771D01*
G01X58288Y21740D01*
G01X58303Y21710D01*
G01X58320Y21680D01*
G01X58338Y21652D01*
G01X58358Y21624D01*
G01X58380Y21598D01*
G01X58403Y21573D01*
G01X58428Y21550D01*
G01X58454Y21528D01*
G01X58482Y21508D01*
G01X58510Y21490D01*
G01X58540Y21473D01*
G01X58570Y21458D01*
G01X58601Y21445D01*
G01X58633Y21434D01*
G01X58666Y21425D01*
G01X58699Y21418D01*
G01X58733Y21413D01*
G01X58767Y21410D01*
G01X58801Y21409D01*
G01X58836Y21410D01*
G01X58871Y21413D01*
G01X58905Y21419D01*
G01X58939Y21426D01*
G01X58973Y21436D01*
G01X59006Y21448D01*
G01X59038Y21462D01*
G01X59070Y21478D01*
G01X59100Y21496D01*
G01X59129Y21515D01*
G01X59157Y21537D01*
G01X59183Y21560D01*
G01X59195Y21569D01*
G01X59208Y21577D01*
G01X59223Y21582D01*
G01X59237Y21586D01*
G01X59253Y21587D01*
G01X82478Y21587D01*
G01X82494Y21586D01*
G01X82508Y21582D01*
G01X82523Y21577D01*
G01X82536Y21569D01*
G01X82548Y21560D01*
G01X82574Y21537D01*
G01X82602Y21515D01*
G01X82631Y21496D01*
G01X82661Y21478D01*
G01X82693Y21462D01*
G01X82725Y21448D01*
G01X82758Y21436D01*
G01X82792Y21426D01*
G01X82826Y21419D01*
G01X82860Y21413D01*
G01X82895Y21410D01*
G01X82931Y21409D01*
G01X82964Y21410D01*
G01X82998Y21413D01*
G01X83032Y21418D01*
G01X83065Y21425D01*
G01X83098Y21434D01*
G01X83130Y21445D01*
G01X83161Y21458D01*
G01X83191Y21473D01*
G01X83221Y21490D01*
G01X83249Y21508D01*
G01X83277Y21528D01*
G01X83303Y21550D01*
G01X83328Y21573D01*
G01X83351Y21598D01*
G01X83373Y21624D01*
G01X83393Y21652D01*
G01X83411Y21680D01*
G01X83428Y21710D01*
G01X83443Y21740D01*
G01X83456Y21771D01*
G01X83467Y21803D01*
G01X83476Y21836D01*
G01X83483Y21869D01*
G01X83488Y21903D01*
G01X83491Y21937D01*
G01X83492Y21971D01*
G01X83491Y22005D01*
G01X83488Y22040D01*
G01X83482Y22074D01*
G01X83475Y22108D01*
G01X83465Y22141D01*
G01X83454Y22174D01*
G01X83440Y22206D01*
G01X83425Y22237D01*
G01X83407Y22267D01*
G01X83388Y22296D01*
G01X83367Y22324D01*
G01X83344Y22350D01*
G01X83320Y22375D01*
G01X83294Y22398D01*
G01X83267Y22420D01*
G01X83255Y22430D01*
G01X83245Y22442D01*
G01X83237Y22456D01*
G01X83231Y22470D01*
G01X83228Y22486D01*
G01X83226Y22501D01*
G01X83227Y22516D01*
G01X83230Y22530D01*
G01X83236Y22544D01*
G01X83242Y22556D01*
G01X83251Y22568D01*
G01X83261Y22578D01*
G01X83273Y22587D01*
G01X83286Y22594D01*
G01X83299Y22599D01*
G01X83313Y22602D01*
G01X83328Y22603D01*
G01X84508Y22603D01*
G01X84523Y22602D01*
G01X84539Y22598D01*
G01X84554Y22592D01*
G01X84567Y22584D01*
G01X84579Y22573D01*
G01X89198Y17955D01*
G01X89208Y17943D01*
G01X89216Y17931D01*
G01X89222Y17917D01*
G01X89226Y17902D01*
G01X89227Y17887D01*
G01X89230Y17852D01*
G01X89234Y17818D01*
G01X89240Y17784D01*
G01X89249Y17751D01*
G01X89260Y17718D01*
G01X89272Y17686D01*
G01X89287Y17655D01*
G01X89303Y17624D01*
G01X89321Y17595D01*
G01X89341Y17567D01*
G01X89363Y17540D01*
G01X89386Y17515D01*
G01X89411Y17491D01*
G01X89437Y17468D01*
G01X89465Y17448D01*
G01X89494Y17429D01*
G01X89524Y17411D01*
G01X89554Y17396D01*
G01X89586Y17383D01*
G01X89619Y17371D01*
G01X89652Y17362D01*
G01X89686Y17354D01*
G01X89720Y17349D01*
G01X89754Y17346D01*
G01X89789Y17345D01*
G01X89822Y17346D01*
G01X89856Y17349D01*
G01X89890Y17354D01*
G01X89923Y17361D01*
G01X89956Y17370D01*
G01X89988Y17381D01*
G01X90019Y17394D01*
G01X90049Y17409D01*
G01X90079Y17426D01*
G01X90107Y17444D01*
G01X90135Y17464D01*
G01X90161Y17486D01*
G01X90186Y17509D01*
G01X90209Y17534D01*
G01X90231Y17560D01*
G01X90251Y17588D01*
G01X90269Y17616D01*
G01X90286Y17646D01*
G01X90301Y17676D01*
G01X90314Y17707D01*
G01X90325Y17739D01*
G01X90334Y17772D01*
G01X90341Y17805D01*
G01X90346Y17839D01*
G01X90349Y17873D01*
G01X90350Y17907D01*
G01X90349Y17941D01*
G01X90346Y17975D01*
G01X90341Y18009D01*
G01X90333Y18043D01*
G01X90324Y18076D01*
G01X90312Y18109D01*
G01X90299Y18141D01*
G01X90284Y18171D01*
G01X90266Y18201D01*
G01X90247Y18230D01*
G01X90227Y18258D01*
G01X90204Y18284D01*
G01X90180Y18309D01*
G01X90155Y18332D01*
G01X90128Y18354D01*
G01X90100Y18374D01*
G01X90071Y18392D01*
G01X90040Y18408D01*
G01X90009Y18423D01*
G01X89977Y18435D01*
G01X89944Y18446D01*
G01X89911Y18455D01*
G01X89877Y18461D01*
G01X89843Y18465D01*
G01X89808Y18468D01*
G01X89793Y18469D01*
G01X89778Y18473D01*
G01X89764Y18479D01*
G01X89752Y18487D01*
G01X89740Y18497D01*
G01X84980Y23258D01*
G01X84958Y23278D01*
G01X84934Y23297D01*
G01X84909Y23314D01*
G01X84883Y23328D01*
G01X84855Y23341D01*
G01X84827Y23351D01*
G01X84798Y23359D01*
G01X84768Y23365D01*
G01X84739Y23369D01*
G01X84709Y23370D01*
G01X49347Y23370D01*
G01X49331Y23371D01*
G01X49317Y23375D01*
G01X49302Y23380D01*
G01X49289Y23388D01*
G01X49277Y23397D01*
G01X49251Y23420D01*
G01X49223Y23442D01*
G01X49194Y23461D01*
G01X49164Y23479D01*
G01X49132Y23495D01*
G01X49100Y23509D01*
G01X49067Y23521D01*
G01X49033Y23531D01*
G01X48999Y23538D01*
G01X48965Y23544D01*
G01X48930Y23547D01*
G37*
G36*
G01X4074Y37224D02*
G01X2275Y37224D01*
G01X2251Y37223D01*
G01X2227Y37220D01*
G01X2204Y37214D01*
G01X2182Y37207D01*
G01X2160Y37197D01*
G01X2139Y37186D01*
G01X2120Y37172D01*
G01X2102Y37157D01*
G01X2085Y37140D01*
G01X2070Y37122D01*
G01X2056Y37103D01*
G01X2045Y37082D01*
G01X2035Y37060D01*
G01X2028Y37038D01*
G01X2022Y37015D01*
G01X2019Y36991D01*
G01X2018Y36967D01*
G01X2018Y35168D01*
G01X2019Y35144D01*
G01X2022Y35120D01*
G01X2028Y35097D01*
G01X2035Y35075D01*
G01X2045Y35053D01*
G01X2056Y35032D01*
G01X2070Y35013D01*
G01X2085Y34995D01*
G01X2102Y34978D01*
G01X2120Y34963D01*
G01X2139Y34949D01*
G01X2160Y34938D01*
G01X2182Y34928D01*
G01X2204Y34921D01*
G01X2227Y34915D01*
G01X2251Y34912D01*
G01X2275Y34911D01*
G01X4074Y34911D01*
G01X4098Y34912D01*
G01X4122Y34915D01*
G01X4145Y34921D01*
G01X4167Y34928D01*
G01X4189Y34938D01*
G01X4210Y34949D01*
G01X4229Y34963D01*
G01X4247Y34978D01*
G01X4264Y34995D01*
G01X4279Y35013D01*
G01X4293Y35032D01*
G01X4304Y35053D01*
G01X4314Y35075D01*
G01X4321Y35097D01*
G01X4327Y35120D01*
G01X4330Y35144D01*
G01X4331Y35168D01*
G01X4331Y35582D01*
G01X4332Y35597D01*
G01X4335Y35611D01*
G01X4340Y35625D01*
G01X4347Y35637D01*
G01X4356Y35649D01*
G01X4366Y35659D01*
G01X4378Y35668D01*
G01X4390Y35675D01*
G01X4404Y35680D01*
G01X4418Y35683D01*
G01X4433Y35684D01*
G01X6777Y35684D01*
G01X6792Y35683D01*
G01X6806Y35680D01*
G01X6820Y35675D01*
G01X6832Y35668D01*
G01X6844Y35659D01*
G01X6854Y35649D01*
G01X6863Y35637D01*
G01X6870Y35625D01*
G01X6875Y35611D01*
G01X6878Y35597D01*
G01X6879Y35582D01*
G01X6879Y35292D01*
G01X6880Y35269D01*
G01X6883Y35245D01*
G01X6889Y35222D01*
G01X6896Y35200D01*
G01X6906Y35178D01*
G01X6917Y35157D01*
G01X6931Y35138D01*
G01X6946Y35120D01*
G01X6963Y35103D01*
G01X6981Y35088D01*
G01X7000Y35074D01*
G01X7021Y35063D01*
G01X7043Y35053D01*
G01X7065Y35046D01*
G01X7088Y35040D01*
G01X7112Y35037D01*
G01X7136Y35036D01*
G01X8136Y35036D01*
G01X8159Y35037D01*
G01X8183Y35040D01*
G01X8206Y35046D01*
G01X8228Y35053D01*
G01X8250Y35063D01*
G01X8271Y35074D01*
G01X8290Y35088D01*
G01X8308Y35103D01*
G01X8325Y35120D01*
G01X8340Y35138D01*
G01X8354Y35157D01*
G01X8365Y35178D01*
G01X8375Y35200D01*
G01X8382Y35222D01*
G01X8388Y35245D01*
G01X8391Y35269D01*
G01X8392Y35292D01*
G01X8392Y36843D01*
G01X8391Y36866D01*
G01X8388Y36890D01*
G01X8382Y36913D01*
G01X8375Y36935D01*
G01X8365Y36957D01*
G01X8354Y36978D01*
G01X8340Y36997D01*
G01X8325Y37015D01*
G01X8308Y37032D01*
G01X8290Y37047D01*
G01X8271Y37061D01*
G01X8250Y37072D01*
G01X8228Y37082D01*
G01X8206Y37089D01*
G01X8183Y37095D01*
G01X8159Y37098D01*
G01X8136Y37099D01*
G01X7136Y37099D01*
G01X7112Y37098D01*
G01X7088Y37095D01*
G01X7065Y37089D01*
G01X7043Y37082D01*
G01X7021Y37072D01*
G01X7000Y37061D01*
G01X6981Y37047D01*
G01X6963Y37032D01*
G01X6946Y37015D01*
G01X6931Y36997D01*
G01X6917Y36978D01*
G01X6906Y36957D01*
G01X6896Y36935D01*
G01X6889Y36913D01*
G01X6883Y36890D01*
G01X6880Y36866D01*
G01X6879Y36843D01*
G01X6879Y36553D01*
G01X6878Y36538D01*
G01X6875Y36524D01*
G01X6870Y36510D01*
G01X6863Y36498D01*
G01X6854Y36486D01*
G01X6844Y36476D01*
G01X6832Y36467D01*
G01X6820Y36460D01*
G01X6806Y36455D01*
G01X6792Y36452D01*
G01X6777Y36451D01*
G01X4433Y36451D01*
G01X4418Y36452D01*
G01X4404Y36455D01*
G01X4390Y36460D01*
G01X4378Y36467D01*
G01X4366Y36476D01*
G01X4356Y36486D01*
G01X4347Y36498D01*
G01X4340Y36510D01*
G01X4335Y36524D01*
G01X4332Y36538D01*
G01X4331Y36553D01*
G01X4331Y36967D01*
G01X4330Y36991D01*
G01X4327Y37015D01*
G01X4321Y37038D01*
G01X4314Y37060D01*
G01X4304Y37082D01*
G01X4293Y37103D01*
G01X4279Y37122D01*
G01X4264Y37140D01*
G01X4247Y37157D01*
G01X4229Y37172D01*
G01X4210Y37186D01*
G01X4189Y37197D01*
G01X4167Y37207D01*
G01X4145Y37214D01*
G01X4122Y37220D01*
G01X4098Y37223D01*
G01X4074Y37224D01*
G37*
G36*
G01X10135Y37099D02*
G01X9135Y37099D01*
G01X9112Y37098D01*
G01X9088Y37095D01*
G01X9065Y37089D01*
G01X9043Y37082D01*
G01X9021Y37072D01*
G01X9000Y37061D01*
G01X8981Y37047D01*
G01X8963Y37032D01*
G01X8946Y37015D01*
G01X8931Y36997D01*
G01X8917Y36978D01*
G01X8906Y36957D01*
G01X8896Y36935D01*
G01X8889Y36913D01*
G01X8883Y36890D01*
G01X8880Y36866D01*
G01X8879Y36843D01*
G01X8879Y35292D01*
G01X8880Y35269D01*
G01X8883Y35245D01*
G01X8889Y35222D01*
G01X8896Y35200D01*
G01X8906Y35178D01*
G01X8917Y35157D01*
G01X8931Y35138D01*
G01X8946Y35120D01*
G01X8963Y35103D01*
G01X8981Y35088D01*
G01X9000Y35074D01*
G01X9021Y35063D01*
G01X9043Y35053D01*
G01X9065Y35046D01*
G01X9088Y35040D01*
G01X9112Y35037D01*
G01X9135Y35036D01*
G01X10135Y35036D01*
G01X10159Y35037D01*
G01X10183Y35040D01*
G01X10206Y35046D01*
G01X10228Y35053D01*
G01X10250Y35063D01*
G01X10271Y35074D01*
G01X10290Y35088D01*
G01X10308Y35103D01*
G01X10325Y35120D01*
G01X10340Y35138D01*
G01X10354Y35157D01*
G01X10365Y35178D01*
G01X10375Y35200D01*
G01X10382Y35222D01*
G01X10388Y35245D01*
G01X10391Y35269D01*
G01X10392Y35292D01*
G01X10392Y35582D01*
G01X10393Y35597D01*
G01X10396Y35611D01*
G01X10401Y35625D01*
G01X10408Y35637D01*
G01X10417Y35649D01*
G01X10427Y35659D01*
G01X10439Y35668D01*
G01X10451Y35675D01*
G01X10465Y35680D01*
G01X10479Y35683D01*
G01X10494Y35684D01*
G01X12628Y35684D01*
G01X12644Y35683D01*
G01X12658Y35679D01*
G01X12673Y35674D01*
G01X12686Y35666D01*
G01X12698Y35657D01*
G01X12724Y35634D01*
G01X12752Y35612D01*
G01X12781Y35593D01*
G01X12811Y35575D01*
G01X12843Y35559D01*
G01X12875Y35545D01*
G01X12908Y35533D01*
G01X12942Y35523D01*
G01X12976Y35516D01*
G01X13010Y35510D01*
G01X13045Y35507D01*
G01X13081Y35506D01*
G01X13114Y35507D01*
G01X13148Y35510D01*
G01X13182Y35515D01*
G01X13215Y35522D01*
G01X13248Y35531D01*
G01X13280Y35542D01*
G01X13311Y35555D01*
G01X13341Y35570D01*
G01X13371Y35587D01*
G01X13399Y35605D01*
G01X13427Y35625D01*
G01X13453Y35647D01*
G01X13478Y35670D01*
G01X13501Y35695D01*
G01X13523Y35721D01*
G01X13543Y35749D01*
G01X13561Y35777D01*
G01X13578Y35807D01*
G01X13593Y35837D01*
G01X13606Y35868D01*
G01X13617Y35900D01*
G01X13626Y35933D01*
G01X13633Y35966D01*
G01X13638Y36000D01*
G01X13641Y36034D01*
G01X13642Y36068D01*
G01X13641Y36101D01*
G01X13638Y36135D01*
G01X13633Y36169D01*
G01X13626Y36202D01*
G01X13617Y36235D01*
G01X13606Y36267D01*
G01X13593Y36298D01*
G01X13578Y36328D01*
G01X13561Y36358D01*
G01X13543Y36386D01*
G01X13523Y36414D01*
G01X13501Y36440D01*
G01X13478Y36465D01*
G01X13453Y36488D01*
G01X13427Y36510D01*
G01X13399Y36530D01*
G01X13371Y36548D01*
G01X13341Y36565D01*
G01X13311Y36580D01*
G01X13280Y36593D01*
G01X13248Y36604D01*
G01X13215Y36613D01*
G01X13182Y36620D01*
G01X13148Y36625D01*
G01X13114Y36628D01*
G01X13081Y36629D01*
G01X13045Y36628D01*
G01X13010Y36625D01*
G01X12976Y36619D01*
G01X12942Y36612D01*
G01X12908Y36602D01*
G01X12875Y36590D01*
G01X12843Y36576D01*
G01X12811Y36560D01*
G01X12781Y36542D01*
G01X12752Y36523D01*
G01X12724Y36501D01*
G01X12698Y36478D01*
G01X12686Y36469D01*
G01X12673Y36461D01*
G01X12658Y36456D01*
G01X12644Y36452D01*
G01X12628Y36451D01*
G01X10494Y36451D01*
G01X10479Y36452D01*
G01X10465Y36455D01*
G01X10451Y36460D01*
G01X10439Y36467D01*
G01X10427Y36476D01*
G01X10417Y36486D01*
G01X10408Y36498D01*
G01X10401Y36510D01*
G01X10396Y36524D01*
G01X10393Y36538D01*
G01X10392Y36553D01*
G01X10392Y36843D01*
G01X10391Y36866D01*
G01X10388Y36890D01*
G01X10382Y36913D01*
G01X10375Y36935D01*
G01X10365Y36957D01*
G01X10354Y36978D01*
G01X10340Y36997D01*
G01X10325Y37015D01*
G01X10308Y37032D01*
G01X10290Y37047D01*
G01X10271Y37061D01*
G01X10250Y37072D01*
G01X10228Y37082D01*
G01X10206Y37089D01*
G01X10183Y37095D01*
G01X10159Y37098D01*
G01X10135Y37099D01*
G37*
G36*
G01X3224Y27063D02*
G01X3175Y27064D01*
G01X3125Y27063D01*
G01X3076Y27060D01*
G01X3028Y27055D01*
G01X2979Y27047D01*
G01X2931Y27038D01*
G01X2883Y27027D01*
G01X2836Y27013D01*
G01X2789Y26998D01*
G01X2743Y26981D01*
G01X2698Y26961D01*
G01X2654Y26940D01*
G01X2610Y26917D01*
G01X2568Y26892D01*
G01X2527Y26866D01*
G01X2487Y26837D01*
G01X2448Y26807D01*
G01X2410Y26776D01*
G01X2374Y26742D01*
G01X2340Y26708D01*
G01X2306Y26672D01*
G01X2275Y26634D01*
G01X2245Y26595D01*
G01X2216Y26555D01*
G01X2190Y26514D01*
G01X2165Y26472D01*
G01X2142Y26428D01*
G01X2121Y26384D01*
G01X2101Y26339D01*
G01X2084Y26293D01*
G01X2069Y26246D01*
G01X2055Y26199D01*
G01X2044Y26151D01*
G01X2035Y26103D01*
G01X2027Y26054D01*
G01X2022Y26006D01*
G01X2019Y25957D01*
G01X2018Y25908D01*
G01X2019Y25858D01*
G01X2022Y25809D01*
G01X2027Y25761D01*
G01X2035Y25712D01*
G01X2044Y25664D01*
G01X2055Y25616D01*
G01X2069Y25569D01*
G01X2084Y25522D01*
G01X2101Y25476D01*
G01X2121Y25431D01*
G01X2142Y25387D01*
G01X2165Y25343D01*
G01X2190Y25301D01*
G01X2216Y25260D01*
G01X2245Y25220D01*
G01X2275Y25181D01*
G01X2306Y25143D01*
G01X2340Y25107D01*
G01X2374Y25073D01*
G01X2410Y25039D01*
G01X2448Y25008D01*
G01X2487Y24978D01*
G01X2527Y24949D01*
G01X2568Y24923D01*
G01X2610Y24898D01*
G01X2654Y24875D01*
G01X2698Y24854D01*
G01X2743Y24834D01*
G01X2789Y24817D01*
G01X2836Y24802D01*
G01X2883Y24788D01*
G01X2931Y24777D01*
G01X2979Y24768D01*
G01X3028Y24760D01*
G01X3076Y24755D01*
G01X3125Y24752D01*
G01X3175Y24751D01*
G01X3224Y24752D01*
G01X3273Y24755D01*
G01X3321Y24760D01*
G01X3370Y24768D01*
G01X3418Y24777D01*
G01X3466Y24788D01*
G01X3513Y24802D01*
G01X3560Y24817D01*
G01X3606Y24834D01*
G01X3651Y24854D01*
G01X3695Y24875D01*
G01X3739Y24898D01*
G01X3781Y24923D01*
G01X3822Y24949D01*
G01X3862Y24978D01*
G01X3901Y25008D01*
G01X3939Y25039D01*
G01X3975Y25073D01*
G01X4009Y25107D01*
G01X4043Y25143D01*
G01X4074Y25181D01*
G01X4104Y25220D01*
G01X4133Y25260D01*
G01X4159Y25301D01*
G01X4184Y25343D01*
G01X4207Y25387D01*
G01X4228Y25431D01*
G01X4248Y25476D01*
G01X4265Y25522D01*
G01X4280Y25569D01*
G01X4294Y25616D01*
G01X4305Y25664D01*
G01X4314Y25712D01*
G01X4322Y25761D01*
G01X4327Y25809D01*
G01X4330Y25858D01*
G01X4331Y25908D01*
G01X4330Y25957D01*
G01X4327Y26006D01*
G01X4322Y26054D01*
G01X4314Y26103D01*
G01X4305Y26151D01*
G01X4294Y26199D01*
G01X4280Y26246D01*
G01X4265Y26293D01*
G01X4248Y26339D01*
G01X4228Y26384D01*
G01X4207Y26428D01*
G01X4184Y26472D01*
G01X4159Y26514D01*
G01X4133Y26555D01*
G01X4104Y26595D01*
G01X4074Y26634D01*
G01X4043Y26672D01*
G01X4009Y26708D01*
G01X3975Y26742D01*
G01X3939Y26776D01*
G01X3901Y26807D01*
G01X3862Y26837D01*
G01X3822Y26866D01*
G01X3781Y26892D01*
G01X3739Y26917D01*
G01X3695Y26940D01*
G01X3651Y26961D01*
G01X3606Y26981D01*
G01X3560Y26998D01*
G01X3513Y27013D01*
G01X3466Y27027D01*
G01X3418Y27038D01*
G01X3370Y27047D01*
G01X3321Y27055D01*
G01X3273Y27060D01*
G01X3224Y27063D01*
G37*
G36*
G01X57377Y42361D02*
G01X56566Y42361D01*
G01X56566Y41118D01*
G01X57634Y41118D01*
G01X57634Y42104D01*
G01X57633Y42128D01*
G01X57629Y42152D01*
G01X57624Y42175D01*
G01X57617Y42197D01*
G01X57607Y42219D01*
G01X57595Y42240D01*
G01X57582Y42259D01*
G01X57567Y42277D01*
G01X57550Y42294D01*
G01X57532Y42309D01*
G01X57512Y42323D01*
G01X57492Y42334D01*
G01X57470Y42344D01*
G01X57447Y42351D01*
G01X57424Y42357D01*
G01X57401Y42360D01*
G01X57377Y42361D01*
G37*
G36*
G01X54689Y42361D02*
G01X53877Y42361D01*
G01X53854Y42360D01*
G01X53830Y42357D01*
G01X53807Y42351D01*
G01X53785Y42344D01*
G01X53763Y42334D01*
G01X53742Y42323D01*
G01X53723Y42309D01*
G01X53704Y42294D01*
G01X53688Y42277D01*
G01X53673Y42259D01*
G01X53659Y42240D01*
G01X53648Y42219D01*
G01X53638Y42197D01*
G01X53631Y42175D01*
G01X53625Y42152D01*
G01X53622Y42128D01*
G01X53621Y42104D01*
G01X53621Y41118D01*
G01X54689Y41118D01*
G01X54689Y42361D01*
G37*
G36*
G01X57634Y38891D02*
G01X56566Y38891D01*
G01X56566Y37648D01*
G01X57377Y37648D01*
G01X57401Y37649D01*
G01X57424Y37652D01*
G01X57447Y37658D01*
G01X57470Y37665D01*
G01X57492Y37675D01*
G01X57512Y37686D01*
G01X57532Y37700D01*
G01X57550Y37715D01*
G01X57567Y37732D01*
G01X57582Y37750D01*
G01X57595Y37769D01*
G01X57607Y37790D01*
G01X57617Y37812D01*
G01X57624Y37834D01*
G01X57629Y37857D01*
G01X57633Y37881D01*
G01X57634Y37905D01*
G01X57634Y38891D01*
G37*
G36*
G01X54689Y38891D02*
G01X53621Y38891D01*
G01X53621Y37905D01*
G01X53622Y37881D01*
G01X53625Y37857D01*
G01X53631Y37834D01*
G01X53638Y37812D01*
G01X53648Y37790D01*
G01X53659Y37769D01*
G01X53673Y37750D01*
G01X53688Y37732D01*
G01X53704Y37715D01*
G01X53723Y37700D01*
G01X53742Y37686D01*
G01X53763Y37675D01*
G01X53785Y37665D01*
G01X53807Y37658D01*
G01X53830Y37652D01*
G01X53854Y37649D01*
G01X53877Y37648D01*
G01X54689Y37648D01*
G01X54689Y38891D01*
G37*
G36*
G01X23316Y13452D02*
G01X23029Y13452D01*
G01X23029Y12884D01*
G01X23572Y12884D01*
G01X23572Y13195D01*
G01X23571Y13219D01*
G01X23568Y13243D01*
G01X23562Y13266D01*
G01X23555Y13288D01*
G01X23545Y13310D01*
G01X23534Y13331D01*
G01X23520Y13350D01*
G01X23505Y13368D01*
G01X23488Y13385D01*
G01X23470Y13400D01*
G01X23451Y13414D01*
G01X23430Y13425D01*
G01X23408Y13435D01*
G01X23386Y13442D01*
G01X23363Y13448D01*
G01X23339Y13451D01*
G01X23316Y13452D01*
G37*
G36*
G01X23572Y12007D02*
G01X23029Y12007D01*
G01X23029Y11439D01*
G01X23316Y11439D01*
G01X23339Y11440D01*
G01X23363Y11443D01*
G01X23386Y11449D01*
G01X23408Y11456D01*
G01X23430Y11466D01*
G01X23451Y11477D01*
G01X23470Y11491D01*
G01X23488Y11506D01*
G01X23505Y11523D01*
G01X23520Y11541D01*
G01X23534Y11560D01*
G01X23545Y11581D01*
G01X23555Y11603D01*
G01X23562Y11625D01*
G01X23568Y11648D01*
G01X23571Y11672D01*
G01X23572Y11695D01*
G01X23572Y12007D01*
G37*
G36*
G01X22202Y13452D02*
G01X21916Y13452D01*
G01X21892Y13451D01*
G01X21868Y13448D01*
G01X21845Y13442D01*
G01X21823Y13435D01*
G01X21801Y13425D01*
G01X21780Y13414D01*
G01X21761Y13400D01*
G01X21743Y13385D01*
G01X21726Y13368D01*
G01X21711Y13350D01*
G01X21697Y13331D01*
G01X21686Y13310D01*
G01X21676Y13288D01*
G01X21669Y13266D01*
G01X21663Y13243D01*
G01X21660Y13219D01*
G01X21659Y13195D01*
G01X21659Y12884D01*
G01X22202Y12884D01*
G01X22202Y13452D01*
G37*
G36*
G01X22202Y12007D02*
G01X21659Y12007D01*
G01X21659Y11695D01*
G01X21660Y11672D01*
G01X21663Y11648D01*
G01X21669Y11625D01*
G01X21676Y11603D01*
G01X21686Y11581D01*
G01X21697Y11560D01*
G01X21711Y11541D01*
G01X21726Y11523D01*
G01X21743Y11506D01*
G01X21761Y11491D01*
G01X21780Y11477D01*
G01X21801Y11466D01*
G01X21823Y11456D01*
G01X21845Y11449D01*
G01X21868Y11443D01*
G01X21892Y11440D01*
G01X21916Y11439D01*
G01X22202Y11439D01*
G01X22202Y12007D01*
G37*
G36*
G01X2661Y23881D02*
G01X2661Y24404D01*
G01X2617Y24381D01*
G01X2573Y24355D01*
G01X2531Y24328D01*
G01X2490Y24300D01*
G01X2450Y24269D01*
G01X2412Y24237D01*
G01X2375Y24203D01*
G01X2339Y24167D01*
G01X2305Y24130D01*
G01X2273Y24092D01*
G01X2242Y24052D01*
G01X2214Y24011D01*
G01X2187Y23969D01*
G01X2161Y23925D01*
G01X2138Y23881D01*
G01X2661Y23881D01*
G37*
G36*
G01X2661Y22854D02*
G01X2138Y22854D01*
G01X2161Y22810D01*
G01X2187Y22766D01*
G01X2214Y22724D01*
G01X2242Y22683D01*
G01X2273Y22643D01*
G01X2305Y22605D01*
G01X2339Y22568D01*
G01X2375Y22532D01*
G01X2412Y22498D01*
G01X2450Y22466D01*
G01X2490Y22435D01*
G01X2531Y22407D01*
G01X2573Y22380D01*
G01X2617Y22354D01*
G01X2661Y22331D01*
G01X2661Y22854D01*
G37*
G36*
G01X3732Y24381D02*
G01X3688Y24404D01*
G01X3688Y23881D01*
G01X4211Y23881D01*
G01X4188Y23925D01*
G01X4162Y23969D01*
G01X4135Y24011D01*
G01X4107Y24052D01*
G01X4076Y24092D01*
G01X4044Y24130D01*
G01X4010Y24167D01*
G01X3974Y24203D01*
G01X3937Y24237D01*
G01X3899Y24269D01*
G01X3859Y24300D01*
G01X3818Y24328D01*
G01X3776Y24355D01*
G01X3732Y24381D01*
G37*
G36*
G01X4211Y22854D02*
G01X3688Y22854D01*
G01X3688Y22331D01*
G01X3732Y22354D01*
G01X3776Y22380D01*
G01X3818Y22407D01*
G01X3859Y22435D01*
G01X3899Y22466D01*
G01X3937Y22498D01*
G01X3974Y22532D01*
G01X4010Y22568D01*
G01X4044Y22605D01*
G01X4076Y22643D01*
G01X4107Y22683D01*
G01X4135Y22724D01*
G01X4162Y22766D01*
G01X4188Y22810D01*
G01X4211Y22854D01*
G37*
G36*
G01X14491Y31728D02*
G01X14167Y31728D01*
G01X14167Y31285D01*
G01X14747Y31285D01*
G01X14747Y31471D01*
G01X14746Y31495D01*
G01X14743Y31519D01*
G01X14737Y31542D01*
G01X14730Y31564D01*
G01X14720Y31586D01*
G01X14709Y31607D01*
G01X14695Y31626D01*
G01X14680Y31644D01*
G01X14663Y31661D01*
G01X14645Y31676D01*
G01X14626Y31690D01*
G01X14605Y31701D01*
G01X14583Y31711D01*
G01X14561Y31718D01*
G01X14538Y31724D01*
G01X14514Y31727D01*
G01X14491Y31728D01*
G37*
G36*
G01X13264Y31728D02*
G01X12940Y31728D01*
G01X12917Y31727D01*
G01X12893Y31724D01*
G01X12870Y31718D01*
G01X12848Y31711D01*
G01X12826Y31701D01*
G01X12805Y31690D01*
G01X12786Y31676D01*
G01X12768Y31661D01*
G01X12751Y31644D01*
G01X12736Y31626D01*
G01X12722Y31607D01*
G01X12711Y31586D01*
G01X12701Y31564D01*
G01X12694Y31542D01*
G01X12688Y31519D01*
G01X12685Y31495D01*
G01X12684Y31471D01*
G01X12684Y31285D01*
G01X13264Y31285D01*
G01X13264Y31728D01*
G37*
G36*
G01X18720Y11867D02*
G01X18277Y11867D01*
G01X18277Y11543D01*
G01X18278Y11520D01*
G01X18281Y11496D01*
G01X18287Y11473D01*
G01X18294Y11451D01*
G01X18304Y11429D01*
G01X18315Y11408D01*
G01X18329Y11389D01*
G01X18344Y11371D01*
G01X18361Y11354D01*
G01X18379Y11339D01*
G01X18398Y11325D01*
G01X18419Y11314D01*
G01X18441Y11304D01*
G01X18463Y11297D01*
G01X18486Y11291D01*
G01X18510Y11288D01*
G01X18533Y11287D01*
G01X18720Y11287D01*
G01X18720Y11867D01*
G37*
G36*
G01X14491Y17663D02*
G01X14167Y17663D01*
G01X14167Y17220D01*
G01X14747Y17220D01*
G01X14747Y17407D01*
G01X14746Y17430D01*
G01X14743Y17454D01*
G01X14737Y17477D01*
G01X14730Y17499D01*
G01X14720Y17521D01*
G01X14709Y17542D01*
G01X14695Y17561D01*
G01X14680Y17579D01*
G01X14663Y17596D01*
G01X14645Y17611D01*
G01X14626Y17625D01*
G01X14605Y17636D01*
G01X14583Y17646D01*
G01X14561Y17653D01*
G01X14538Y17659D01*
G01X14514Y17662D01*
G01X14491Y17663D01*
G37*
G36*
G01X13264Y17663D02*
G01X12940Y17663D01*
G01X12917Y17662D01*
G01X12893Y17659D01*
G01X12870Y17653D01*
G01X12848Y17646D01*
G01X12826Y17636D01*
G01X12805Y17625D01*
G01X12786Y17611D01*
G01X12768Y17596D01*
G01X12751Y17579D01*
G01X12736Y17561D01*
G01X12722Y17542D01*
G01X12711Y17521D01*
G01X12701Y17499D01*
G01X12694Y17477D01*
G01X12688Y17454D01*
G01X12685Y17430D01*
G01X12684Y17407D01*
G01X12684Y17220D01*
G01X13264Y17220D01*
G01X13264Y17663D01*
G37*
G36*
G01X18720Y13350D02*
G01X18533Y13350D01*
G01X18510Y13349D01*
G01X18486Y13346D01*
G01X18463Y13340D01*
G01X18441Y13333D01*
G01X18419Y13323D01*
G01X18398Y13312D01*
G01X18379Y13298D01*
G01X18361Y13283D01*
G01X18344Y13266D01*
G01X18329Y13248D01*
G01X18315Y13229D01*
G01X18304Y13208D01*
G01X18294Y13186D01*
G01X18287Y13164D01*
G01X18281Y13141D01*
G01X18278Y13117D01*
G01X18277Y13094D01*
G01X18277Y12770D01*
G01X18720Y12770D01*
G01X18720Y13350D01*
G37*
G36*
G01X19790Y11867D02*
G01X19347Y11867D01*
G01X19347Y11287D01*
G01X19533Y11287D01*
G01X19557Y11288D01*
G01X19581Y11291D01*
G01X19604Y11297D01*
G01X19626Y11304D01*
G01X19648Y11314D01*
G01X19669Y11325D01*
G01X19688Y11339D01*
G01X19706Y11354D01*
G01X19723Y11371D01*
G01X19738Y11389D01*
G01X19752Y11408D01*
G01X19763Y11429D01*
G01X19773Y11451D01*
G01X19780Y11473D01*
G01X19786Y11496D01*
G01X19789Y11520D01*
G01X19790Y11543D01*
G01X19790Y11867D01*
G37*
G36*
G01X35919Y11994D02*
G01X35476Y11994D01*
G01X35476Y11414D01*
G01X35662Y11414D01*
G01X35686Y11415D01*
G01X35710Y11418D01*
G01X35733Y11424D01*
G01X35755Y11431D01*
G01X35777Y11441D01*
G01X35798Y11452D01*
G01X35817Y11466D01*
G01X35835Y11481D01*
G01X35852Y11498D01*
G01X35867Y11516D01*
G01X35881Y11535D01*
G01X35892Y11556D01*
G01X35902Y11578D01*
G01X35909Y11600D01*
G01X35915Y11623D01*
G01X35918Y11647D01*
G01X35919Y11670D01*
G01X35919Y11994D01*
G37*
G36*
G01X14747Y16593D02*
G01X14167Y16593D01*
G01X14167Y16150D01*
G01X14491Y16150D01*
G01X14514Y16151D01*
G01X14538Y16154D01*
G01X14561Y16160D01*
G01X14583Y16167D01*
G01X14605Y16177D01*
G01X14626Y16188D01*
G01X14645Y16202D01*
G01X14663Y16217D01*
G01X14680Y16234D01*
G01X14695Y16252D01*
G01X14709Y16271D01*
G01X14720Y16292D01*
G01X14730Y16314D01*
G01X14737Y16336D01*
G01X14743Y16359D01*
G01X14746Y16383D01*
G01X14747Y16407D01*
G01X14747Y16593D01*
G37*
G36*
G01X13264Y30658D02*
G01X12684Y30658D01*
G01X12684Y30471D01*
G01X12685Y30448D01*
G01X12688Y30424D01*
G01X12694Y30401D01*
G01X12701Y30379D01*
G01X12711Y30357D01*
G01X12722Y30336D01*
G01X12736Y30317D01*
G01X12751Y30299D01*
G01X12768Y30282D01*
G01X12786Y30267D01*
G01X12805Y30253D01*
G01X12826Y30242D01*
G01X12848Y30232D01*
G01X12870Y30225D01*
G01X12893Y30219D01*
G01X12917Y30216D01*
G01X12940Y30215D01*
G01X13264Y30215D01*
G01X13264Y30658D01*
G37*
G36*
G01X14747Y30658D02*
G01X14167Y30658D01*
G01X14167Y30215D01*
G01X14491Y30215D01*
G01X14514Y30216D01*
G01X14538Y30219D01*
G01X14561Y30225D01*
G01X14583Y30232D01*
G01X14605Y30242D01*
G01X14626Y30253D01*
G01X14645Y30267D01*
G01X14663Y30282D01*
G01X14680Y30299D01*
G01X14695Y30317D01*
G01X14709Y30336D01*
G01X14720Y30357D01*
G01X14730Y30379D01*
G01X14737Y30401D01*
G01X14743Y30424D01*
G01X14746Y30448D01*
G01X14747Y30471D01*
G01X14747Y30658D01*
G37*
G36*
G01X13264Y16593D02*
G01X12684Y16593D01*
G01X12684Y16407D01*
G01X12685Y16383D01*
G01X12688Y16359D01*
G01X12694Y16336D01*
G01X12701Y16314D01*
G01X12711Y16292D01*
G01X12722Y16271D01*
G01X12736Y16252D01*
G01X12751Y16234D01*
G01X12768Y16217D01*
G01X12786Y16202D01*
G01X12805Y16188D01*
G01X12826Y16177D01*
G01X12848Y16167D01*
G01X12870Y16160D01*
G01X12893Y16154D01*
G01X12917Y16151D01*
G01X12940Y16150D01*
G01X13264Y16150D01*
G01X13264Y16593D01*
G37*
G36*
G01X19533Y13350D02*
G01X19347Y13350D01*
G01X19347Y12770D01*
G01X19790Y12770D01*
G01X19790Y13094D01*
G01X19789Y13117D01*
G01X19786Y13141D01*
G01X19780Y13164D01*
G01X19773Y13186D01*
G01X19763Y13208D01*
G01X19752Y13229D01*
G01X19738Y13248D01*
G01X19723Y13266D01*
G01X19706Y13283D01*
G01X19688Y13298D01*
G01X19669Y13312D01*
G01X19648Y13323D01*
G01X19626Y13333D01*
G01X19604Y13340D01*
G01X19581Y13346D01*
G01X19557Y13349D01*
G01X19533Y13350D01*
G37*
G36*
G01X35662Y13477D02*
G01X35476Y13477D01*
G01X35476Y12897D01*
G01X35919Y12897D01*
G01X35919Y13221D01*
G01X35918Y13244D01*
G01X35915Y13268D01*
G01X35909Y13291D01*
G01X35902Y13313D01*
G01X35892Y13335D01*
G01X35881Y13356D01*
G01X35867Y13375D01*
G01X35852Y13393D01*
G01X35835Y13410D01*
G01X35817Y13425D01*
G01X35798Y13439D01*
G01X35777Y13450D01*
G01X35755Y13460D01*
G01X35733Y13467D01*
G01X35710Y13473D01*
G01X35686Y13476D01*
G01X35662Y13477D01*
G37*

%LPD*%
G54D10*
G01X23408Y20142D02*
G01X23408Y18755D01*
G01X23622Y18542D01*
G01X24511Y18542D01*
G01X25008Y19039D01*
G01X25008Y20142D01*
G01X20828Y15621D02*
G01X21590Y14859D01*
G01X26035Y14859D01*
G01X27406Y16230D01*
G01X27406Y17399D01*
G01X9635Y36068D02*
G01X13081Y36068D01*
G01X58801Y21971D02*
G01X66675Y21971D01*
G01X78613Y21971D01*
G01X82931Y21971D01*
G01X21018Y24914D02*
G01X21041Y24892D01*
G01X22479Y24892D01*
G01X23368Y24003D01*
G01X23368Y23495D01*
G01X21018Y21717D02*
G01X19177Y21717D01*
G01X18288Y20828D01*
G01X18288Y20066D01*
G01X22608Y20142D02*
G01X22608Y18542D01*
G01X48895Y22987D02*
G01X69215Y22987D01*
G01X84709Y22987D01*
G01X89789Y17907D01*
G01X22618Y28879D02*
G01X22618Y26289D01*
G01X22618Y26276D01*
G01X23749Y25146D01*
G01X23418Y28879D02*
G01X23418Y27254D01*
G01X23876Y26797D01*
G01X24130Y26543D01*
G01X29781Y25704D02*
G01X95046Y25704D01*
G01X98044Y28702D01*
G01X29781Y26504D02*
G01X60960Y26504D01*
G01X78320Y26504D01*
G01X89154Y37338D01*
G01X29781Y27305D02*
G01X50673Y27305D01*
G01X58420Y27305D01*
G01X67945Y36830D01*
G01X28216Y28879D02*
G01X28216Y31242D01*
G01X28216Y32153D01*
G01X32512Y36449D01*
G01X40640Y44577D01*
G01X41910Y45847D01*
G01X27416Y28879D02*
G01X27416Y30353D01*
G01X27416Y31130D01*
G01X27051Y31496D01*
G01X21018Y27315D02*
G01X19939Y27315D01*
G01X19928Y27315D01*
G01X19177Y28067D01*
G01X19177Y36449D01*
G01X18669Y36957D01*
G01X15748Y39878D01*
G01X14097Y41529D01*
G01X13843Y41783D01*
G01X21018Y26515D02*
G01X19458Y26515D01*
G01X18542Y27432D01*
G01X18542Y31877D01*
G01X16510Y33909D01*
G01X8382Y33909D01*
G01X8001Y33528D01*
G01X3175Y33528D01*
G01X3175Y30988D02*
G01X8255Y30988D01*
G01X10668Y33401D01*
G01X16129Y33401D01*
G01X17907Y31623D01*
G01X17907Y26797D01*
G01X18989Y25714D01*
G01X21018Y25714D01*
G01X17034Y12319D02*
G01X17034Y15383D01*
G01X18034Y16383D01*
G01X24490Y16383D01*
G01X25008Y16901D01*
G01X3175Y28448D02*
G01X7874Y28448D01*
G01X10795Y25527D01*
G01X10795Y13589D01*
G01X12065Y12319D01*
G01X17034Y12319D01*
G01X26289Y16383D02*
G01X25527Y16383D01*
G01X25008Y16901D01*
G01X25008Y20142D01*
G01X35162Y9271D02*
G01X35162Y9922D01*
G01X34290Y10795D01*
G01X34163Y10922D01*
G01X34163Y13716D01*
G01X34163Y14605D01*
G01X32385Y16383D01*
G01X25008Y20142D02*
G01X25008Y22595D01*
G01X25816Y23403D01*
G01X25816Y28879D01*
G01X25651Y40005D02*
G01X25816Y40005D01*
G01X25816Y28879D01*
G01X3175Y36068D02*
G01X7636Y36068D01*
G01X27406Y20142D02*
G01X27406Y17399D01*
G01X27432Y17399D01*
G01X30215Y14615D01*
G01X30215Y12445D01*
G01X33163Y9271D02*
G01X33163Y12446D01*
G01X30215Y12445D02*
G01X33163Y12446D01*
G01X13716Y25926D02*
G01X15983Y25926D01*
G01X17792Y24117D01*
G01X21018Y24117D01*
G01X13716Y21825D02*
G01X15602Y21825D01*
G01X17094Y23317D01*
G01X21018Y23317D01*
G01X13716Y25926D02*
G01X13716Y28972D01*
G01X13716Y21825D02*
G01X13716Y18906D01*
G54D11*
G01X30381Y27305D02*
G01X29181Y27305D01*
G01X30381Y26504D02*
G01X29181Y26504D01*
G01X30381Y25704D02*
G01X29181Y25704D01*
G01X30381Y24904D02*
G01X29181Y24904D01*
G01X30381Y24107D02*
G01X29181Y24107D01*
G01X30381Y23307D02*
G01X29181Y23307D01*
G01X30381Y22506D02*
G01X29181Y22506D01*
G01X30381Y21706D02*
G01X29181Y21706D01*
G01X28206Y20742D02*
G01X28206Y19542D01*
G01X27406Y20742D02*
G01X27406Y19542D01*
G01X26606Y20742D02*
G01X26606Y19542D01*
G01X25806Y20742D02*
G01X25806Y19542D01*
G01X25008Y20742D02*
G01X25008Y19542D01*
G01X24208Y20742D02*
G01X24208Y19542D01*
G01X23408Y20742D02*
G01X23408Y19542D01*
G01X22608Y20742D02*
G01X22608Y19542D01*
G01X21618Y21717D02*
G01X20418Y21717D01*
G01X21618Y22517D02*
G01X20418Y22517D01*
G01X21618Y23317D02*
G01X20418Y23317D01*
G01X21618Y24117D02*
G01X20418Y24117D01*
G01X21618Y24914D02*
G01X20418Y24914D01*
G01X21618Y25714D02*
G01X20418Y25714D01*
G01X21618Y26515D02*
G01X20418Y26515D01*
G01X21618Y27315D02*
G01X20418Y27315D01*
G01X22618Y29479D02*
G01X22618Y28279D01*
G01X23418Y29479D02*
G01X23418Y28279D01*
G01X24218Y29479D02*
G01X24218Y28279D01*
G01X25019Y29479D02*
G01X25019Y28279D01*
G01X25816Y29479D02*
G01X25816Y28279D01*
G01X26616Y29479D02*
G01X26616Y28279D01*
G01X27416Y29479D02*
G01X27416Y28279D01*
G01X28216Y29479D02*
G01X28216Y28279D01*
G36*
G01X16534Y13094D02*
G01X17534Y13094D01*
G01X17534Y11543D01*
G01X16534Y11543D01*
G01X16534Y13094D01*
G37*
G36*
G01X18533Y13094D02*
G01X19533Y13094D01*
G01X19533Y11543D01*
G01X18533Y11543D01*
G01X18533Y13094D01*
G37*
G36*
G01X7136Y36843D02*
G01X8136Y36843D01*
G01X8136Y35292D01*
G01X7136Y35292D01*
G01X7136Y36843D01*
G37*
G36*
G01X9135Y36843D02*
G01X10135Y36843D01*
G01X10135Y35292D01*
G01X9135Y35292D01*
G01X9135Y36843D01*
G37*
G36*
G01X32663Y13221D02*
G01X33663Y13221D01*
G01X33663Y11670D01*
G01X32663Y11670D01*
G01X32663Y13221D01*
G37*
G36*
G01X34662Y13221D02*
G01X35662Y13221D01*
G01X35662Y11670D01*
G01X34662Y11670D01*
G01X34662Y13221D01*
G37*
G54D13*
G01X33163Y9271D03*
G01X35162Y9271D03*
G54D14*
G01X55627Y40005D03*
G01X25652Y40005D03*
G36*
G01X12516Y26876D02*
G01X14915Y26876D01*
G01X14915Y24976D01*
G01X12516Y24976D01*
G01X12516Y26876D01*
G37*
G36*
G01X12516Y22775D02*
G01X14915Y22775D01*
G01X14915Y20875D01*
G01X12516Y20875D01*
G01X12516Y22775D01*
G37*
G54D16*
G01X30215Y12446D03*
G01X22616Y12446D03*
G54D17*
G01X13716Y30971D03*
G01X13716Y28972D03*
G01X13716Y16907D03*
G01X13716Y18906D03*
G54D18*
G01X3175Y23368D03*
G01X3175Y25908D03*
G01X3175Y28448D03*
G01X3175Y30988D03*
G01X3175Y33528D03*
G54D19*
G01X3175Y36068D03*
G54D12*
G01X32385Y16383D03*
G01X26289Y16383D03*
G01X13843Y41783D03*
G01X27051Y31496D03*
G01X41910Y45847D03*
G01X67945Y36830D03*
G01X89154Y37338D03*
G01X98044Y28702D03*
G01X24130Y26543D03*
G01X23749Y25146D03*
G01X48895Y22987D03*
G01X89789Y17907D03*
G01X22608Y18542D03*
G01X18288Y20066D03*
G01X23368Y23495D03*
G01X58801Y21971D03*
G01X82931Y21971D03*
G01X13081Y36068D03*
G01X20828Y15621D03*
M00*
M02*
