;Layer: Drill PTH
;EasyEDA v6.4.7, 2020-12-24T11:11:18+08:00
;a96b1d35a67042aea81d214db1df88de,0371d748834c44ad86c168cee136e782,10
;Gerber Generator version 0.2
M48
METRIC,LZ,000.000
;Holesize 1 = 0.306 METRIC
T01C0.306
;Holesize 2 = 1.200 METRIC
T02C1.200
%
G05
G90
T01
X+032385Y+016383
X+026289Y+016383
X+013843Y+041783
X+027051Y+031496
X+041910Y+045847
X+067945Y+036830
X+089154Y+037338
X+098044Y+028702
X+024130Y+026543
X+023749Y+025146
X+048895Y+022987
X+089789Y+017907
X+022608Y+018542
X+018288Y+020066
X+023368Y+023495
X+058801Y+021971
X+082931Y+021971
X+013081Y+036068
X+020828Y+015621
T02
X+003175Y+023368
X+003175Y+025908
X+003175Y+028448
X+003175Y+030988
X+003175Y+033528
X+003175Y+036068
M30
