G04 Layer: TopPasteMaskLayer*
G04 EasyEDA v6.4.7, 2020-12-24T11:11:18+08:00*
G04 a96b1d35a67042aea81d214db1df88de,0371d748834c44ad86c168cee136e782,10*
G04 Gerber Generator version 0.2*
G04 Scale: 100 percent, Rotated: No, Reflected: No *
G04 Dimensions in millimeters *
G04 leading zeros omitted , absolute positions ,3 integer and 3 decimal *
%FSLAX33Y33*%
%MOMM*%
G90*
D02*

%ADD11C,0.450012*%
%ADD13R,0.999998X1.550010*%
%ADD14R,3.499993X4.199992*%
%ADD16R,1.399997X1.499997*%
%ADD17R,1.550010X0.999998*%

%LPD*%
G54D11*
G01X30381Y27305D02*
G01X29181Y27305D01*
G01X30381Y26504D02*
G01X29181Y26504D01*
G01X30381Y25704D02*
G01X29181Y25704D01*
G01X30381Y24904D02*
G01X29181Y24904D01*
G01X30381Y24107D02*
G01X29181Y24107D01*
G01X30381Y23307D02*
G01X29181Y23307D01*
G01X30381Y22506D02*
G01X29181Y22506D01*
G01X30381Y21706D02*
G01X29181Y21706D01*
G01X28206Y20742D02*
G01X28206Y19542D01*
G01X27406Y20742D02*
G01X27406Y19542D01*
G01X26606Y20742D02*
G01X26606Y19542D01*
G01X25806Y20742D02*
G01X25806Y19542D01*
G01X25008Y20742D02*
G01X25008Y19542D01*
G01X24208Y20742D02*
G01X24208Y19542D01*
G01X23408Y20742D02*
G01X23408Y19542D01*
G01X22608Y20742D02*
G01X22608Y19542D01*
G01X21618Y21717D02*
G01X20418Y21717D01*
G01X21618Y22517D02*
G01X20418Y22517D01*
G01X21618Y23317D02*
G01X20418Y23317D01*
G01X21618Y24117D02*
G01X20418Y24117D01*
G01X21618Y24914D02*
G01X20418Y24914D01*
G01X21618Y25714D02*
G01X20418Y25714D01*
G01X21618Y26515D02*
G01X20418Y26515D01*
G01X21618Y27315D02*
G01X20418Y27315D01*
G01X22618Y29479D02*
G01X22618Y28279D01*
G01X23418Y29479D02*
G01X23418Y28279D01*
G01X24218Y29479D02*
G01X24218Y28279D01*
G01X25019Y29479D02*
G01X25019Y28279D01*
G01X25816Y29479D02*
G01X25816Y28279D01*
G01X26616Y29479D02*
G01X26616Y28279D01*
G01X27416Y29479D02*
G01X27416Y28279D01*
G01X28216Y29479D02*
G01X28216Y28279D01*
G36*
G01X16534Y13094D02*
G01X17534Y13094D01*
G01X17534Y11543D01*
G01X16534Y11543D01*
G01X16534Y13094D01*
G37*
G36*
G01X18533Y13094D02*
G01X19533Y13094D01*
G01X19533Y11543D01*
G01X18533Y11543D01*
G01X18533Y13094D01*
G37*
G36*
G01X7136Y36843D02*
G01X8136Y36843D01*
G01X8136Y35292D01*
G01X7136Y35292D01*
G01X7136Y36843D01*
G37*
G36*
G01X9135Y36843D02*
G01X10135Y36843D01*
G01X10135Y35292D01*
G01X9135Y35292D01*
G01X9135Y36843D01*
G37*
G36*
G01X32663Y13221D02*
G01X33663Y13221D01*
G01X33663Y11670D01*
G01X32663Y11670D01*
G01X32663Y13221D01*
G37*
G36*
G01X34662Y13221D02*
G01X35662Y13221D01*
G01X35662Y11670D01*
G01X34662Y11670D01*
G01X34662Y13221D01*
G37*
G54D13*
G01X33163Y9271D03*
G01X35162Y9271D03*
G54D14*
G01X55627Y40005D03*
G01X25652Y40005D03*
G36*
G01X12516Y26876D02*
G01X14915Y26876D01*
G01X14915Y24976D01*
G01X12516Y24976D01*
G01X12516Y26876D01*
G37*
G36*
G01X12516Y22775D02*
G01X14915Y22775D01*
G01X14915Y20875D01*
G01X12516Y20875D01*
G01X12516Y22775D01*
G37*
G54D16*
G01X30215Y12446D03*
G01X22616Y12446D03*
G54D17*
G01X13716Y30971D03*
G01X13716Y28972D03*
G01X13716Y16907D03*
G01X13716Y18906D03*
M00*
M02*
